SplineFontDB: 3.2
FontName: CommitMonoFont-Bold
FullName: CommitMonoFont Bold
FamilyName: CommitMonoFont
Weight: Bold
Copyright: Copyright 2023 Commit Mono authors (https://github.com/eigilnikolajsen/commit-mono)
Version: Version 1.143
ItalicAngle: 0
UnderlinePosition: -125
UnderlineWidth: 50
Ascent: 800
Descent: 200
InvalidEm: 0
sfntRevision: 0x00010000
LayerCount: 2
Layer: 0 0 "+gMxmbwAA" 1
Layer: 1 0 "+Uk1mbwAA" 0
XUID: [1021 689 -331905675 24432]
StyleMap: 0x0020
FSType: 0
OS2Version: 4
OS2_WeightWidthSlopeOnly: 0
OS2_UseTypoMetrics: 0
CreationTime: 1737275056
ModificationTime: 1737301317
PfmFamily: 81
TTFWeight: 700
TTFWidth: 5
LineGap: 0
VLineGap: 0
Panose: 0 0 0 0 0 0 0 0 0 0
OS2TypoAscent: 900
OS2TypoAOffset: 0
OS2TypoDescent: -200
OS2TypoDOffset: 0
OS2TypoLinegap: 0
OS2WinAscent: 900
OS2WinAOffset: 0
OS2WinDescent: 200
OS2WinDOffset: 0
HheadAscent: 900
HheadAOffset: 0
HheadDescent: -200
HheadDOffset: 0
OS2SubXSize: 650
OS2SubYSize: 600
OS2SubXOff: 0
OS2SubYOff: -75
OS2SupXSize: 650
OS2SupYSize: 600
OS2SupXOff: 0
OS2SupYOff: 350
OS2StrikeYSize: 50
OS2StrikeYPos: 324
OS2CapHeight: 700
OS2XHeight: 540
OS2Vendor: '    '
OS2CodePages: 4000009b.00000000
OS2UnicodeRanges: 800000a7.100039f3.00040020.00000000
Lookup: 1 0 0 "'cv01' +W1d7JlPYT1MA-01 +Z+VifgAA 0" { "'cv01' +W1d7JlPYT1MA-01 +Z+VifgAA 0+Zv9O44ho"  } ['cv01' ('DFLT' <'dflt' > ) ]
Lookup: 1 0 0 "'cv02' +W1d7JlPYT1MA-02 +Z+VifgAA 1" { "'cv02' +W1d7JlPYT1MA-02 +Z+VifgAA 1+Zv9O44ho"  } ['cv02' ('DFLT' <'dflt' > ) ]
Lookup: 1 0 0 "'cv03' +W1d7JlPYT1MA-03 +Z+VifgAA 2" { "'cv03' +W1d7JlPYT1MA-03 +Z+VifgAA 2+Zv9O44ho"  } ['cv03' ('DFLT' <'dflt' > ) ]
Lookup: 1 0 0 "'cv04' +W1d7JlPYT1MA-04 +Z+VifgAA 3" { "'cv04' +W1d7JlPYT1MA-04 +Z+VifgAA 3+Zv9O44ho"  } ['cv04' ('DFLT' <'dflt' > ) ]
Lookup: 1 0 0 "'cv05' +W1d7JlPYT1MA-05 +Z+VifgAA 4" { "'cv05' +W1d7JlPYT1MA-05 +Z+VifgAA 4+Zv9O44ho"  } ['cv05' ('DFLT' <'dflt' > ) ]

StartChar: .notdef
Encoding: 65536 -1 0
Width: 600
GlyphClass: 1
Flags: W
LayerCount: 2
Fore
SplineSet
222 38 m 1
 222 74 l 1
 296 203 l 1
 348 203 l 1
 348 71 l 1
 383 71 l 1
 383 38 l 1
 348 38 l 1
 348 -7 l 1
 312 -7 l 1
 312 38 l 1
 222 38 l 1
311 170 m 1
 255 71 l 1
 312 71 l 1
 312 170 l 1
 311 170 l 1
300 242 m 0
 253 242 225 282 225 350 c 0
 225 418 253 458 300 458 c 0
 347 458 375 418 375 350 c 0
 375 282 347 242 300 242 c 0
262 327 m 1
 330 402 l 1
 323 417 314 425 300 425 c 0
 275 425 261 398 261 350 c 0
 261 342 261 334 262 327 c 1
300 275 m 0
 325 275 339 302 339 350 c 0
 339 358 339 366 338 373 c 1
 270 298 l 1
 277 283 287 275 300 275 c 0
222 543 m 1
 222 579 l 1
 296 708 l 1
 348 708 l 1
 348 576 l 1
 383 576 l 1
 383 543 l 1
 348 543 l 1
 348 498 l 1
 312 498 l 1
 312 543 l 1
 222 543 l 1
311 675 m 1
 255 576 l 1
 312 576 l 1
 312 675 l 1
 311 675 l 1
67 -45 m 1
 533 -45 l 1
 533 745 l 1
 67 745 l 1
 67 -45 l 1
30 -80 m 1
 30 780 l 1
 570 780 l 1
 570 -80 l 1
 30 -80 l 1
EndSplineSet
Validated: 1
EndChar

StartChar: A
Encoding: 65 65 4
Width: 600
GlyphClass: 1
Flags: W
LayerCount: 2
Fore
SplineSet
144 0 m 1
 23 0 l 1
 213 700 l 1
 387 700 l 1
 577 0 l 1
 454 0 l 1
 408 174 l 1
 190 174 l 1
 144 0 l 1
220 284 m 1
 378 284 l 1
 301 575 l 1
 297 575 l 1
 220 284 l 1
EndSplineSet
Validated: 1
Substitution2: "+U1VOAGb/Y2IA +Z+VifgAA 72+Zv9O44ho" A.rightS
Substitution2: "+U1VOAGb/Y2IA +Z+VifgAA 71+Zv9O44ho" A.rightM
Substitution2: "+U1VOAGb/Y2IA +Z+VifgAA 70+Zv9O44ho" A.rightL
Substitution2: "+U1VOAGb/Y2IA +Z+VifgAA 69+Zv9O44ho" A.leftS
Substitution2: "+U1VOAGb/Y2IA +Z+VifgAA 68+Zv9O44ho" A.leftM
Substitution2: "+U1VOAGb/Y2IA +Z+VifgAA 67+Zv9O44ho" A.leftL
Substitution2: "+U1VOAGb/Y2IA +Z+VifgAA 66+Zv9O44ho" A.rightS
Substitution2: "+U1VOAGb/Y2IA +Z+VifgAA 65+Zv9O44ho" A.rightM
Substitution2: "+U1VOAGb/Y2IA +Z+VifgAA 64+Zv9O44ho" A.rightS
Substitution2: "+U1VOAGb/Y2IA +Z+VifgAA 63+Zv9O44ho" A.rightM
Substitution2: "+U1VOAGb/Y2IA +Z+VifgAA 62+Zv9O44ho" A.rightL
Substitution2: "+U1VOAGb/Y2IA +Z+VifgAA 61+Zv9O44ho" A.leftS
Substitution2: "+U1VOAGb/Y2IA +Z+VifgAA 60+Zv9O44ho" A.leftM
Substitution2: "+U1VOAGb/Y2IA +Z+VifgAA 59+Zv9O44ho" A.leftL
EndChar

StartChar: A.leftL
Encoding: 65537 -1 5
Width: 600
GlyphClass: 1
Flags: W
LayerCount: 2
Fore
SplineSet
102 0 m 1
 -19 0 l 1
 171 700 l 1
 345 700 l 1
 535 0 l 1
 412 0 l 1
 366 174 l 1
 148 174 l 1
 102 0 l 1
178 284 m 1
 336 284 l 1
 259 575 l 1
 255 575 l 1
 178 284 l 1
EndSplineSet
Validated: 1
EndChar

StartChar: A.leftM
Encoding: 65538 -1 6
Width: 600
GlyphClass: 1
Flags: W
LayerCount: 2
Fore
SplineSet
117 0 m 1
 -4 0 l 1
 186 700 l 1
 360 700 l 1
 550 0 l 1
 427 0 l 1
 381 174 l 1
 163 174 l 1
 117 0 l 1
193 284 m 1
 351 284 l 1
 274 575 l 1
 270 575 l 1
 193 284 l 1
EndSplineSet
Validated: 1
EndChar

StartChar: A.leftS
Encoding: 65539 -1 7
Width: 600
GlyphClass: 1
Flags: W
LayerCount: 2
Fore
SplineSet
132 0 m 1
 11 0 l 1
 201 700 l 1
 375 700 l 1
 565 0 l 1
 442 0 l 1
 396 174 l 1
 178 174 l 1
 132 0 l 1
208 284 m 1
 366 284 l 1
 289 575 l 1
 285 575 l 1
 208 284 l 1
EndSplineSet
Validated: 1
EndChar

StartChar: A.rightL
Encoding: 65540 -1 8
Width: 600
GlyphClass: 1
Flags: W
LayerCount: 2
Fore
SplineSet
186 0 m 1
 65 0 l 1
 255 700 l 1
 429 700 l 1
 619 0 l 1
 496 0 l 1
 450 174 l 1
 232 174 l 1
 186 0 l 1
262 284 m 1
 420 284 l 1
 343 575 l 1
 339 575 l 1
 262 284 l 1
EndSplineSet
Validated: 1
EndChar

StartChar: A.rightM
Encoding: 65541 -1 9
Width: 600
GlyphClass: 1
Flags: W
LayerCount: 2
Fore
SplineSet
171 0 m 1
 50 0 l 1
 240 700 l 1
 414 700 l 1
 604 0 l 1
 481 0 l 1
 435 174 l 1
 217 174 l 1
 171 0 l 1
247 284 m 1
 405 284 l 1
 328 575 l 1
 324 575 l 1
 247 284 l 1
EndSplineSet
Validated: 1
EndChar

StartChar: A.rightS
Encoding: 65542 -1 10
Width: 600
GlyphClass: 1
Flags: W
LayerCount: 2
Fore
SplineSet
156 0 m 1
 35 0 l 1
 225 700 l 1
 399 700 l 1
 589 0 l 1
 466 0 l 1
 420 174 l 1
 202 174 l 1
 156 0 l 1
232 284 m 1
 390 284 l 1
 313 575 l 1
 309 575 l 1
 232 284 l 1
EndSplineSet
Validated: 1
EndChar

StartChar: AE
Encoding: 198 198 11
Width: 600
GlyphClass: 1
Flags: W
LayerCount: 2
Fore
SplineSet
0 0 m 1
 180 700 l 1
 580 700 l 1
 580 590 l 1
 396 590 l 1
 396 418 l 1
 546 418 l 1
 546 308 l 1
 396 308 l 1
 396 110 l 1
 580 110 l 1
 580 0 l 1
 276 0 l 1
 276 193 l 1
 169 193 l 1
 119 0 l 1
 0 0 l 1
197 303 m 1
 276 303 l 1
 276 590 l 1
 271 590 l 1
 197 303 l 1
EndSplineSet
Validated: 1
EndChar

StartChar: AEacute
Encoding: 508 508 12
Width: 600
GlyphClass: 1
Flags: W
LayerCount: 2
Fore
SplineSet
0 0 m 1
 180 700 l 1
 580 700 l 1
 580 590 l 1
 396 590 l 1
 396 418 l 1
 546 418 l 1
 546 308 l 1
 396 308 l 1
 396 110 l 1
 580 110 l 1
 580 0 l 1
 276 0 l 1
 276 193 l 1
 169 193 l 1
 119 0 l 1
 0 0 l 1
197 303 m 1
 276 303 l 1
 276 590 l 1
 271 590 l 1
 197 303 l 1
523 980 m 1
 394 780 l 1
 294 780 l 1
 373 980 l 1
 523 980 l 1
EndSplineSet
Validated: 1
EndChar

StartChar: Aacute
Encoding: 193 193 13
Width: 600
GlyphClass: 1
Flags: W
LayerCount: 2
Fore
SplineSet
144 0 m 1
 23 0 l 1
 213 700 l 1
 387 700 l 1
 577 0 l 1
 454 0 l 1
 408 174 l 1
 190 174 l 1
 144 0 l 1
220 284 m 1
 378 284 l 1
 301 575 l 1
 297 575 l 1
 220 284 l 1
454 980 m 1
 325 780 l 1
 225 780 l 1
 304 980 l 1
 454 980 l 1
EndSplineSet
Validated: 1
EndChar

StartChar: Abreve
Encoding: 258 258 14
Width: 600
GlyphClass: 1
Flags: W
LayerCount: 2
Fore
SplineSet
144 0 m 1
 23 0 l 1
 213 700 l 1
 387 700 l 1
 577 0 l 1
 454 0 l 1
 408 174 l 1
 190 174 l 1
 144 0 l 1
220 284 m 1
 378 284 l 1
 301 575 l 1
 297 575 l 1
 220 284 l 1
244 932 m 1
 248 892 270 866 300 866 c 0
 330 866 352 892 356 932 c 1
 451 932 l 1
 451 841 388 776 300 776 c 0
 212 776 149 841 149 932 c 1
 244 932 l 1
EndSplineSet
Validated: 1
EndChar

StartChar: Acircumflex
Encoding: 194 194 15
Width: 600
GlyphClass: 1
Flags: W
LayerCount: 2
Fore
SplineSet
144 0 m 1
 23 0 l 1
 213 700 l 1
 387 700 l 1
 577 0 l 1
 454 0 l 1
 408 174 l 1
 190 174 l 1
 144 0 l 1
220 284 m 1
 378 284 l 1
 301 575 l 1
 297 575 l 1
 220 284 l 1
126 771 m 1
 245 971 l 1
 355 971 l 1
 474 771 l 1
 379 771 l 1
 300 873 l 1
 221 771 l 1
 126 771 l 1
EndSplineSet
Validated: 1
EndChar

StartChar: Adieresis
Encoding: 196 196 16
Width: 600
GlyphClass: 1
Flags: W
LayerCount: 2
Fore
SplineSet
144 0 m 1
 23 0 l 1
 213 700 l 1
 387 700 l 1
 577 0 l 1
 454 0 l 1
 408 174 l 1
 190 174 l 1
 144 0 l 1
220 284 m 1
 378 284 l 1
 301 575 l 1
 297 575 l 1
 220 284 l 1
106 859 m 0
 106 906 144 943 190 943 c 0
 237 943 274 906 274 859 c 0
 274 813 237 776 190 776 c 0
 144 776 106 813 106 859 c 0
326 859 m 0
 326 906 364 943 410 943 c 0
 457 943 494 906 494 859 c 0
 494 813 457 776 410 776 c 0
 364 776 326 813 326 859 c 0
EndSplineSet
Validated: 1
Substitution2: "'cv03' +W1d7JlPYT1MA-03 +Z+VifgAA 2+Zv9O44ho" Adieresis.square
EndChar

StartChar: Adieresis.square
Encoding: 65543 -1 17
Width: 600
GlyphClass: 1
Flags: W
LayerCount: 2
Fore
SplineSet
144 0 m 1
 23 0 l 1
 213 700 l 1
 387 700 l 1
 577 0 l 1
 454 0 l 1
 408 174 l 1
 190 174 l 1
 144 0 l 1
220 284 m 1
 378 284 l 1
 301 575 l 1
 297 575 l 1
 220 284 l 1
118 775 m 1
 118 920 l 1
 263 920 l 1
 263 775 l 1
 118 775 l 1
338 775 m 1
 338 920 l 1
 483 920 l 1
 483 775 l 1
 338 775 l 1
EndSplineSet
Validated: 1
EndChar

StartChar: Agrave
Encoding: 192 192 18
Width: 600
GlyphClass: 1
Flags: W
LayerCount: 2
Fore
SplineSet
144 0 m 1
 23 0 l 1
 213 700 l 1
 387 700 l 1
 577 0 l 1
 454 0 l 1
 408 174 l 1
 190 174 l 1
 144 0 l 1
220 284 m 1
 378 284 l 1
 301 575 l 1
 297 575 l 1
 220 284 l 1
375 780 m 1
 275 780 l 1
 146 980 l 1
 296 980 l 1
 375 780 l 1
EndSplineSet
Validated: 1
EndChar

StartChar: Alpha
Encoding: 913 913 19
Width: 600
GlyphClass: 1
Flags: W
LayerCount: 2
Fore
SplineSet
144 0 m 1
 23 0 l 1
 213 700 l 1
 387 700 l 1
 577 0 l 1
 454 0 l 1
 408 174 l 1
 190 174 l 1
 144 0 l 1
220 284 m 1
 378 284 l 1
 301 575 l 1
 297 575 l 1
 220 284 l 1
EndSplineSet
Validated: 1
EndChar

StartChar: Alphatonos
Encoding: 902 902 20
Width: 600
GlyphClass: 1
Flags: W
LayerCount: 2
Fore
SplineSet
144 0 m 1
 23 0 l 1
 213 700 l 1
 387 700 l 1
 577 0 l 1
 454 0 l 1
 408 174 l 1
 190 174 l 1
 144 0 l 1
220 284 m 1
 378 284 l 1
 301 575 l 1
 297 575 l 1
 220 284 l 1
203 780 m 1
 124 560 l 1
 34 560 l 1
 63 780 l 1
 203 780 l 1
EndSplineSet
Validated: 1
EndChar

StartChar: Amacron
Encoding: 256 256 21
Width: 600
GlyphClass: 1
Flags: W
LayerCount: 2
Fore
SplineSet
144 0 m 1
 23 0 l 1
 213 700 l 1
 387 700 l 1
 577 0 l 1
 454 0 l 1
 408 174 l 1
 190 174 l 1
 144 0 l 1
220 284 m 1
 378 284 l 1
 301 575 l 1
 297 575 l 1
 220 284 l 1
140 800 m 1
 140 900 l 1
 460 900 l 1
 460 800 l 1
 140 800 l 1
EndSplineSet
Validated: 1
EndChar

StartChar: Aogonek
Encoding: 260 260 22
Width: 600
GlyphClass: 1
Flags: W
LayerCount: 2
Fore
SplineSet
144 0 m 1
 23 0 l 1
 213 700 l 1
 387 700 l 1
 577 0 l 1
 510 0 l 1
 456 -24 432 -48 432 -76 c 0
 432 -103 454 -120 486 -120 c 0
 494 -120 503 -119 510 -117 c 1
 510 -200 l 1
 498 -203 482 -205 465 -205 c 0
 386 -205 332 -161 332 -97 c 0
 332 -43 371 2 445 34 c 1
 408 174 l 1
 190 174 l 1
 144 0 l 1
220 284 m 1
 378 284 l 1
 301 575 l 1
 297 575 l 1
 220 284 l 1
EndSplineSet
Validated: 1
EndChar

StartChar: Aring
Encoding: 197 197 23
Width: 600
GlyphClass: 1
Flags: W
LayerCount: 2
Fore
SplineSet
144 0 m 1
 23 0 l 1
 213 700 l 1
 387 700 l 1
 577 0 l 1
 454 0 l 1
 408 174 l 1
 190 174 l 1
 144 0 l 1
220 284 m 1
 378 284 l 1
 301 575 l 1
 297 575 l 1
 220 284 l 1
167 888 m 0
 167 960 224 1014 300 1014 c 0
 376 1014 433 960 433 888 c 0
 433 814 374 756 300 756 c 0
 226 756 167 814 167 888 c 0
300 832 m 0
 330 832 352 855 352 885 c 0
 352 915 330 938 300 938 c 0
 270 938 248 915 248 885 c 0
 248 855 270 832 300 832 c 0
EndSplineSet
Validated: 1
EndChar

StartChar: Aringacute
Encoding: 506 506 24
Width: 600
GlyphClass: 1
Flags: W
LayerCount: 2
Fore
SplineSet
144 0 m 1
 23 0 l 1
 204 666 l 1
 181 690 167 722 167 758 c 0
 167 814 201 859 252 876 c 1
 305 1010 l 1
 455 1010 l 1
 364 869 l 1
 406 849 433 807 433 758 c 0
 433 722 419 690 396 666 c 1
 577 0 l 1
 454 0 l 1
 408 174 l 1
 190 174 l 1
 144 0 l 1
220 284 m 1
 378 284 l 1
 301 575 l 1
 297 575 l 1
 220 284 l 1
300 702 m 0
 330 702 352 725 352 755 c 0
 352 785 330 808 300 808 c 0
 270 808 248 785 248 755 c 0
 248 725 270 702 300 702 c 0
EndSplineSet
Validated: 1
EndChar

StartChar: Atilde
Encoding: 195 195 25
Width: 600
GlyphClass: 1
Flags: W
LayerCount: 2
Fore
SplineSet
144 0 m 1
 23 0 l 1
 213 700 l 1
 387 700 l 1
 577 0 l 1
 454 0 l 1
 408 174 l 1
 190 174 l 1
 144 0 l 1
220 284 m 1
 378 284 l 1
 301 575 l 1
 297 575 l 1
 220 284 l 1
116 799 m 1
 116 832 l 2
 116 914 159 963 232 963 c 0
 327 963 343 878 368 878 c 0
 378 878 382 892 383 928 c 2
 383 949 l 1
 484 949 l 1
 484 916 l 2
 484 834 441 785 368 785 c 0
 273 785 259 870 234 870 c 0
 224 870 218 855 217 820 c 2
 217 799 l 1
 116 799 l 1
EndSplineSet
Validated: 1
EndChar

StartChar: B
Encoding: 66 66 26
Width: 600
GlyphClass: 1
Flags: W
LayerCount: 2
Fore
SplineSet
85 0 m 1
 85 700 l 1
 325 700 l 2
 440 700 524 621 524 514 c 0
 524 452 495 400 447 369 c 1
 447 365 l 1
 508 334 546 275 546 200 c 0
 546 85 457 0 335 0 c 2
 85 0 l 1
210 418 m 1
 325 418 l 2
 371 418 404 454 404 504 c 0
 404 554 371 590 325 590 c 2
 210 590 l 1
 210 418 l 1
210 110 m 1
 335 110 l 2
 386 110 421 151 421 209 c 0
 421 267 386 308 335 308 c 2
 210 308 l 1
 210 110 l 1
EndSplineSet
Validated: 1
Substitution2: "+U1VOAGb/Y2IA +Z+VifgAA 72+Zv9O44ho" B.rightS
Substitution2: "+U1VOAGb/Y2IA +Z+VifgAA 71+Zv9O44ho" B.rightM
Substitution2: "+U1VOAGb/Y2IA +Z+VifgAA 70+Zv9O44ho" B.rightL
Substitution2: "+U1VOAGb/Y2IA +Z+VifgAA 69+Zv9O44ho" B.leftS
Substitution2: "+U1VOAGb/Y2IA +Z+VifgAA 68+Zv9O44ho" B.leftM
Substitution2: "+U1VOAGb/Y2IA +Z+VifgAA 67+Zv9O44ho" B.leftL
Substitution2: "+U1VOAGb/Y2IA +Z+VifgAA 66+Zv9O44ho" B.rightS
Substitution2: "+U1VOAGb/Y2IA +Z+VifgAA 65+Zv9O44ho" B.rightM
Substitution2: "+U1VOAGb/Y2IA +Z+VifgAA 64+Zv9O44ho" B.rightS
Substitution2: "+U1VOAGb/Y2IA +Z+VifgAA 63+Zv9O44ho" B.rightM
Substitution2: "+U1VOAGb/Y2IA +Z+VifgAA 62+Zv9O44ho" B.rightL
Substitution2: "+U1VOAGb/Y2IA +Z+VifgAA 61+Zv9O44ho" B.leftS
Substitution2: "+U1VOAGb/Y2IA +Z+VifgAA 60+Zv9O44ho" B.leftM
Substitution2: "+U1VOAGb/Y2IA +Z+VifgAA 59+Zv9O44ho" B.leftL
EndChar

StartChar: B.leftL
Encoding: 65544 -1 27
Width: 600
GlyphClass: 1
Flags: W
LayerCount: 2
Fore
SplineSet
41 0 m 1
 41 700 l 1
 281 700 l 2
 396 700 480 621 480 514 c 0
 480 452 451 400 403 369 c 1
 403 365 l 1
 464 334 502 275 502 200 c 0
 502 85 413 0 291 0 c 2
 41 0 l 1
166 418 m 1
 281 418 l 2
 327 418 360 454 360 504 c 0
 360 554 327 590 281 590 c 2
 166 590 l 1
 166 418 l 1
166 110 m 1
 291 110 l 2
 342 110 377 151 377 209 c 0
 377 267 342 308 291 308 c 2
 166 308 l 1
 166 110 l 1
EndSplineSet
Validated: 1
EndChar

StartChar: B.leftM
Encoding: 65545 -1 28
Width: 600
GlyphClass: 1
Flags: W
LayerCount: 2
Fore
SplineSet
55 0 m 1
 55 700 l 1
 295 700 l 2
 410 700 494 621 494 514 c 0
 494 452 465 400 417 369 c 1
 417 365 l 1
 478 334 516 275 516 200 c 0
 516 85 427 0 305 0 c 2
 55 0 l 1
180 418 m 1
 295 418 l 2
 341 418 374 454 374 504 c 0
 374 554 341 590 295 590 c 2
 180 590 l 1
 180 418 l 1
180 110 m 1
 305 110 l 2
 356 110 391 151 391 209 c 0
 391 267 356 308 305 308 c 2
 180 308 l 1
 180 110 l 1
EndSplineSet
Validated: 1
EndChar

StartChar: B.leftS
Encoding: 65546 -1 29
Width: 600
GlyphClass: 1
Flags: W
LayerCount: 2
Fore
SplineSet
67 0 m 1
 67 700 l 1
 307 700 l 2
 422 700 506 621 506 514 c 0
 506 452 477 400 429 369 c 1
 429 365 l 1
 490 334 528 275 528 200 c 0
 528 85 439 0 317 0 c 2
 67 0 l 1
192 418 m 1
 307 418 l 2
 353 418 386 454 386 504 c 0
 386 554 353 590 307 590 c 2
 192 590 l 1
 192 418 l 1
192 110 m 1
 317 110 l 2
 368 110 403 151 403 209 c 0
 403 267 368 308 317 308 c 2
 192 308 l 1
 192 110 l 1
EndSplineSet
Validated: 1
EndChar

StartChar: B.rightL
Encoding: 65547 -1 30
Width: 600
GlyphClass: 1
Flags: W
LayerCount: 2
Fore
SplineSet
129 0 m 1
 129 700 l 1
 369 700 l 2
 484 700 568 621 568 514 c 0
 568 452 539 400 491 369 c 1
 491 365 l 1
 552 334 590 275 590 200 c 0
 590 85 501 0 379 0 c 2
 129 0 l 1
254 418 m 1
 369 418 l 2
 415 418 448 454 448 504 c 0
 448 554 415 590 369 590 c 2
 254 590 l 1
 254 418 l 1
254 110 m 1
 379 110 l 2
 430 110 465 151 465 209 c 0
 465 267 430 308 379 308 c 2
 254 308 l 1
 254 110 l 1
EndSplineSet
Validated: 1
EndChar

StartChar: B.rightM
Encoding: 65548 -1 31
Width: 600
GlyphClass: 1
Flags: W
LayerCount: 2
Fore
SplineSet
115 0 m 1
 115 700 l 1
 355 700 l 2
 470 700 554 621 554 514 c 0
 554 452 525 400 477 369 c 1
 477 365 l 1
 538 334 576 275 576 200 c 0
 576 85 487 0 365 0 c 2
 115 0 l 1
240 418 m 1
 355 418 l 2
 401 418 434 454 434 504 c 0
 434 554 401 590 355 590 c 2
 240 590 l 1
 240 418 l 1
240 110 m 1
 365 110 l 2
 416 110 451 151 451 209 c 0
 451 267 416 308 365 308 c 2
 240 308 l 1
 240 110 l 1
EndSplineSet
Validated: 1
EndChar

StartChar: B.rightS
Encoding: 65549 -1 32
Width: 600
GlyphClass: 1
Flags: W
LayerCount: 2
Fore
SplineSet
97 0 m 1
 97 700 l 1
 337 700 l 2
 452 700 536 621 536 514 c 0
 536 452 507 400 459 369 c 1
 459 365 l 1
 520 334 558 275 558 200 c 0
 558 85 469 0 347 0 c 2
 97 0 l 1
222 418 m 1
 337 418 l 2
 383 418 416 454 416 504 c 0
 416 554 383 590 337 590 c 2
 222 590 l 1
 222 418 l 1
222 110 m 1
 347 110 l 2
 398 110 433 151 433 209 c 0
 433 267 398 308 347 308 c 2
 222 308 l 1
 222 110 l 1
EndSplineSet
Validated: 1
EndChar

StartChar: Beta
Encoding: 914 914 33
Width: 600
GlyphClass: 1
Flags: W
LayerCount: 2
Fore
SplineSet
85 0 m 1
 85 700 l 1
 325 700 l 2
 440 700 524 621 524 514 c 0
 524 452 495 400 447 369 c 1
 447 365 l 1
 508 334 546 275 546 200 c 0
 546 85 457 0 335 0 c 2
 85 0 l 1
210 418 m 1
 325 418 l 2
 371 418 404 454 404 504 c 0
 404 554 371 590 325 590 c 2
 210 590 l 1
 210 418 l 1
210 110 m 1
 335 110 l 2
 386 110 421 151 421 209 c 0
 421 267 386 308 335 308 c 2
 210 308 l 1
 210 110 l 1
EndSplineSet
Validated: 1
EndChar

StartChar: C
Encoding: 67 67 34
Width: 600
GlyphClass: 1
Flags: W
LayerCount: 2
Fore
SplineSet
435 190 m 1
 556 190 l 1
 544 73 449 -10 327 -10 c 0
 165 -10 53 137 53 350 c 0
 53 563 165 710 325 710 c 0
 442 710 534 632 551 520 c 1
 430 520 l 1
 417 566 376 595 326 595 c 0
 236 595 178 499 178 350 c 0
 178 200 237 105 329 105 c 0
 384 105 425 138 435 190 c 1
EndSplineSet
Validated: 1
Substitution2: "+U1VOAGb/Y2IA +Z+VifgAA 72+Zv9O44ho" C.rightS
Substitution2: "+U1VOAGb/Y2IA +Z+VifgAA 71+Zv9O44ho" C.rightM
Substitution2: "+U1VOAGb/Y2IA +Z+VifgAA 70+Zv9O44ho" C.rightL
Substitution2: "+U1VOAGb/Y2IA +Z+VifgAA 69+Zv9O44ho" C.leftS
Substitution2: "+U1VOAGb/Y2IA +Z+VifgAA 68+Zv9O44ho" C.leftM
Substitution2: "+U1VOAGb/Y2IA +Z+VifgAA 67+Zv9O44ho" C.leftL
Substitution2: "+U1VOAGb/Y2IA +Z+VifgAA 66+Zv9O44ho" C.rightS
Substitution2: "+U1VOAGb/Y2IA +Z+VifgAA 65+Zv9O44ho" C.rightM
Substitution2: "+U1VOAGb/Y2IA +Z+VifgAA 64+Zv9O44ho" C.rightS
Substitution2: "+U1VOAGb/Y2IA +Z+VifgAA 63+Zv9O44ho" C.rightM
Substitution2: "+U1VOAGb/Y2IA +Z+VifgAA 62+Zv9O44ho" C.rightL
Substitution2: "+U1VOAGb/Y2IA +Z+VifgAA 61+Zv9O44ho" C.leftS
Substitution2: "+U1VOAGb/Y2IA +Z+VifgAA 60+Zv9O44ho" C.leftM
Substitution2: "+U1VOAGb/Y2IA +Z+VifgAA 59+Zv9O44ho" C.leftL
EndChar

StartChar: C.leftL
Encoding: 65550 -1 35
Width: 600
GlyphClass: 1
Flags: W
LayerCount: 2
Fore
SplineSet
391 190 m 1
 512 190 l 1
 500 73 405 -10 283 -10 c 0
 121 -10 9 137 9 350 c 0
 9 563 121 710 281 710 c 0
 398 710 490 632 507 520 c 1
 386 520 l 1
 373 566 332 595 282 595 c 0
 192 595 134 499 134 350 c 0
 134 200 193 105 285 105 c 0
 340 105 381 138 391 190 c 1
EndSplineSet
Validated: 1
EndChar

StartChar: C.leftM
Encoding: 65551 -1 36
Width: 600
GlyphClass: 1
Flags: W
LayerCount: 2
Fore
SplineSet
405 190 m 1
 526 190 l 1
 514 73 419 -10 297 -10 c 0
 135 -10 23 137 23 350 c 0
 23 563 135 710 295 710 c 0
 412 710 504 632 521 520 c 1
 400 520 l 1
 387 566 346 595 296 595 c 0
 206 595 148 499 148 350 c 0
 148 200 207 105 299 105 c 0
 354 105 395 138 405 190 c 1
EndSplineSet
Validated: 1
EndChar

StartChar: C.leftS
Encoding: 65552 -1 37
Width: 600
GlyphClass: 1
Flags: W
LayerCount: 2
Fore
SplineSet
423 190 m 1
 544 190 l 1
 532 73 437 -10 315 -10 c 0
 153 -10 41 137 41 350 c 0
 41 563 153 710 313 710 c 0
 430 710 522 632 539 520 c 1
 418 520 l 1
 405 566 364 595 314 595 c 0
 224 595 166 499 166 350 c 0
 166 200 225 105 317 105 c 0
 372 105 413 138 423 190 c 1
EndSplineSet
Validated: 1
EndChar

StartChar: C.rightL
Encoding: 65553 -1 38
Width: 600
GlyphClass: 1
Flags: W
LayerCount: 2
Fore
SplineSet
479 190 m 1
 600 190 l 1
 588 73 493 -10 371 -10 c 0
 209 -10 97 137 97 350 c 0
 97 563 209 710 369 710 c 0
 486 710 578 632 595 520 c 1
 474 520 l 1
 461 566 420 595 370 595 c 0
 280 595 222 499 222 350 c 0
 222 200 281 105 373 105 c 0
 428 105 469 138 479 190 c 1
EndSplineSet
Validated: 1
EndChar

StartChar: C.rightM
Encoding: 65554 -1 39
Width: 600
GlyphClass: 1
Flags: W
LayerCount: 2
Fore
SplineSet
465 190 m 1
 586 190 l 1
 574 73 479 -10 357 -10 c 0
 195 -10 83 137 83 350 c 0
 83 563 195 710 355 710 c 0
 472 710 564 632 581 520 c 1
 460 520 l 1
 447 566 406 595 356 595 c 0
 266 595 208 499 208 350 c 0
 208 200 267 105 359 105 c 0
 414 105 455 138 465 190 c 1
EndSplineSet
Validated: 1
EndChar

StartChar: C.rightS
Encoding: 65555 -1 40
Width: 600
GlyphClass: 1
Flags: W
LayerCount: 2
Fore
SplineSet
453 190 m 1
 574 190 l 1
 562 73 467 -10 345 -10 c 0
 183 -10 71 137 71 350 c 0
 71 563 183 710 343 710 c 0
 460 710 552 632 569 520 c 1
 448 520 l 1
 435 566 394 595 344 595 c 0
 254 595 196 499 196 350 c 0
 196 200 255 105 347 105 c 0
 402 105 443 138 453 190 c 1
EndSplineSet
Validated: 1
EndChar

StartChar: Cacute
Encoding: 262 262 41
Width: 600
GlyphClass: 1
Flags: W
LayerCount: 2
Fore
SplineSet
435 190 m 1
 556 190 l 1
 544 73 449 -10 327 -10 c 0
 165 -10 53 137 53 350 c 0
 53 563 165 710 325 710 c 0
 442 710 534 632 551 520 c 1
 430 520 l 1
 417 566 376 595 326 595 c 0
 236 595 178 499 178 350 c 0
 178 200 237 105 329 105 c 0
 384 105 425 138 435 190 c 1
473 980 m 1
 344 780 l 1
 244 780 l 1
 323 980 l 1
 473 980 l 1
EndSplineSet
Validated: 1
EndChar

StartChar: Ccaron
Encoding: 268 268 42
Width: 600
GlyphClass: 1
Flags: W
LayerCount: 2
Fore
SplineSet
435 190 m 1
 556 190 l 1
 544 73 449 -10 327 -10 c 0
 165 -10 53 137 53 350 c 0
 53 563 165 710 325 710 c 0
 442 710 534 632 551 520 c 1
 430 520 l 1
 417 566 376 595 326 595 c 0
 236 595 178 499 178 350 c 0
 178 200 237 105 329 105 c 0
 384 105 425 138 435 190 c 1
264 771 m 1
 145 971 l 1
 240 971 l 1
 319 869 l 1
 398 971 l 1
 493 971 l 1
 374 771 l 1
 264 771 l 1
EndSplineSet
Validated: 1
EndChar

StartChar: Ccedilla
Encoding: 199 199 43
Width: 600
GlyphClass: 1
Flags: W
LayerCount: 2
Fore
SplineSet
286 -165 m 1
 288 -191 310 -209 339 -209 c 0
 369 -209 389 -190 389 -163 c 0
 389 -135 368 -116 339 -116 c 0
 325 -116 313 -120 304 -128 c 1
 240 -113 l 1
 260 -1 l 1
 135 34 53 168 53 350 c 0
 53 563 165 710 325 710 c 0
 442 710 534 632 551 520 c 1
 430 520 l 1
 417 566 376 595 326 595 c 0
 236 595 178 499 178 350 c 0
 178 200 237 105 329 105 c 0
 384 105 425 138 435 190 c 1
 556 190 l 1
 545 82 463 3 355 -9 c 1
 348 -53 l 1
 419 -43 479 -94 479 -163 c 0
 479 -232 418 -285 338 -285 c 0
 258 -285 197 -233 196 -165 c 1
 286 -165 l 1
EndSplineSet
Validated: 33
EndChar

StartChar: Ccircumflex
Encoding: 264 264 44
Width: 600
GlyphClass: 1
Flags: W
LayerCount: 2
Fore
SplineSet
435 190 m 1
 556 190 l 1
 544 73 449 -10 327 -10 c 0
 165 -10 53 137 53 350 c 0
 53 563 165 710 325 710 c 0
 442 710 534 632 551 520 c 1
 430 520 l 1
 417 566 376 595 326 595 c 0
 236 595 178 499 178 350 c 0
 178 200 237 105 329 105 c 0
 384 105 425 138 435 190 c 1
145 771 m 1
 264 971 l 1
 374 971 l 1
 493 771 l 1
 398 771 l 1
 319 873 l 1
 240 771 l 1
 145 771 l 1
EndSplineSet
Validated: 1
EndChar

StartChar: Cdotaccent
Encoding: 266 266 45
Width: 600
GlyphClass: 1
Flags: W
LayerCount: 2
Fore
SplineSet
435 190 m 1
 556 190 l 1
 544 73 449 -10 327 -10 c 0
 165 -10 53 137 53 350 c 0
 53 563 165 710 325 710 c 0
 442 710 534 632 551 520 c 1
 430 520 l 1
 417 566 376 595 326 595 c 0
 236 595 178 499 178 350 c 0
 178 200 237 105 329 105 c 0
 384 105 425 138 435 190 c 1
228 861 m 0
 228 912 269 952 319 952 c 0
 370 952 410 912 410 861 c 0
 410 811 370 770 319 770 c 0
 269 770 228 811 228 861 c 0
EndSplineSet
Validated: 1
Substitution2: "'cv03' +W1d7JlPYT1MA-03 +Z+VifgAA 2+Zv9O44ho" Cdotaccent.square
EndChar

StartChar: Cdotaccent.square
Encoding: 65556 -1 46
Width: 600
GlyphClass: 1
Flags: W
LayerCount: 2
Fore
SplineSet
435 190 m 1
 556 190 l 1
 544 73 449 -10 327 -10 c 0
 165 -10 53 137 53 350 c 0
 53 563 165 710 325 710 c 0
 442 710 534 632 551 520 c 1
 430 520 l 1
 417 566 376 595 326 595 c 0
 236 595 178 499 178 350 c 0
 178 200 237 105 329 105 c 0
 384 105 425 138 435 190 c 1
240 782 m 1
 240 940 l 1
 398 940 l 1
 398 782 l 1
 240 782 l 1
EndSplineSet
Validated: 1
EndChar

StartChar: Chi
Encoding: 935 935 47
Width: 600
GlyphClass: 1
Flags: W
LayerCount: 2
Fore
SplineSet
5 0 m 1
 225 365 l 1
 21 700 l 1
 160 700 l 1
 300 470 l 1
 440 700 l 1
 577 700 l 1
 374 367 l 1
 595 0 l 1
 456 0 l 1
 299 261 l 1
 142 0 l 1
 5 0 l 1
EndSplineSet
Validated: 1
EndChar

StartChar: D
Encoding: 68 68 48
Width: 600
GlyphClass: 1
Flags: W
LayerCount: 2
Fore
SplineSet
73 0 m 1
 73 700 l 1
 278 700 l 2
 450 700 568 558 568 350 c 0
 568 142 450 0 278 0 c 2
 73 0 l 1
198 110 m 1
 278 110 l 2
 379 110 443 203 443 350 c 0
 443 497 379 590 278 590 c 2
 198 590 l 1
 198 110 l 1
EndSplineSet
Validated: 1
Substitution2: "+U1VOAGb/Y2IA +Z+VifgAA 72+Zv9O44ho" D.rightS
Substitution2: "+U1VOAGb/Y2IA +Z+VifgAA 71+Zv9O44ho" D.rightM
Substitution2: "+U1VOAGb/Y2IA +Z+VifgAA 70+Zv9O44ho" D.rightL
Substitution2: "+U1VOAGb/Y2IA +Z+VifgAA 69+Zv9O44ho" D.leftS
Substitution2: "+U1VOAGb/Y2IA +Z+VifgAA 68+Zv9O44ho" D.leftM
Substitution2: "+U1VOAGb/Y2IA +Z+VifgAA 67+Zv9O44ho" D.leftL
Substitution2: "+U1VOAGb/Y2IA +Z+VifgAA 66+Zv9O44ho" D.rightS
Substitution2: "+U1VOAGb/Y2IA +Z+VifgAA 65+Zv9O44ho" D.rightM
Substitution2: "+U1VOAGb/Y2IA +Z+VifgAA 64+Zv9O44ho" D.rightS
Substitution2: "+U1VOAGb/Y2IA +Z+VifgAA 63+Zv9O44ho" D.rightM
Substitution2: "+U1VOAGb/Y2IA +Z+VifgAA 62+Zv9O44ho" D.rightL
Substitution2: "+U1VOAGb/Y2IA +Z+VifgAA 61+Zv9O44ho" D.leftS
Substitution2: "+U1VOAGb/Y2IA +Z+VifgAA 60+Zv9O44ho" D.leftM
Substitution2: "+U1VOAGb/Y2IA +Z+VifgAA 59+Zv9O44ho" D.leftL
EndChar

StartChar: D.leftL
Encoding: 65557 -1 49
Width: 600
GlyphClass: 1
Flags: W
LayerCount: 2
Fore
SplineSet
29 0 m 1
 29 700 l 1
 234 700 l 2
 406 700 524 558 524 350 c 0
 524 142 406 0 234 0 c 2
 29 0 l 1
154 110 m 1
 234 110 l 2
 335 110 399 203 399 350 c 0
 399 497 335 590 234 590 c 2
 154 590 l 1
 154 110 l 1
EndSplineSet
Validated: 1
EndChar

StartChar: D.leftM
Encoding: 65558 -1 50
Width: 600
GlyphClass: 1
Flags: W
LayerCount: 2
Fore
SplineSet
43 0 m 1
 43 700 l 1
 248 700 l 2
 420 700 538 558 538 350 c 0
 538 142 420 0 248 0 c 2
 43 0 l 1
168 110 m 1
 248 110 l 2
 349 110 413 203 413 350 c 0
 413 497 349 590 248 590 c 2
 168 590 l 1
 168 110 l 1
EndSplineSet
Validated: 1
EndChar

StartChar: D.leftS
Encoding: 65559 -1 51
Width: 600
GlyphClass: 1
Flags: W
LayerCount: 2
Fore
SplineSet
61 0 m 1
 61 700 l 1
 266 700 l 2
 438 700 556 558 556 350 c 0
 556 142 438 0 266 0 c 2
 61 0 l 1
186 110 m 1
 266 110 l 2
 367 110 431 203 431 350 c 0
 431 497 367 590 266 590 c 2
 186 590 l 1
 186 110 l 1
EndSplineSet
Validated: 1
EndChar

StartChar: D.rightL
Encoding: 65560 -1 52
Width: 600
GlyphClass: 1
Flags: W
LayerCount: 2
Fore
SplineSet
117 0 m 1
 117 700 l 1
 322 700 l 2
 494 700 612 558 612 350 c 0
 612 142 494 0 322 0 c 2
 117 0 l 1
242 110 m 1
 322 110 l 2
 423 110 487 203 487 350 c 0
 487 497 423 590 322 590 c 2
 242 590 l 1
 242 110 l 1
EndSplineSet
Validated: 1
EndChar

StartChar: D.rightM
Encoding: 65561 -1 53
Width: 600
GlyphClass: 1
Flags: W
LayerCount: 2
Fore
SplineSet
103 0 m 1
 103 700 l 1
 308 700 l 2
 480 700 598 558 598 350 c 0
 598 142 480 0 308 0 c 2
 103 0 l 1
228 110 m 1
 308 110 l 2
 409 110 473 203 473 350 c 0
 473 497 409 590 308 590 c 2
 228 590 l 1
 228 110 l 1
EndSplineSet
Validated: 1
EndChar

StartChar: D.rightS
Encoding: 65562 -1 54
Width: 600
GlyphClass: 1
Flags: W
LayerCount: 2
Fore
SplineSet
91 0 m 1
 91 700 l 1
 296 700 l 2
 468 700 586 558 586 350 c 0
 586 142 468 0 296 0 c 2
 91 0 l 1
216 110 m 1
 296 110 l 2
 397 110 461 203 461 350 c 0
 461 497 397 590 296 590 c 2
 216 590 l 1
 216 110 l 1
EndSplineSet
Validated: 1
EndChar

StartChar: Dcaron
Encoding: 270 270 55
Width: 600
GlyphClass: 1
Flags: W
LayerCount: 2
Fore
SplineSet
73 0 m 1
 73 700 l 1
 278 700 l 2
 450 700 568 558 568 350 c 0
 568 142 450 0 278 0 c 2
 73 0 l 1
198 110 m 1
 278 110 l 2
 379 110 443 203 443 350 c 0
 443 497 379 590 278 590 c 2
 198 590 l 1
 198 110 l 1
245 771 m 1
 126 971 l 1
 221 971 l 1
 300 869 l 1
 379 971 l 1
 474 971 l 1
 355 771 l 1
 245 771 l 1
EndSplineSet
Validated: 1
EndChar

StartChar: Dcroat
Encoding: 272 272 56
Width: 600
GlyphClass: 1
Flags: W
LayerCount: 2
Fore
SplineSet
73 0 m 1
 73 300 l 1
 20 300 l 1
 20 400 l 1
 73 400 l 1
 73 700 l 1
 278 700 l 2
 450 700 568 558 568 350 c 0
 568 142 450 0 278 0 c 2
 73 0 l 1
198 110 m 1
 278 110 l 2
 379 110 443 203 443 350 c 0
 443 497 379 590 278 590 c 2
 198 590 l 1
 198 400 l 1
 320 400 l 1
 320 300 l 1
 198 300 l 1
 198 110 l 1
EndSplineSet
Validated: 1
EndChar

StartChar: uni0394
Encoding: 916 916 57
Width: 600
GlyphClass: 1
Flags: W
LayerCount: 2
Fore
SplineSet
23 0 m 1
 213 700 l 1
 387 700 l 1
 577 0 l 1
 23 0 l 1
173 110 m 1
 425 110 l 1
 301 575 l 1
 297 575 l 1
 173 110 l 1
EndSplineSet
Validated: 1
EndChar

StartChar: E
Encoding: 69 69 58
Width: 600
GlyphClass: 1
Flags: W
LayerCount: 2
Fore
SplineSet
105 0 m 1
 105 700 l 1
 527 700 l 1
 527 590 l 1
 230 590 l 1
 230 418 l 1
 490 418 l 1
 490 308 l 1
 230 308 l 1
 230 110 l 1
 527 110 l 1
 527 0 l 1
 105 0 l 1
EndSplineSet
Validated: 1
Substitution2: "+U1VOAGb/Y2IA +Z+VifgAA 72+Zv9O44ho" E.rightS
Substitution2: "+U1VOAGb/Y2IA +Z+VifgAA 71+Zv9O44ho" E.rightM
Substitution2: "+U1VOAGb/Y2IA +Z+VifgAA 70+Zv9O44ho" E.rightL
Substitution2: "+U1VOAGb/Y2IA +Z+VifgAA 69+Zv9O44ho" E.leftS
Substitution2: "+U1VOAGb/Y2IA +Z+VifgAA 68+Zv9O44ho" E.leftM
Substitution2: "+U1VOAGb/Y2IA +Z+VifgAA 67+Zv9O44ho" E.leftL
Substitution2: "+U1VOAGb/Y2IA +Z+VifgAA 66+Zv9O44ho" E.rightS
Substitution2: "+U1VOAGb/Y2IA +Z+VifgAA 65+Zv9O44ho" E.rightM
Substitution2: "+U1VOAGb/Y2IA +Z+VifgAA 64+Zv9O44ho" E.rightS
Substitution2: "+U1VOAGb/Y2IA +Z+VifgAA 63+Zv9O44ho" E.rightM
Substitution2: "+U1VOAGb/Y2IA +Z+VifgAA 62+Zv9O44ho" E.rightL
Substitution2: "+U1VOAGb/Y2IA +Z+VifgAA 61+Zv9O44ho" E.leftS
Substitution2: "+U1VOAGb/Y2IA +Z+VifgAA 60+Zv9O44ho" E.leftM
Substitution2: "+U1VOAGb/Y2IA +Z+VifgAA 59+Zv9O44ho" E.leftL
EndChar

StartChar: E.leftL
Encoding: 65563 -1 59
Width: 600
GlyphClass: 1
Flags: W
LayerCount: 2
Fore
SplineSet
61 0 m 1
 61 700 l 1
 483 700 l 1
 483 590 l 1
 186 590 l 1
 186 418 l 1
 446 418 l 1
 446 308 l 1
 186 308 l 1
 186 110 l 1
 483 110 l 1
 483 0 l 1
 61 0 l 1
EndSplineSet
Validated: 1
EndChar

StartChar: E.leftM
Encoding: 65564 -1 60
Width: 600
GlyphClass: 1
Flags: W
LayerCount: 2
Fore
SplineSet
75 0 m 1
 75 700 l 1
 497 700 l 1
 497 590 l 1
 200 590 l 1
 200 418 l 1
 460 418 l 1
 460 308 l 1
 200 308 l 1
 200 110 l 1
 497 110 l 1
 497 0 l 1
 75 0 l 1
EndSplineSet
Validated: 1
EndChar

StartChar: E.leftS
Encoding: 65565 -1 61
Width: 600
GlyphClass: 1
Flags: W
LayerCount: 2
Fore
SplineSet
87 0 m 1
 87 700 l 1
 509 700 l 1
 509 590 l 1
 212 590 l 1
 212 418 l 1
 472 418 l 1
 472 308 l 1
 212 308 l 1
 212 110 l 1
 509 110 l 1
 509 0 l 1
 87 0 l 1
EndSplineSet
Validated: 1
EndChar

StartChar: E.rightL
Encoding: 65566 -1 62
Width: 600
GlyphClass: 1
Flags: W
LayerCount: 2
Fore
SplineSet
149 0 m 1
 149 700 l 1
 571 700 l 1
 571 590 l 1
 274 590 l 1
 274 418 l 1
 534 418 l 1
 534 308 l 1
 274 308 l 1
 274 110 l 1
 571 110 l 1
 571 0 l 1
 149 0 l 1
EndSplineSet
Validated: 1
EndChar

StartChar: E.rightM
Encoding: 65567 -1 63
Width: 600
GlyphClass: 1
Flags: W
LayerCount: 2
Fore
SplineSet
135 0 m 1
 135 700 l 1
 557 700 l 1
 557 590 l 1
 260 590 l 1
 260 418 l 1
 520 418 l 1
 520 308 l 1
 260 308 l 1
 260 110 l 1
 557 110 l 1
 557 0 l 1
 135 0 l 1
EndSplineSet
Validated: 1
EndChar

StartChar: E.rightS
Encoding: 65568 -1 64
Width: 600
GlyphClass: 1
Flags: W
LayerCount: 2
Fore
SplineSet
123 0 m 1
 123 700 l 1
 545 700 l 1
 545 590 l 1
 248 590 l 1
 248 418 l 1
 508 418 l 1
 508 308 l 1
 248 308 l 1
 248 110 l 1
 545 110 l 1
 545 0 l 1
 123 0 l 1
EndSplineSet
Validated: 1
EndChar

StartChar: Eacute
Encoding: 201 201 65
Width: 600
GlyphClass: 1
Flags: W
LayerCount: 2
Fore
SplineSet
105 0 m 1
 105 700 l 1
 527 700 l 1
 527 590 l 1
 230 590 l 1
 230 418 l 1
 490 418 l 1
 490 308 l 1
 230 308 l 1
 230 110 l 1
 527 110 l 1
 527 0 l 1
 105 0 l 1
477 980 m 1
 348 780 l 1
 248 780 l 1
 327 980 l 1
 477 980 l 1
EndSplineSet
Validated: 1
EndChar

StartChar: Ebreve
Encoding: 276 276 66
Width: 600
GlyphClass: 1
Flags: W
LayerCount: 2
Fore
SplineSet
105 0 m 1
 105 700 l 1
 527 700 l 1
 527 590 l 1
 230 590 l 1
 230 418 l 1
 490 418 l 1
 490 308 l 1
 230 308 l 1
 230 110 l 1
 527 110 l 1
 527 0 l 1
 105 0 l 1
267 932 m 1
 271 892 293 866 323 866 c 0
 353 866 375 892 379 932 c 1
 474 932 l 1
 474 841 411 776 323 776 c 0
 235 776 172 841 172 932 c 1
 267 932 l 1
EndSplineSet
Validated: 1
EndChar

StartChar: Ecaron
Encoding: 282 282 67
Width: 600
GlyphClass: 1
Flags: W
LayerCount: 2
Fore
SplineSet
105 0 m 1
 105 700 l 1
 527 700 l 1
 527 590 l 1
 230 590 l 1
 230 418 l 1
 490 418 l 1
 490 308 l 1
 230 308 l 1
 230 110 l 1
 527 110 l 1
 527 0 l 1
 105 0 l 1
268 771 m 1
 149 971 l 1
 244 971 l 1
 323 869 l 1
 402 971 l 1
 497 971 l 1
 378 771 l 1
 268 771 l 1
EndSplineSet
Validated: 1
EndChar

StartChar: Ecircumflex
Encoding: 202 202 68
Width: 600
GlyphClass: 1
Flags: W
LayerCount: 2
Fore
SplineSet
105 0 m 1
 105 700 l 1
 527 700 l 1
 527 590 l 1
 230 590 l 1
 230 418 l 1
 490 418 l 1
 490 308 l 1
 230 308 l 1
 230 110 l 1
 527 110 l 1
 527 0 l 1
 105 0 l 1
149 771 m 1
 268 971 l 1
 378 971 l 1
 497 771 l 1
 402 771 l 1
 323 873 l 1
 244 771 l 1
 149 771 l 1
EndSplineSet
Validated: 1
EndChar

StartChar: Edieresis
Encoding: 203 203 69
Width: 600
GlyphClass: 1
Flags: W
LayerCount: 2
Fore
SplineSet
105 0 m 1
 105 700 l 1
 527 700 l 1
 527 590 l 1
 230 590 l 1
 230 418 l 1
 490 418 l 1
 490 308 l 1
 230 308 l 1
 230 110 l 1
 527 110 l 1
 527 0 l 1
 105 0 l 1
129 859 m 0
 129 906 167 943 213 943 c 0
 260 943 297 906 297 859 c 0
 297 813 260 776 213 776 c 0
 167 776 129 813 129 859 c 0
349 859 m 0
 349 906 387 943 433 943 c 0
 480 943 517 906 517 859 c 0
 517 813 480 776 433 776 c 0
 387 776 349 813 349 859 c 0
EndSplineSet
Validated: 1
Substitution2: "'cv03' +W1d7JlPYT1MA-03 +Z+VifgAA 2+Zv9O44ho" Edieresis.square
EndChar

StartChar: Edieresis.square
Encoding: 65569 -1 70
Width: 600
GlyphClass: 1
Flags: W
LayerCount: 2
Fore
SplineSet
105 0 m 1
 105 700 l 1
 527 700 l 1
 527 590 l 1
 230 590 l 1
 230 418 l 1
 490 418 l 1
 490 308 l 1
 230 308 l 1
 230 110 l 1
 527 110 l 1
 527 0 l 1
 105 0 l 1
141 775 m 1
 141 920 l 1
 286 920 l 1
 286 775 l 1
 141 775 l 1
361 775 m 1
 361 920 l 1
 506 920 l 1
 506 775 l 1
 361 775 l 1
EndSplineSet
Validated: 1
EndChar

StartChar: Edotaccent
Encoding: 278 278 71
Width: 600
GlyphClass: 1
Flags: W
LayerCount: 2
Fore
SplineSet
105 0 m 1
 105 700 l 1
 527 700 l 1
 527 590 l 1
 230 590 l 1
 230 418 l 1
 490 418 l 1
 490 308 l 1
 230 308 l 1
 230 110 l 1
 527 110 l 1
 527 0 l 1
 105 0 l 1
232 861 m 0
 232 912 273 952 323 952 c 0
 374 952 414 912 414 861 c 0
 414 811 374 770 323 770 c 0
 273 770 232 811 232 861 c 0
EndSplineSet
Validated: 1
Substitution2: "'cv03' +W1d7JlPYT1MA-03 +Z+VifgAA 2+Zv9O44ho" Edotaccent.square
EndChar

StartChar: Edotaccent.square
Encoding: 65570 -1 72
Width: 600
GlyphClass: 1
Flags: W
LayerCount: 2
Fore
SplineSet
105 0 m 1
 105 700 l 1
 527 700 l 1
 527 590 l 1
 230 590 l 1
 230 418 l 1
 490 418 l 1
 490 308 l 1
 230 308 l 1
 230 110 l 1
 527 110 l 1
 527 0 l 1
 105 0 l 1
244 782 m 1
 244 940 l 1
 402 940 l 1
 402 782 l 1
 244 782 l 1
EndSplineSet
Validated: 1
EndChar

StartChar: Egrave
Encoding: 200 200 73
Width: 600
GlyphClass: 1
Flags: W
LayerCount: 2
Fore
SplineSet
105 0 m 1
 105 700 l 1
 527 700 l 1
 527 590 l 1
 230 590 l 1
 230 418 l 1
 490 418 l 1
 490 308 l 1
 230 308 l 1
 230 110 l 1
 527 110 l 1
 527 0 l 1
 105 0 l 1
398 780 m 1
 298 780 l 1
 169 980 l 1
 319 980 l 1
 398 780 l 1
EndSplineSet
Validated: 1
EndChar

StartChar: Emacron
Encoding: 274 274 74
Width: 600
GlyphClass: 1
Flags: W
LayerCount: 2
Fore
SplineSet
105 0 m 1
 105 700 l 1
 527 700 l 1
 527 590 l 1
 230 590 l 1
 230 418 l 1
 490 418 l 1
 490 308 l 1
 230 308 l 1
 230 110 l 1
 527 110 l 1
 527 0 l 1
 105 0 l 1
163 800 m 1
 163 900 l 1
 483 900 l 1
 483 800 l 1
 163 800 l 1
EndSplineSet
Validated: 1
EndChar

StartChar: Eng
Encoding: 330 330 75
Width: 600
GlyphClass: 1
Flags: W
LayerCount: 2
Fore
SplineSet
430 185 m 1
 430 700 l 1
 545 700 l 1
 545 -7 l 2
 545 -105 512 -210 350 -210 c 0
 297 -210 262 -199 240 -189 c 1
 240 -89 l 1
 261 -98 291 -108 328 -108 c 0
 410 -108 425 -57 425 -7 c 2
 425 0 l 1
 380 0 l 1
 174 579 l 1
 170 579 l 1
 170 0 l 1
 55 0 l 1
 55 700 l 1
 243 700 l 1
 426 185 l 1
 430 185 l 1
EndSplineSet
Validated: 1
EndChar

StartChar: Eogonek
Encoding: 280 280 76
Width: 600
GlyphClass: 1
Flags: W
LayerCount: 2
Fore
SplineSet
105 0 m 1
 105 700 l 1
 527 700 l 1
 527 590 l 1
 230 590 l 1
 230 418 l 1
 490 418 l 1
 490 308 l 1
 230 308 l 1
 230 110 l 1
 527 110 l 1
 527 3 l 1
 532 0 l 1
 478 -24 454 -48 454 -76 c 0
 454 -103 476 -120 508 -120 c 0
 516 -120 525 -119 532 -117 c 1
 532 -200 l 1
 520 -203 504 -205 487 -205 c 0
 408 -205 354 -161 354 -97 c 0
 354 -60 372 -27 408 0 c 1
 105 0 l 1
EndSplineSet
Validated: 1
EndChar

StartChar: Epsilon
Encoding: 917 917 77
Width: 600
GlyphClass: 1
Flags: W
LayerCount: 2
Fore
SplineSet
105 0 m 1
 105 700 l 1
 527 700 l 1
 527 590 l 1
 230 590 l 1
 230 418 l 1
 490 418 l 1
 490 308 l 1
 230 308 l 1
 230 110 l 1
 527 110 l 1
 527 0 l 1
 105 0 l 1
EndSplineSet
Validated: 1
EndChar

StartChar: Epsilontonos
Encoding: 904 904 78
Width: 600
GlyphClass: 1
Flags: W
LayerCount: 2
Fore
SplineSet
105 0 m 1
 105 700 l 1
 527 700 l 1
 527 590 l 1
 230 590 l 1
 230 418 l 1
 490 418 l 1
 490 308 l 1
 230 308 l 1
 230 110 l 1
 527 110 l 1
 527 0 l 1
 105 0 l 1
115 780 m 1
 36 560 l 1
 -54 560 l 1
 -25 780 l 1
 115 780 l 1
EndSplineSet
Validated: 1
EndChar

StartChar: Eta
Encoding: 919 919 79
Width: 600
GlyphClass: 1
Flags: W
LayerCount: 2
Fore
SplineSet
60 0 m 1
 60 700 l 1
 185 700 l 1
 185 418 l 1
 415 418 l 1
 415 700 l 1
 540 700 l 1
 540 0 l 1
 415 0 l 1
 415 303 l 1
 185 303 l 1
 185 0 l 1
 60 0 l 1
EndSplineSet
Validated: 1
EndChar

StartChar: Etatonos
Encoding: 905 905 80
Width: 600
GlyphClass: 1
Flags: W
LayerCount: 2
Fore
SplineSet
60 0 m 1
 60 700 l 1
 185 700 l 1
 185 418 l 1
 415 418 l 1
 415 700 l 1
 540 700 l 1
 540 0 l 1
 415 0 l 1
 415 303 l 1
 185 303 l 1
 185 0 l 1
 60 0 l 1
70 780 m 1
 -9 560 l 1
 -99 560 l 1
 -70 780 l 1
 70 780 l 1
EndSplineSet
Validated: 1
EndChar

StartChar: Eth
Encoding: 208 208 81
Width: 600
GlyphClass: 1
Flags: W
LayerCount: 2
Fore
SplineSet
73 0 m 1
 73 300 l 1
 20 300 l 1
 20 400 l 1
 73 400 l 1
 73 700 l 1
 278 700 l 2
 450 700 568 558 568 350 c 0
 568 142 450 0 278 0 c 2
 73 0 l 1
198 110 m 1
 278 110 l 2
 379 110 443 203 443 350 c 0
 443 497 379 590 278 590 c 2
 198 590 l 1
 198 400 l 1
 320 400 l 1
 320 300 l 1
 198 300 l 1
 198 110 l 1
EndSplineSet
Validated: 1
EndChar

StartChar: Euro
Encoding: 8364 8364 82
Width: 600
GlyphClass: 1
Flags: W
LayerCount: 2
Fore
SplineSet
14 380 m 1
 14 466 l 1
 65 466 l 1
 98 615 196 710 325 710 c 0
 442 710 534 632 551 520 c 1
 430 520 l 1
 417 566 376 595 326 595 c 0
 262 595 215 547 192 466 c 1
 433 466 l 1
 410 380 l 1
 179 380 l 1
 178 370 178 360 178 350 c 0
 178 343 178 337 178 330 c 1
 400 330 l 1
 377 244 l 1
 190 244 l 1
 211 157 261 105 329 105 c 0
 384 105 425 138 435 190 c 1
 556 190 l 1
 544 73 449 -10 327 -10 c 0
 194 -10 94 90 63 244 c 1
 14 244 l 1
 14 330 l 1
 53 330 l 1
 53 337 53 343 53 350 c 0
 53 360 53 370 54 380 c 1
 14 380 l 1
EndSplineSet
Validated: 1
EndChar

StartChar: F
Encoding: 70 70 83
Width: 600
GlyphClass: 1
Flags: W
LayerCount: 2
Fore
SplineSet
108 0 m 1
 108 700 l 1
 530 700 l 1
 530 590 l 1
 233 590 l 1
 233 400 l 1
 493 400 l 1
 493 290 l 1
 233 290 l 1
 233 0 l 1
 108 0 l 1
EndSplineSet
Validated: 1
Substitution2: "+U1VOAGb/Y2IA +Z+VifgAA 72+Zv9O44ho" F.rightS
Substitution2: "+U1VOAGb/Y2IA +Z+VifgAA 71+Zv9O44ho" F.rightM
Substitution2: "+U1VOAGb/Y2IA +Z+VifgAA 70+Zv9O44ho" F.rightL
Substitution2: "+U1VOAGb/Y2IA +Z+VifgAA 69+Zv9O44ho" F.leftS
Substitution2: "+U1VOAGb/Y2IA +Z+VifgAA 68+Zv9O44ho" F.leftM
Substitution2: "+U1VOAGb/Y2IA +Z+VifgAA 67+Zv9O44ho" F.leftL
Substitution2: "+U1VOAGb/Y2IA +Z+VifgAA 66+Zv9O44ho" F.rightS
Substitution2: "+U1VOAGb/Y2IA +Z+VifgAA 65+Zv9O44ho" F.rightM
Substitution2: "+U1VOAGb/Y2IA +Z+VifgAA 64+Zv9O44ho" F.rightS
Substitution2: "+U1VOAGb/Y2IA +Z+VifgAA 63+Zv9O44ho" F.rightM
Substitution2: "+U1VOAGb/Y2IA +Z+VifgAA 62+Zv9O44ho" F.rightL
Substitution2: "+U1VOAGb/Y2IA +Z+VifgAA 61+Zv9O44ho" F.leftS
Substitution2: "+U1VOAGb/Y2IA +Z+VifgAA 60+Zv9O44ho" F.leftM
Substitution2: "+U1VOAGb/Y2IA +Z+VifgAA 59+Zv9O44ho" F.leftL
EndChar

StartChar: F.leftL
Encoding: 65571 -1 84
Width: 600
GlyphClass: 1
Flags: W
LayerCount: 2
Fore
SplineSet
64 0 m 1
 64 700 l 1
 486 700 l 1
 486 590 l 1
 189 590 l 1
 189 400 l 1
 449 400 l 1
 449 290 l 1
 189 290 l 1
 189 0 l 1
 64 0 l 1
EndSplineSet
Validated: 1
EndChar

StartChar: F.leftM
Encoding: 65572 -1 85
Width: 600
GlyphClass: 1
Flags: W
LayerCount: 2
Fore
SplineSet
78 0 m 1
 78 700 l 1
 500 700 l 1
 500 590 l 1
 203 590 l 1
 203 400 l 1
 463 400 l 1
 463 290 l 1
 203 290 l 1
 203 0 l 1
 78 0 l 1
EndSplineSet
Validated: 1
EndChar

StartChar: F.leftS
Encoding: 65573 -1 86
Width: 600
GlyphClass: 1
Flags: W
LayerCount: 2
Fore
SplineSet
90 0 m 1
 90 700 l 1
 512 700 l 1
 512 590 l 1
 215 590 l 1
 215 400 l 1
 475 400 l 1
 475 290 l 1
 215 290 l 1
 215 0 l 1
 90 0 l 1
EndSplineSet
Validated: 1
EndChar

StartChar: F.rightL
Encoding: 65574 -1 87
Width: 600
GlyphClass: 1
Flags: W
LayerCount: 2
Fore
SplineSet
152 0 m 1
 152 700 l 1
 574 700 l 1
 574 590 l 1
 277 590 l 1
 277 400 l 1
 537 400 l 1
 537 290 l 1
 277 290 l 1
 277 0 l 1
 152 0 l 1
EndSplineSet
Validated: 1
EndChar

StartChar: F.rightM
Encoding: 65575 -1 88
Width: 600
GlyphClass: 1
Flags: W
LayerCount: 2
Fore
SplineSet
138 0 m 1
 138 700 l 1
 560 700 l 1
 560 590 l 1
 263 590 l 1
 263 400 l 1
 523 400 l 1
 523 290 l 1
 263 290 l 1
 263 0 l 1
 138 0 l 1
EndSplineSet
Validated: 1
EndChar

StartChar: F.rightS
Encoding: 65576 -1 89
Width: 600
GlyphClass: 1
Flags: W
LayerCount: 2
Fore
SplineSet
126 0 m 1
 126 700 l 1
 548 700 l 1
 548 590 l 1
 251 590 l 1
 251 400 l 1
 511 400 l 1
 511 290 l 1
 251 290 l 1
 251 0 l 1
 126 0 l 1
EndSplineSet
Validated: 1
EndChar

StartChar: G
Encoding: 71 71 90
Width: 600
GlyphClass: 1
Flags: W
LayerCount: 2
Fore
SplineSet
290 284 m 1
 290 394 l 1
 540 394 l 1
 540 0 l 1
 430 0 l 1
 430 80 l 1
 426 80 l 1
 391 24 337 -10 272 -10 c 0
 136 -10 37 139 37 345 c 0
 37 562 147 710 306 710 c 0
 422 710 517 631 535 520 c 1
 414 520 l 1
 401 566 360 595 310 595 c 0
 220 595 162 499 162 348 c 0
 162 200 217 100 298 100 c 0
 369 100 420 176 420 284 c 1
 290 284 l 1
EndSplineSet
Validated: 1
Substitution2: "+U1VOAGb/Y2IA +Z+VifgAA 72+Zv9O44ho" G.rightS
Substitution2: "+U1VOAGb/Y2IA +Z+VifgAA 71+Zv9O44ho" G.rightM
Substitution2: "+U1VOAGb/Y2IA +Z+VifgAA 70+Zv9O44ho" G.rightL
Substitution2: "+U1VOAGb/Y2IA +Z+VifgAA 69+Zv9O44ho" G.leftS
Substitution2: "+U1VOAGb/Y2IA +Z+VifgAA 68+Zv9O44ho" G.leftM
Substitution2: "+U1VOAGb/Y2IA +Z+VifgAA 67+Zv9O44ho" G.leftL
Substitution2: "+U1VOAGb/Y2IA +Z+VifgAA 66+Zv9O44ho" G.rightS
Substitution2: "+U1VOAGb/Y2IA +Z+VifgAA 65+Zv9O44ho" G.rightM
Substitution2: "+U1VOAGb/Y2IA +Z+VifgAA 64+Zv9O44ho" G.rightS
Substitution2: "+U1VOAGb/Y2IA +Z+VifgAA 63+Zv9O44ho" G.rightM
Substitution2: "+U1VOAGb/Y2IA +Z+VifgAA 62+Zv9O44ho" G.rightL
Substitution2: "+U1VOAGb/Y2IA +Z+VifgAA 61+Zv9O44ho" G.leftS
Substitution2: "+U1VOAGb/Y2IA +Z+VifgAA 60+Zv9O44ho" G.leftM
Substitution2: "+U1VOAGb/Y2IA +Z+VifgAA 59+Zv9O44ho" G.leftL
EndChar

StartChar: G.leftL
Encoding: 65577 -1 91
Width: 600
GlyphClass: 1
Flags: W
LayerCount: 2
Fore
SplineSet
246 284 m 1
 246 394 l 1
 496 394 l 1
 496 0 l 1
 386 0 l 1
 386 80 l 1
 382 80 l 1
 347 24 293 -10 228 -10 c 0
 92 -10 -7 139 -7 345 c 0
 -7 562 103 710 262 710 c 0
 378 710 473 631 491 520 c 1
 370 520 l 1
 357 566 316 595 266 595 c 0
 176 595 118 499 118 348 c 0
 118 200 173 100 254 100 c 0
 325 100 376 176 376 284 c 1
 246 284 l 1
EndSplineSet
Validated: 1
EndChar

StartChar: G.leftM
Encoding: 65578 -1 92
Width: 600
GlyphClass: 1
Flags: W
LayerCount: 2
Fore
SplineSet
260 284 m 1
 260 394 l 1
 510 394 l 1
 510 0 l 1
 400 0 l 1
 400 80 l 1
 396 80 l 1
 361 24 307 -10 242 -10 c 0
 106 -10 7 139 7 345 c 0
 7 562 117 710 276 710 c 0
 392 710 487 631 505 520 c 1
 384 520 l 1
 371 566 330 595 280 595 c 0
 190 595 132 499 132 348 c 0
 132 200 187 100 268 100 c 0
 339 100 390 176 390 284 c 1
 260 284 l 1
EndSplineSet
Validated: 1
EndChar

StartChar: G.leftS
Encoding: 65579 -1 93
Width: 600
GlyphClass: 1
Flags: W
LayerCount: 2
Fore
SplineSet
272 284 m 1
 272 394 l 1
 522 394 l 1
 522 0 l 1
 412 0 l 1
 412 80 l 1
 408 80 l 1
 373 24 319 -10 254 -10 c 0
 118 -10 19 139 19 345 c 0
 19 562 129 710 288 710 c 0
 404 710 499 631 517 520 c 1
 396 520 l 1
 383 566 342 595 292 595 c 0
 202 595 144 499 144 348 c 0
 144 200 199 100 280 100 c 0
 351 100 402 176 402 284 c 1
 272 284 l 1
EndSplineSet
Validated: 1
EndChar

StartChar: G.rightL
Encoding: 65580 -1 94
Width: 600
GlyphClass: 1
Flags: W
LayerCount: 2
Fore
SplineSet
334 284 m 1
 334 394 l 1
 584 394 l 1
 584 0 l 1
 474 0 l 1
 474 80 l 1
 470 80 l 1
 435 24 381 -10 316 -10 c 0
 180 -10 81 139 81 345 c 0
 81 562 191 710 350 710 c 0
 466 710 561 631 579 520 c 1
 458 520 l 1
 445 566 404 595 354 595 c 0
 264 595 206 499 206 348 c 0
 206 200 261 100 342 100 c 0
 413 100 464 176 464 284 c 1
 334 284 l 1
EndSplineSet
Validated: 1
EndChar

StartChar: G.rightM
Encoding: 65581 -1 95
Width: 600
GlyphClass: 1
Flags: W
LayerCount: 2
Fore
SplineSet
320 284 m 1
 320 394 l 1
 570 394 l 1
 570 0 l 1
 460 0 l 1
 460 80 l 1
 456 80 l 1
 421 24 367 -10 302 -10 c 0
 166 -10 67 139 67 345 c 0
 67 562 177 710 336 710 c 0
 452 710 547 631 565 520 c 1
 444 520 l 1
 431 566 390 595 340 595 c 0
 250 595 192 499 192 348 c 0
 192 200 247 100 328 100 c 0
 399 100 450 176 450 284 c 1
 320 284 l 1
EndSplineSet
Validated: 1
EndChar

StartChar: G.rightS
Encoding: 65582 -1 96
Width: 600
GlyphClass: 1
Flags: W
LayerCount: 2
Fore
SplineSet
308 284 m 1
 308 394 l 1
 558 394 l 1
 558 0 l 1
 448 0 l 1
 448 80 l 1
 444 80 l 1
 409 24 355 -10 290 -10 c 0
 154 -10 55 139 55 345 c 0
 55 562 165 710 324 710 c 0
 440 710 535 631 553 520 c 1
 432 520 l 1
 419 566 378 595 328 595 c 0
 238 595 180 499 180 348 c 0
 180 200 235 100 316 100 c 0
 387 100 438 176 438 284 c 1
 308 284 l 1
EndSplineSet
Validated: 1
EndChar

StartChar: Gamma
Encoding: 915 915 97
Width: 600
GlyphClass: 1
Flags: W
LayerCount: 2
Fore
SplineSet
112 0 m 1
 112 700 l 1
 534 700 l 1
 534 590 l 1
 237 590 l 1
 237 0 l 1
 112 0 l 1
EndSplineSet
Validated: 1
EndChar

StartChar: Gbreve
Encoding: 286 286 98
Width: 600
GlyphClass: 1
Flags: W
LayerCount: 2
Fore
SplineSet
290 284 m 1
 290 394 l 1
 540 394 l 1
 540 0 l 1
 430 0 l 1
 430 80 l 1
 426 80 l 1
 391 24 337 -10 272 -10 c 0
 136 -10 37 139 37 345 c 0
 37 562 147 710 306 710 c 0
 422 710 517 631 535 520 c 1
 414 520 l 1
 401 566 360 595 310 595 c 0
 220 595 162 499 162 348 c 0
 162 200 217 100 298 100 c 0
 369 100 420 176 420 284 c 1
 290 284 l 1
250 932 m 1
 254 892 276 866 306 866 c 0
 336 866 358 892 362 932 c 1
 457 932 l 1
 457 841 394 776 306 776 c 0
 218 776 155 841 155 932 c 1
 250 932 l 1
EndSplineSet
Validated: 1
EndChar

StartChar: Gcircumflex
Encoding: 284 284 99
Width: 600
GlyphClass: 1
Flags: W
LayerCount: 2
Fore
SplineSet
290 284 m 1
 290 394 l 1
 540 394 l 1
 540 0 l 1
 430 0 l 1
 430 80 l 1
 426 80 l 1
 391 24 337 -10 272 -10 c 0
 136 -10 37 139 37 345 c 0
 37 562 147 710 306 710 c 0
 422 710 517 631 535 520 c 1
 414 520 l 1
 401 566 360 595 310 595 c 0
 220 595 162 499 162 348 c 0
 162 200 217 100 298 100 c 0
 369 100 420 176 420 284 c 1
 290 284 l 1
132 771 m 1
 251 971 l 1
 361 971 l 1
 480 771 l 1
 385 771 l 1
 306 873 l 1
 227 771 l 1
 132 771 l 1
EndSplineSet
Validated: 1
EndChar

StartChar: uni0122
Encoding: 290 290 100
Width: 600
GlyphClass: 1
Flags: W
LayerCount: 2
Fore
SplineSet
290 284 m 1
 290 394 l 1
 540 394 l 1
 540 0 l 1
 430 0 l 1
 430 80 l 1
 426 80 l 1
 391 24 337 -10 272 -10 c 0
 136 -10 37 139 37 345 c 0
 37 562 147 710 306 710 c 0
 422 710 517 631 535 520 c 1
 414 520 l 1
 401 566 360 595 310 595 c 0
 220 595 162 499 162 348 c 0
 162 200 217 100 298 100 c 0
 369 100 420 176 420 284 c 1
 290 284 l 1
355 -70 m 1
 226 -270 l 1
 126 -270 l 1
 205 -70 l 1
 355 -70 l 1
EndSplineSet
Validated: 1
EndChar

StartChar: Gdotaccent
Encoding: 288 288 101
Width: 600
GlyphClass: 1
Flags: W
LayerCount: 2
Fore
SplineSet
290 284 m 1
 290 394 l 1
 540 394 l 1
 540 0 l 1
 430 0 l 1
 430 80 l 1
 426 80 l 1
 391 24 337 -10 272 -10 c 0
 136 -10 37 139 37 345 c 0
 37 562 147 710 306 710 c 0
 422 710 517 631 535 520 c 1
 414 520 l 1
 401 566 360 595 310 595 c 0
 220 595 162 499 162 348 c 0
 162 200 217 100 298 100 c 0
 369 100 420 176 420 284 c 1
 290 284 l 1
215 861 m 0
 215 912 256 952 306 952 c 0
 357 952 397 912 397 861 c 0
 397 811 357 770 306 770 c 0
 256 770 215 811 215 861 c 0
EndSplineSet
Validated: 1
Substitution2: "'cv03' +W1d7JlPYT1MA-03 +Z+VifgAA 2+Zv9O44ho" Gdotaccent.square
EndChar

StartChar: Gdotaccent.square
Encoding: 65583 -1 102
Width: 600
GlyphClass: 1
Flags: W
LayerCount: 2
Fore
SplineSet
290 284 m 1
 290 394 l 1
 540 394 l 1
 540 0 l 1
 430 0 l 1
 430 80 l 1
 426 80 l 1
 391 24 337 -10 272 -10 c 0
 136 -10 37 139 37 345 c 0
 37 562 147 710 306 710 c 0
 422 710 517 631 535 520 c 1
 414 520 l 1
 401 566 360 595 310 595 c 0
 220 595 162 499 162 348 c 0
 162 200 217 100 298 100 c 0
 369 100 420 176 420 284 c 1
 290 284 l 1
227 782 m 1
 227 940 l 1
 385 940 l 1
 385 782 l 1
 227 782 l 1
EndSplineSet
Validated: 1
EndChar

StartChar: H
Encoding: 72 72 103
Width: 600
GlyphClass: 1
Flags: W
LayerCount: 2
Fore
SplineSet
60 0 m 1
 60 700 l 1
 185 700 l 1
 185 418 l 1
 415 418 l 1
 415 700 l 1
 540 700 l 1
 540 0 l 1
 415 0 l 1
 415 303 l 1
 185 303 l 1
 185 0 l 1
 60 0 l 1
EndSplineSet
Validated: 1
Substitution2: "+U1VOAGb/Y2IA +Z+VifgAA 72+Zv9O44ho" H.rightS
Substitution2: "+U1VOAGb/Y2IA +Z+VifgAA 71+Zv9O44ho" H.rightM
Substitution2: "+U1VOAGb/Y2IA +Z+VifgAA 70+Zv9O44ho" H.rightL
Substitution2: "+U1VOAGb/Y2IA +Z+VifgAA 69+Zv9O44ho" H.leftS
Substitution2: "+U1VOAGb/Y2IA +Z+VifgAA 68+Zv9O44ho" H.leftM
Substitution2: "+U1VOAGb/Y2IA +Z+VifgAA 67+Zv9O44ho" H.leftL
Substitution2: "+U1VOAGb/Y2IA +Z+VifgAA 66+Zv9O44ho" H.rightS
Substitution2: "+U1VOAGb/Y2IA +Z+VifgAA 65+Zv9O44ho" H.rightM
Substitution2: "+U1VOAGb/Y2IA +Z+VifgAA 64+Zv9O44ho" H.rightS
Substitution2: "+U1VOAGb/Y2IA +Z+VifgAA 63+Zv9O44ho" H.rightM
Substitution2: "+U1VOAGb/Y2IA +Z+VifgAA 62+Zv9O44ho" H.rightL
Substitution2: "+U1VOAGb/Y2IA +Z+VifgAA 61+Zv9O44ho" H.leftS
Substitution2: "+U1VOAGb/Y2IA +Z+VifgAA 60+Zv9O44ho" H.leftM
Substitution2: "+U1VOAGb/Y2IA +Z+VifgAA 59+Zv9O44ho" H.leftL
EndChar

StartChar: H.leftL
Encoding: 65584 -1 104
Width: 600
GlyphClass: 1
Flags: W
LayerCount: 2
Fore
SplineSet
16 0 m 1
 16 700 l 1
 141 700 l 1
 141 418 l 1
 371 418 l 1
 371 700 l 1
 496 700 l 1
 496 0 l 1
 371 0 l 1
 371 303 l 1
 141 303 l 1
 141 0 l 1
 16 0 l 1
EndSplineSet
Validated: 1
EndChar

StartChar: H.leftM
Encoding: 65585 -1 105
Width: 600
GlyphClass: 1
Flags: W
LayerCount: 2
Fore
SplineSet
30 0 m 1
 30 700 l 1
 155 700 l 1
 155 418 l 1
 385 418 l 1
 385 700 l 1
 510 700 l 1
 510 0 l 1
 385 0 l 1
 385 303 l 1
 155 303 l 1
 155 0 l 1
 30 0 l 1
EndSplineSet
Validated: 1
EndChar

StartChar: H.leftS
Encoding: 65586 -1 106
Width: 600
GlyphClass: 1
Flags: W
LayerCount: 2
Fore
SplineSet
42 0 m 1
 42 700 l 1
 167 700 l 1
 167 418 l 1
 397 418 l 1
 397 700 l 1
 522 700 l 1
 522 0 l 1
 397 0 l 1
 397 303 l 1
 167 303 l 1
 167 0 l 1
 42 0 l 1
EndSplineSet
Validated: 1
EndChar

StartChar: H.rightL
Encoding: 65587 -1 107
Width: 600
GlyphClass: 1
Flags: W
LayerCount: 2
Fore
SplineSet
104 0 m 1
 104 700 l 1
 229 700 l 1
 229 418 l 1
 459 418 l 1
 459 700 l 1
 584 700 l 1
 584 0 l 1
 459 0 l 1
 459 303 l 1
 229 303 l 1
 229 0 l 1
 104 0 l 1
EndSplineSet
Validated: 1
EndChar

StartChar: H.rightM
Encoding: 65588 -1 108
Width: 600
GlyphClass: 1
Flags: W
LayerCount: 2
Fore
SplineSet
90 0 m 1
 90 700 l 1
 215 700 l 1
 215 418 l 1
 445 418 l 1
 445 700 l 1
 570 700 l 1
 570 0 l 1
 445 0 l 1
 445 303 l 1
 215 303 l 1
 215 0 l 1
 90 0 l 1
EndSplineSet
Validated: 1
EndChar

StartChar: H.rightS
Encoding: 65589 -1 109
Width: 600
GlyphClass: 1
Flags: W
LayerCount: 2
Fore
SplineSet
78 0 m 1
 78 700 l 1
 203 700 l 1
 203 418 l 1
 433 418 l 1
 433 700 l 1
 558 700 l 1
 558 0 l 1
 433 0 l 1
 433 303 l 1
 203 303 l 1
 203 0 l 1
 78 0 l 1
EndSplineSet
Validated: 1
EndChar

StartChar: Hbar
Encoding: 294 294 110
Width: 600
GlyphClass: 1
Flags: W
LayerCount: 2
Fore
SplineSet
60 0 m 1
 60 500 l 1
 10 500 l 1
 10 580 l 1
 60 580 l 1
 60 700 l 1
 185 700 l 1
 185 580 l 1
 415 580 l 1
 415 700 l 1
 540 700 l 1
 540 580 l 1
 590 580 l 1
 590 500 l 1
 540 500 l 1
 540 0 l 1
 415 0 l 1
 415 273 l 1
 185 273 l 1
 185 0 l 1
 60 0 l 1
415 388 m 1
 415 500 l 1
 185 500 l 1
 185 388 l 1
 415 388 l 1
EndSplineSet
Validated: 1
EndChar

StartChar: Hcircumflex
Encoding: 292 292 111
Width: 600
GlyphClass: 1
Flags: W
LayerCount: 2
Fore
SplineSet
60 0 m 1
 60 700 l 1
 185 700 l 1
 185 418 l 1
 415 418 l 1
 415 700 l 1
 540 700 l 1
 540 0 l 1
 415 0 l 1
 415 303 l 1
 185 303 l 1
 185 0 l 1
 60 0 l 1
126 771 m 1
 245 971 l 1
 355 971 l 1
 474 771 l 1
 379 771 l 1
 300 873 l 1
 221 771 l 1
 126 771 l 1
EndSplineSet
Validated: 1
EndChar

StartChar: I
Encoding: 73 73 112
Width: 600
GlyphClass: 1
Flags: W
LayerCount: 2
Fore
SplineSet
93 0 m 1
 93 110 l 1
 238 110 l 1
 238 590 l 1
 95 590 l 1
 95 700 l 1
 506 700 l 1
 506 590 l 1
 363 590 l 1
 363 110 l 1
 508 110 l 1
 508 0 l 1
 93 0 l 1
EndSplineSet
Validated: 1
Substitution2: "+U1VOAGb/Y2IA +Z+VifgAA 72+Zv9O44ho" I.rightS
Substitution2: "+U1VOAGb/Y2IA +Z+VifgAA 71+Zv9O44ho" I.rightM
Substitution2: "+U1VOAGb/Y2IA +Z+VifgAA 70+Zv9O44ho" I.rightL
Substitution2: "+U1VOAGb/Y2IA +Z+VifgAA 69+Zv9O44ho" I.leftS
Substitution2: "+U1VOAGb/Y2IA +Z+VifgAA 68+Zv9O44ho" I.leftM
Substitution2: "+U1VOAGb/Y2IA +Z+VifgAA 67+Zv9O44ho" I.leftL
Substitution2: "+U1VOAGb/Y2IA +Z+VifgAA 66+Zv9O44ho" I.rightS
Substitution2: "+U1VOAGb/Y2IA +Z+VifgAA 65+Zv9O44ho" I.rightM
Substitution2: "+U1VOAGb/Y2IA +Z+VifgAA 64+Zv9O44ho" I.rightS
Substitution2: "+U1VOAGb/Y2IA +Z+VifgAA 63+Zv9O44ho" I.rightM
Substitution2: "+U1VOAGb/Y2IA +Z+VifgAA 62+Zv9O44ho" I.rightL
Substitution2: "+U1VOAGb/Y2IA +Z+VifgAA 61+Zv9O44ho" I.leftS
Substitution2: "+U1VOAGb/Y2IA +Z+VifgAA 60+Zv9O44ho" I.leftM
Substitution2: "+U1VOAGb/Y2IA +Z+VifgAA 59+Zv9O44ho" I.leftL
EndChar

StartChar: I.leftL
Encoding: 65590 -1 113
Width: 600
GlyphClass: 1
Flags: W
LayerCount: 2
Fore
SplineSet
49 0 m 1
 49 110 l 1
 194 110 l 1
 194 590 l 1
 51 590 l 1
 51 700 l 1
 462 700 l 1
 462 590 l 1
 319 590 l 1
 319 110 l 1
 464 110 l 1
 464 0 l 1
 49 0 l 1
EndSplineSet
Validated: 1
EndChar

StartChar: I.leftM
Encoding: 65591 -1 114
Width: 600
GlyphClass: 1
Flags: W
LayerCount: 2
Fore
SplineSet
63 0 m 1
 63 110 l 1
 208 110 l 1
 208 590 l 1
 65 590 l 1
 65 700 l 1
 476 700 l 1
 476 590 l 1
 333 590 l 1
 333 110 l 1
 478 110 l 1
 478 0 l 1
 63 0 l 1
EndSplineSet
Validated: 1
EndChar

StartChar: I.leftS
Encoding: 65592 -1 115
Width: 600
GlyphClass: 1
Flags: W
LayerCount: 2
Fore
SplineSet
75 0 m 1
 75 110 l 1
 220 110 l 1
 220 590 l 1
 77 590 l 1
 77 700 l 1
 488 700 l 1
 488 590 l 1
 345 590 l 1
 345 110 l 1
 490 110 l 1
 490 0 l 1
 75 0 l 1
EndSplineSet
Validated: 1
EndChar

StartChar: I.rightL
Encoding: 65593 -1 116
Width: 600
GlyphClass: 1
Flags: W
LayerCount: 2
Fore
SplineSet
137 0 m 1
 137 110 l 1
 282 110 l 1
 282 590 l 1
 139 590 l 1
 139 700 l 1
 550 700 l 1
 550 590 l 1
 407 590 l 1
 407 110 l 1
 552 110 l 1
 552 0 l 1
 137 0 l 1
EndSplineSet
Validated: 1
EndChar

StartChar: I.rightM
Encoding: 65594 -1 117
Width: 600
GlyphClass: 1
Flags: W
LayerCount: 2
Fore
SplineSet
123 0 m 1
 123 110 l 1
 268 110 l 1
 268 590 l 1
 125 590 l 1
 125 700 l 1
 536 700 l 1
 536 590 l 1
 393 590 l 1
 393 110 l 1
 538 110 l 1
 538 0 l 1
 123 0 l 1
EndSplineSet
Validated: 1
EndChar

StartChar: I.rightS
Encoding: 65595 -1 118
Width: 600
GlyphClass: 1
Flags: W
LayerCount: 2
Fore
SplineSet
111 0 m 1
 111 110 l 1
 256 110 l 1
 256 590 l 1
 113 590 l 1
 113 700 l 1
 524 700 l 1
 524 590 l 1
 381 590 l 1
 381 110 l 1
 526 110 l 1
 526 0 l 1
 111 0 l 1
EndSplineSet
Validated: 1
EndChar

StartChar: IJ
Encoding: 306 306 119
Width: 600
GlyphClass: 1
Flags: W
LayerCount: 2
Fore
SplineSet
70 284 m 1
 70 700 l 1
 195 700 l 1
 195 284 l 1
 70 284 l 1
70 190 m 1
 187 190 l 1
 191 137 236 100 298 100 c 0
 362 100 405 140 405 198 c 2
 405 590 l 1
 265 590 l 1
 265 700 l 1
 530 700 l 1
 530 198 l 2
 530 77 435 -10 299 -10 c 0
 166 -10 70 74 70 190 c 1
EndSplineSet
Validated: 1
EndChar

StartChar: Iacute
Encoding: 205 205 120
Width: 600
GlyphClass: 1
Flags: W
LayerCount: 2
Fore
SplineSet
93 0 m 1
 93 110 l 1
 238 110 l 1
 238 590 l 1
 95 590 l 1
 95 700 l 1
 506 700 l 1
 506 590 l 1
 363 590 l 1
 363 110 l 1
 508 110 l 1
 508 0 l 1
 93 0 l 1
454 980 m 1
 325 780 l 1
 225 780 l 1
 304 980 l 1
 454 980 l 1
EndSplineSet
Validated: 1
EndChar

StartChar: Ibreve
Encoding: 300 300 121
Width: 600
GlyphClass: 1
Flags: W
LayerCount: 2
Fore
SplineSet
93 0 m 1
 93 110 l 1
 238 110 l 1
 238 590 l 1
 95 590 l 1
 95 700 l 1
 506 700 l 1
 506 590 l 1
 363 590 l 1
 363 110 l 1
 508 110 l 1
 508 0 l 1
 93 0 l 1
244 932 m 1
 248 892 270 866 300 866 c 0
 330 866 352 892 356 932 c 1
 451 932 l 1
 451 841 388 776 300 776 c 0
 212 776 149 841 149 932 c 1
 244 932 l 1
EndSplineSet
Validated: 1
EndChar

StartChar: Icircumflex
Encoding: 206 206 122
Width: 600
GlyphClass: 1
Flags: W
LayerCount: 2
Fore
SplineSet
93 0 m 1
 93 110 l 1
 238 110 l 1
 238 590 l 1
 95 590 l 1
 95 700 l 1
 506 700 l 1
 506 590 l 1
 363 590 l 1
 363 110 l 1
 508 110 l 1
 508 0 l 1
 93 0 l 1
126 771 m 1
 245 971 l 1
 355 971 l 1
 474 771 l 1
 379 771 l 1
 300 873 l 1
 221 771 l 1
 126 771 l 1
EndSplineSet
Validated: 1
EndChar

StartChar: Idieresis
Encoding: 207 207 123
Width: 600
GlyphClass: 1
Flags: W
LayerCount: 2
Fore
SplineSet
93 0 m 1
 93 110 l 1
 238 110 l 1
 238 590 l 1
 95 590 l 1
 95 700 l 1
 506 700 l 1
 506 590 l 1
 363 590 l 1
 363 110 l 1
 508 110 l 1
 508 0 l 1
 93 0 l 1
106 859 m 0
 106 906 144 943 190 943 c 0
 237 943 274 906 274 859 c 0
 274 813 237 776 190 776 c 0
 144 776 106 813 106 859 c 0
326 859 m 0
 326 906 364 943 410 943 c 0
 457 943 494 906 494 859 c 0
 494 813 457 776 410 776 c 0
 364 776 326 813 326 859 c 0
EndSplineSet
Validated: 1
Substitution2: "'cv03' +W1d7JlPYT1MA-03 +Z+VifgAA 2+Zv9O44ho" Idieresis.square
EndChar

StartChar: Idieresis.square
Encoding: 65596 -1 124
Width: 600
GlyphClass: 1
Flags: W
LayerCount: 2
Fore
SplineSet
93 0 m 1
 93 110 l 1
 238 110 l 1
 238 590 l 1
 95 590 l 1
 95 700 l 1
 506 700 l 1
 506 590 l 1
 363 590 l 1
 363 110 l 1
 508 110 l 1
 508 0 l 1
 93 0 l 1
118 775 m 1
 118 920 l 1
 263 920 l 1
 263 775 l 1
 118 775 l 1
338 775 m 1
 338 920 l 1
 483 920 l 1
 483 775 l 1
 338 775 l 1
EndSplineSet
Validated: 1
EndChar

StartChar: Idotaccent
Encoding: 304 304 125
Width: 600
GlyphClass: 1
Flags: W
LayerCount: 2
Fore
SplineSet
93 0 m 1
 93 110 l 1
 238 110 l 1
 238 590 l 1
 95 590 l 1
 95 700 l 1
 506 700 l 1
 506 590 l 1
 363 590 l 1
 363 110 l 1
 508 110 l 1
 508 0 l 1
 93 0 l 1
209 861 m 0
 209 912 250 952 300 952 c 0
 351 952 391 912 391 861 c 0
 391 811 351 770 300 770 c 0
 250 770 209 811 209 861 c 0
EndSplineSet
Validated: 1
Substitution2: "'cv03' +W1d7JlPYT1MA-03 +Z+VifgAA 2+Zv9O44ho" Idotaccent.square
EndChar

StartChar: Idotaccent.square
Encoding: 65597 -1 126
Width: 600
GlyphClass: 1
Flags: W
LayerCount: 2
Fore
SplineSet
93 0 m 1
 93 110 l 1
 238 110 l 1
 238 590 l 1
 95 590 l 1
 95 700 l 1
 506 700 l 1
 506 590 l 1
 363 590 l 1
 363 110 l 1
 508 110 l 1
 508 0 l 1
 93 0 l 1
221 782 m 1
 221 940 l 1
 379 940 l 1
 379 782 l 1
 221 782 l 1
EndSplineSet
Validated: 1
EndChar

StartChar: Igrave
Encoding: 204 204 127
Width: 600
GlyphClass: 1
Flags: W
LayerCount: 2
Fore
SplineSet
93 0 m 1
 93 110 l 1
 238 110 l 1
 238 590 l 1
 95 590 l 1
 95 700 l 1
 506 700 l 1
 506 590 l 1
 363 590 l 1
 363 110 l 1
 508 110 l 1
 508 0 l 1
 93 0 l 1
375 780 m 1
 275 780 l 1
 146 980 l 1
 296 980 l 1
 375 780 l 1
EndSplineSet
Validated: 1
EndChar

StartChar: Imacron
Encoding: 298 298 128
Width: 600
GlyphClass: 1
Flags: W
LayerCount: 2
Fore
SplineSet
93 0 m 1
 93 110 l 1
 238 110 l 1
 238 590 l 1
 95 590 l 1
 95 700 l 1
 506 700 l 1
 506 590 l 1
 363 590 l 1
 363 110 l 1
 508 110 l 1
 508 0 l 1
 93 0 l 1
140 800 m 1
 140 900 l 1
 460 900 l 1
 460 800 l 1
 140 800 l 1
EndSplineSet
Validated: 1
EndChar

StartChar: Iogonek
Encoding: 302 302 129
Width: 600
GlyphClass: 1
Flags: W
LayerCount: 2
Fore
SplineSet
93 0 m 1
 93 110 l 1
 238 110 l 1
 238 590 l 1
 95 590 l 1
 95 700 l 1
 506 700 l 1
 506 590 l 1
 363 590 l 1
 363 110 l 1
 508 110 l 1
 508 0 l 1
 454 -24 430 -48 430 -76 c 0
 430 -103 452 -120 484 -120 c 0
 492 -120 501 -119 508 -117 c 1
 508 -200 l 1
 496 -203 480 -205 463 -205 c 0
 384 -205 330 -161 330 -97 c 0
 330 -60 348 -27 384 0 c 1
 93 0 l 1
EndSplineSet
Validated: 1
EndChar

StartChar: Iota
Encoding: 921 921 130
Width: 600
GlyphClass: 1
Flags: W
LayerCount: 2
Fore
SplineSet
93 0 m 1
 93 110 l 1
 238 110 l 1
 238 590 l 1
 95 590 l 1
 95 700 l 1
 506 700 l 1
 506 590 l 1
 363 590 l 1
 363 110 l 1
 508 110 l 1
 508 0 l 1
 93 0 l 1
EndSplineSet
Validated: 1
EndChar

StartChar: Iotadieresis
Encoding: 938 938 131
Width: 600
GlyphClass: 1
Flags: W
LayerCount: 2
Fore
SplineSet
93 0 m 1
 93 110 l 1
 238 110 l 1
 238 590 l 1
 95 590 l 1
 95 700 l 1
 506 700 l 1
 506 590 l 1
 363 590 l 1
 363 110 l 1
 508 110 l 1
 508 0 l 1
 93 0 l 1
106 859 m 0
 106 906 144 943 190 943 c 0
 237 943 274 906 274 859 c 0
 274 813 237 776 190 776 c 0
 144 776 106 813 106 859 c 0
326 859 m 0
 326 906 364 943 410 943 c 0
 457 943 494 906 494 859 c 0
 494 813 457 776 410 776 c 0
 364 776 326 813 326 859 c 0
EndSplineSet
Validated: 1
EndChar

StartChar: Iotatonos
Encoding: 906 906 132
Width: 600
GlyphClass: 1
Flags: W
LayerCount: 2
Fore
SplineSet
93 0 m 1
 93 110 l 1
 238 110 l 1
 238 590 l 1
 95 590 l 1
 95 700 l 1
 506 700 l 1
 506 590 l 1
 363 590 l 1
 363 110 l 1
 508 110 l 1
 508 0 l 1
 93 0 l 1
105 780 m 1
 26 560 l 1
 -64 560 l 1
 -35 780 l 1
 105 780 l 1
EndSplineSet
Validated: 1
EndChar

StartChar: Itilde
Encoding: 296 296 133
Width: 600
GlyphClass: 1
Flags: W
LayerCount: 2
Fore
SplineSet
93 0 m 1
 93 110 l 1
 238 110 l 1
 238 590 l 1
 95 590 l 1
 95 700 l 1
 506 700 l 1
 506 590 l 1
 363 590 l 1
 363 110 l 1
 508 110 l 1
 508 0 l 1
 93 0 l 1
116 799 m 1
 116 832 l 2
 116 914 159 963 232 963 c 0
 327 963 343 878 368 878 c 0
 378 878 382 892 383 928 c 2
 383 949 l 1
 484 949 l 1
 484 916 l 2
 484 834 441 785 368 785 c 0
 273 785 259 870 234 870 c 0
 224 870 218 855 217 820 c 2
 217 799 l 1
 116 799 l 1
EndSplineSet
Validated: 1
EndChar

StartChar: J
Encoding: 74 74 134
Width: 600
GlyphClass: 1
Flags: W
LayerCount: 2
Fore
SplineSet
50 190 m 1
 167 190 l 1
 171 137 216 100 278 100 c 0
 342 100 385 140 385 198 c 2
 385 590 l 1
 135 590 l 1
 135 700 l 1
 510 700 l 1
 510 198 l 2
 510 77 415 -10 279 -10 c 0
 146 -10 50 74 50 190 c 1
EndSplineSet
Validated: 1
Substitution2: "+U1VOAGb/Y2IA +Z+VifgAA 72+Zv9O44ho" J.rightS
Substitution2: "+U1VOAGb/Y2IA +Z+VifgAA 71+Zv9O44ho" J.rightM
Substitution2: "+U1VOAGb/Y2IA +Z+VifgAA 70+Zv9O44ho" J.rightL
Substitution2: "+U1VOAGb/Y2IA +Z+VifgAA 69+Zv9O44ho" J.leftS
Substitution2: "+U1VOAGb/Y2IA +Z+VifgAA 68+Zv9O44ho" J.leftM
Substitution2: "+U1VOAGb/Y2IA +Z+VifgAA 67+Zv9O44ho" J.leftL
Substitution2: "+U1VOAGb/Y2IA +Z+VifgAA 66+Zv9O44ho" J.rightS
Substitution2: "+U1VOAGb/Y2IA +Z+VifgAA 65+Zv9O44ho" J.rightM
Substitution2: "+U1VOAGb/Y2IA +Z+VifgAA 64+Zv9O44ho" J.rightS
Substitution2: "+U1VOAGb/Y2IA +Z+VifgAA 63+Zv9O44ho" J.rightM
Substitution2: "+U1VOAGb/Y2IA +Z+VifgAA 62+Zv9O44ho" J.rightL
Substitution2: "+U1VOAGb/Y2IA +Z+VifgAA 61+Zv9O44ho" J.leftS
Substitution2: "+U1VOAGb/Y2IA +Z+VifgAA 60+Zv9O44ho" J.leftM
Substitution2: "+U1VOAGb/Y2IA +Z+VifgAA 59+Zv9O44ho" J.leftL
EndChar

StartChar: J.leftL
Encoding: 65598 -1 135
Width: 600
GlyphClass: 1
Flags: W
LayerCount: 2
Fore
SplineSet
6 190 m 1
 123 190 l 1
 127 137 172 100 234 100 c 0
 298 100 341 140 341 198 c 2
 341 590 l 1
 91 590 l 1
 91 700 l 1
 466 700 l 1
 466 198 l 2
 466 77 371 -10 235 -10 c 0
 102 -10 6 74 6 190 c 1
EndSplineSet
Validated: 1
EndChar

StartChar: J.leftM
Encoding: 65599 -1 136
Width: 600
GlyphClass: 1
Flags: W
LayerCount: 2
Fore
SplineSet
20 190 m 1
 137 190 l 1
 141 137 186 100 248 100 c 0
 312 100 355 140 355 198 c 2
 355 590 l 1
 105 590 l 1
 105 700 l 1
 480 700 l 1
 480 198 l 2
 480 77 385 -10 249 -10 c 0
 116 -10 20 74 20 190 c 1
EndSplineSet
Validated: 1
EndChar

StartChar: J.leftS
Encoding: 65600 -1 137
Width: 600
GlyphClass: 1
Flags: W
LayerCount: 2
Fore
SplineSet
32 190 m 1
 149 190 l 1
 153 137 198 100 260 100 c 0
 324 100 367 140 367 198 c 2
 367 590 l 1
 117 590 l 1
 117 700 l 1
 492 700 l 1
 492 198 l 2
 492 77 397 -10 261 -10 c 0
 128 -10 32 74 32 190 c 1
EndSplineSet
Validated: 1
EndChar

StartChar: J.rightL
Encoding: 65601 -1 138
Width: 600
GlyphClass: 1
Flags: W
LayerCount: 2
Fore
SplineSet
94 190 m 1
 211 190 l 1
 215 137 260 100 322 100 c 0
 386 100 429 140 429 198 c 2
 429 590 l 1
 179 590 l 1
 179 700 l 1
 554 700 l 1
 554 198 l 2
 554 77 459 -10 323 -10 c 0
 190 -10 94 74 94 190 c 1
EndSplineSet
Validated: 1
EndChar

StartChar: J.rightM
Encoding: 65602 -1 139
Width: 600
GlyphClass: 1
Flags: W
LayerCount: 2
Fore
SplineSet
80 190 m 1
 197 190 l 1
 201 137 246 100 308 100 c 0
 372 100 415 140 415 198 c 2
 415 590 l 1
 165 590 l 1
 165 700 l 1
 540 700 l 1
 540 198 l 2
 540 77 445 -10 309 -10 c 0
 176 -10 80 74 80 190 c 1
EndSplineSet
Validated: 1
EndChar

StartChar: J.rightS
Encoding: 65603 -1 140
Width: 600
GlyphClass: 1
Flags: W
LayerCount: 2
Fore
SplineSet
68 190 m 1
 185 190 l 1
 189 137 234 100 296 100 c 0
 360 100 403 140 403 198 c 2
 403 590 l 1
 153 590 l 1
 153 700 l 1
 528 700 l 1
 528 198 l 2
 528 77 433 -10 297 -10 c 0
 164 -10 68 74 68 190 c 1
EndSplineSet
Validated: 1
EndChar

StartChar: Jcircumflex
Encoding: 308 308 141
Width: 600
GlyphClass: 1
Flags: W
LayerCount: 2
Fore
SplineSet
50 190 m 1
 167 190 l 1
 171 137 216 100 278 100 c 0
 342 100 385 140 385 198 c 2
 385 590 l 1
 135 590 l 1
 135 700 l 1
 510 700 l 1
 510 198 l 2
 510 77 415 -10 279 -10 c 0
 146 -10 50 74 50 190 c 1
159 771 m 1
 278 971 l 1
 388 971 l 1
 507 771 l 1
 412 771 l 1
 333 873 l 1
 254 771 l 1
 159 771 l 1
EndSplineSet
Validated: 1
EndChar

StartChar: K
Encoding: 75 75 142
Width: 600
GlyphClass: 1
Flags: W
LayerCount: 2
Fore
SplineSet
185 700 m 1
 185 392 l 1
 440 700 l 1
 590 700 l 1
 351 411 l 1
 600 0 l 1
 458 0 l 1
 269 312 l 1
 185 211 l 1
 185 0 l 1
 60 0 l 1
 60 700 l 1
 185 700 l 1
EndSplineSet
Validated: 1
Substitution2: "+U1VOAGb/Y2IA +Z+VifgAA 72+Zv9O44ho" K.rightS
Substitution2: "+U1VOAGb/Y2IA +Z+VifgAA 71+Zv9O44ho" K.rightM
Substitution2: "+U1VOAGb/Y2IA +Z+VifgAA 70+Zv9O44ho" K.rightL
Substitution2: "+U1VOAGb/Y2IA +Z+VifgAA 69+Zv9O44ho" K.leftS
Substitution2: "+U1VOAGb/Y2IA +Z+VifgAA 68+Zv9O44ho" K.leftM
Substitution2: "+U1VOAGb/Y2IA +Z+VifgAA 67+Zv9O44ho" K.leftL
Substitution2: "+U1VOAGb/Y2IA +Z+VifgAA 66+Zv9O44ho" K.rightS
Substitution2: "+U1VOAGb/Y2IA +Z+VifgAA 65+Zv9O44ho" K.rightM
Substitution2: "+U1VOAGb/Y2IA +Z+VifgAA 64+Zv9O44ho" K.rightS
Substitution2: "+U1VOAGb/Y2IA +Z+VifgAA 63+Zv9O44ho" K.rightM
Substitution2: "+U1VOAGb/Y2IA +Z+VifgAA 62+Zv9O44ho" K.rightL
Substitution2: "+U1VOAGb/Y2IA +Z+VifgAA 61+Zv9O44ho" K.leftS
Substitution2: "+U1VOAGb/Y2IA +Z+VifgAA 60+Zv9O44ho" K.leftM
Substitution2: "+U1VOAGb/Y2IA +Z+VifgAA 59+Zv9O44ho" K.leftL
EndChar

StartChar: K.leftL
Encoding: 65604 -1 143
Width: 600
GlyphClass: 1
Flags: W
LayerCount: 2
Fore
SplineSet
141 700 m 1
 141 392 l 1
 396 700 l 1
 546 700 l 1
 307 411 l 1
 556 0 l 1
 414 0 l 1
 225 312 l 1
 141 211 l 1
 141 0 l 1
 16 0 l 1
 16 700 l 1
 141 700 l 1
EndSplineSet
Validated: 1
EndChar

StartChar: K.leftM
Encoding: 65605 -1 144
Width: 600
GlyphClass: 1
Flags: W
LayerCount: 2
Fore
SplineSet
155 700 m 1
 155 392 l 1
 410 700 l 1
 560 700 l 1
 321 411 l 1
 570 0 l 1
 428 0 l 1
 239 312 l 1
 155 211 l 1
 155 0 l 1
 30 0 l 1
 30 700 l 1
 155 700 l 1
EndSplineSet
Validated: 1
EndChar

StartChar: K.leftS
Encoding: 65606 -1 145
Width: 600
GlyphClass: 1
Flags: W
LayerCount: 2
Fore
SplineSet
167 700 m 1
 167 392 l 1
 422 700 l 1
 572 700 l 1
 333 411 l 1
 582 0 l 1
 440 0 l 1
 251 312 l 1
 167 211 l 1
 167 0 l 1
 42 0 l 1
 42 700 l 1
 167 700 l 1
EndSplineSet
Validated: 1
EndChar

StartChar: K.rightL
Encoding: 65607 -1 146
Width: 600
GlyphClass: 1
Flags: W
LayerCount: 2
Fore
SplineSet
229 700 m 1
 229 392 l 1
 484 700 l 1
 634 700 l 1
 395 411 l 1
 644 0 l 1
 502 0 l 1
 313 312 l 1
 229 211 l 1
 229 0 l 1
 104 0 l 1
 104 700 l 1
 229 700 l 1
EndSplineSet
Validated: 1
EndChar

StartChar: K.rightM
Encoding: 65608 -1 147
Width: 600
GlyphClass: 1
Flags: W
LayerCount: 2
Fore
SplineSet
215 700 m 1
 215 392 l 1
 470 700 l 1
 620 700 l 1
 381 411 l 1
 630 0 l 1
 488 0 l 1
 299 312 l 1
 215 211 l 1
 215 0 l 1
 90 0 l 1
 90 700 l 1
 215 700 l 1
EndSplineSet
Validated: 1
EndChar

StartChar: K.rightS
Encoding: 65609 -1 148
Width: 600
GlyphClass: 1
Flags: W
LayerCount: 2
Fore
SplineSet
203 700 m 1
 203 392 l 1
 458 700 l 1
 608 700 l 1
 369 411 l 1
 618 0 l 1
 476 0 l 1
 287 312 l 1
 203 211 l 1
 203 0 l 1
 78 0 l 1
 78 700 l 1
 203 700 l 1
EndSplineSet
Validated: 1
EndChar

StartChar: Kappa
Encoding: 922 922 149
Width: 600
GlyphClass: 1
Flags: W
LayerCount: 2
Fore
SplineSet
185 700 m 1
 185 392 l 1
 440 700 l 1
 590 700 l 1
 351 411 l 1
 600 0 l 1
 458 0 l 1
 269 312 l 1
 185 211 l 1
 185 0 l 1
 60 0 l 1
 60 700 l 1
 185 700 l 1
EndSplineSet
Validated: 1
EndChar

StartChar: uni0136
Encoding: 310 310 150
Width: 600
GlyphClass: 1
Flags: W
LayerCount: 2
Fore
SplineSet
185 700 m 1
 185 392 l 1
 440 700 l 1
 590 700 l 1
 351 411 l 1
 600 0 l 1
 458 0 l 1
 269 312 l 1
 185 211 l 1
 185 0 l 1
 60 0 l 1
 60 700 l 1
 185 700 l 1
397 -70 m 1
 268 -270 l 1
 168 -270 l 1
 247 -70 l 1
 397 -70 l 1
EndSplineSet
Validated: 1
EndChar

StartChar: L
Encoding: 76 76 151
Width: 600
GlyphClass: 1
Flags: W
LayerCount: 2
Fore
SplineSet
115 0 m 1
 115 700 l 1
 240 700 l 1
 240 110 l 1
 527 110 l 1
 527 0 l 1
 115 0 l 1
EndSplineSet
Validated: 1
Substitution2: "+U1VOAGb/Y2IA +Z+VifgAA 72+Zv9O44ho" L.rightS
Substitution2: "+U1VOAGb/Y2IA +Z+VifgAA 71+Zv9O44ho" L.rightM
Substitution2: "+U1VOAGb/Y2IA +Z+VifgAA 70+Zv9O44ho" L.rightL
Substitution2: "+U1VOAGb/Y2IA +Z+VifgAA 69+Zv9O44ho" L.leftS
Substitution2: "+U1VOAGb/Y2IA +Z+VifgAA 68+Zv9O44ho" L.leftM
Substitution2: "+U1VOAGb/Y2IA +Z+VifgAA 67+Zv9O44ho" L.leftL
Substitution2: "+U1VOAGb/Y2IA +Z+VifgAA 66+Zv9O44ho" L.rightS
Substitution2: "+U1VOAGb/Y2IA +Z+VifgAA 65+Zv9O44ho" L.rightM
Substitution2: "+U1VOAGb/Y2IA +Z+VifgAA 64+Zv9O44ho" L.rightS
Substitution2: "+U1VOAGb/Y2IA +Z+VifgAA 63+Zv9O44ho" L.rightM
Substitution2: "+U1VOAGb/Y2IA +Z+VifgAA 62+Zv9O44ho" L.rightL
Substitution2: "+U1VOAGb/Y2IA +Z+VifgAA 61+Zv9O44ho" L.leftS
Substitution2: "+U1VOAGb/Y2IA +Z+VifgAA 60+Zv9O44ho" L.leftM
Substitution2: "+U1VOAGb/Y2IA +Z+VifgAA 59+Zv9O44ho" L.leftL
EndChar

StartChar: L.leftL
Encoding: 65610 -1 152
Width: 600
GlyphClass: 1
Flags: W
LayerCount: 2
Fore
SplineSet
71 0 m 1
 71 700 l 1
 196 700 l 1
 196 110 l 1
 483 110 l 1
 483 0 l 1
 71 0 l 1
EndSplineSet
Validated: 1
EndChar

StartChar: L.leftM
Encoding: 65611 -1 153
Width: 600
GlyphClass: 1
Flags: W
LayerCount: 2
Fore
SplineSet
85 0 m 1
 85 700 l 1
 210 700 l 1
 210 110 l 1
 497 110 l 1
 497 0 l 1
 85 0 l 1
EndSplineSet
Validated: 1
EndChar

StartChar: L.leftS
Encoding: 65612 -1 154
Width: 600
GlyphClass: 1
Flags: W
LayerCount: 2
Fore
SplineSet
97 0 m 1
 97 700 l 1
 222 700 l 1
 222 110 l 1
 509 110 l 1
 509 0 l 1
 97 0 l 1
EndSplineSet
Validated: 1
EndChar

StartChar: L.rightL
Encoding: 65613 -1 155
Width: 600
GlyphClass: 1
Flags: W
LayerCount: 2
Fore
SplineSet
159 0 m 1
 159 700 l 1
 284 700 l 1
 284 110 l 1
 571 110 l 1
 571 0 l 1
 159 0 l 1
EndSplineSet
Validated: 1
EndChar

StartChar: L.rightM
Encoding: 65614 -1 156
Width: 600
GlyphClass: 1
Flags: W
LayerCount: 2
Fore
SplineSet
145 0 m 1
 145 700 l 1
 270 700 l 1
 270 110 l 1
 557 110 l 1
 557 0 l 1
 145 0 l 1
EndSplineSet
Validated: 1
EndChar

StartChar: L.rightS
Encoding: 65615 -1 157
Width: 600
GlyphClass: 1
Flags: W
LayerCount: 2
Fore
SplineSet
127 0 m 1
 127 700 l 1
 252 700 l 1
 252 110 l 1
 539 110 l 1
 539 0 l 1
 127 0 l 1
EndSplineSet
Validated: 1
EndChar

StartChar: Lacute
Encoding: 313 313 158
Width: 600
GlyphClass: 1
Flags: W
LayerCount: 2
Fore
SplineSet
115 0 m 1
 115 700 l 1
 240 700 l 1
 240 110 l 1
 527 110 l 1
 527 0 l 1
 115 0 l 1
334 980 m 1
 205 780 l 1
 105 780 l 1
 184 980 l 1
 334 980 l 1
EndSplineSet
Validated: 1
EndChar

StartChar: Lambda
Encoding: 923 923 159
Width: 600
GlyphClass: 1
Flags: W
LayerCount: 2
Fore
SplineSet
384 700 m 1
 580 0 l 1
 454 0 l 1
 301 566 l 1
 297 566 l 1
 144 0 l 1
 20 0 l 1
 216 700 l 1
 384 700 l 1
EndSplineSet
Validated: 1
EndChar

StartChar: Lcaron
Encoding: 317 317 160
Width: 600
GlyphClass: 1
Flags: W
LayerCount: 2
Fore
SplineSet
115 0 m 1
 115 700 l 1
 240 700 l 1
 240 110 l 1
 527 110 l 1
 527 0 l 1
 115 0 l 1
293 500 m 1
 369 500 433 543 433 624 c 1
 423 617 410 613 397 613 c 0
 356 613 325 650 325 696 c 0
 325 747 364 785 415 785 c 0
 481 785 527 722 527 635 c 0
 527 505 426 410 293 414 c 1
 293 500 l 1
EndSplineSet
Validated: 33
EndChar

StartChar: uni013B
Encoding: 315 315 161
Width: 600
GlyphClass: 1
Flags: W
LayerCount: 2
Fore
SplineSet
115 0 m 1
 115 700 l 1
 240 700 l 1
 240 110 l 1
 527 110 l 1
 527 0 l 1
 115 0 l 1
398 -70 m 1
 269 -270 l 1
 169 -270 l 1
 248 -70 l 1
 398 -70 l 1
EndSplineSet
Validated: 1
EndChar

StartChar: Ldot
Encoding: 319 319 162
Width: 600
GlyphClass: 1
Flags: W
LayerCount: 2
Fore
SplineSet
115 0 m 1
 115 700 l 1
 240 700 l 1
 240 110 l 1
 527 110 l 1
 527 0 l 1
 115 0 l 1
375 390 m 0
 375 443 418 485 470 485 c 0
 523 485 565 443 565 390 c 0
 565 338 523 295 470 295 c 0
 418 295 375 338 375 390 c 0
EndSplineSet
Validated: 1
Substitution2: "'cv03' +W1d7JlPYT1MA-03 +Z+VifgAA 2+Zv9O44ho" Ldot.square
EndChar

StartChar: Ldot.square
Encoding: 65616 -1 163
Width: 600
GlyphClass: 1
Flags: W
LayerCount: 2
Fore
SplineSet
115 0 m 1
 115 700 l 1
 240 700 l 1
 240 110 l 1
 527 110 l 1
 527 0 l 1
 115 0 l 1
387 282 m 1
 387 448 l 1
 553 448 l 1
 553 282 l 1
 387 282 l 1
EndSplineSet
Validated: 1
EndChar

StartChar: Lslash
Encoding: 321 321 164
Width: 600
GlyphClass: 1
Flags: W
LayerCount: 2
Fore
SplineSet
115 0 m 1
 115 279 l 1
 20 229 l 1
 20 341 l 1
 115 391 l 1
 115 700 l 1
 240 700 l 1
 240 456 l 1
 428 555 l 1
 428 443 l 1
 240 344 l 1
 240 110 l 1
 527 110 l 1
 527 0 l 1
 115 0 l 1
EndSplineSet
Validated: 1
EndChar

StartChar: M
Encoding: 77 77 165
Width: 600
GlyphClass: 1
Flags: W
LayerCount: 2
Fore
SplineSet
145 556 m 1
 145 0 l 1
 30 0 l 1
 30 700 l 1
 202 700 l 1
 298 283 l 1
 302 283 l 1
 398 700 l 1
 570 700 l 1
 570 0 l 1
 455 0 l 1
 455 556 l 1
 451 556 l 1
 355 140 l 1
 245 140 l 1
 149 556 l 1
 145 556 l 1
EndSplineSet
Validated: 1
Substitution2: "+U1VOAGb/Y2IA +Z+VifgAA 72+Zv9O44ho" M.rightS
Substitution2: "+U1VOAGb/Y2IA +Z+VifgAA 71+Zv9O44ho" M.rightM
Substitution2: "+U1VOAGb/Y2IA +Z+VifgAA 70+Zv9O44ho" M.rightL
Substitution2: "+U1VOAGb/Y2IA +Z+VifgAA 69+Zv9O44ho" M.leftS
Substitution2: "+U1VOAGb/Y2IA +Z+VifgAA 68+Zv9O44ho" M.leftM
Substitution2: "+U1VOAGb/Y2IA +Z+VifgAA 67+Zv9O44ho" M.leftL
Substitution2: "+U1VOAGb/Y2IA +Z+VifgAA 66+Zv9O44ho" M.rightS
Substitution2: "+U1VOAGb/Y2IA +Z+VifgAA 65+Zv9O44ho" M.rightM
Substitution2: "+U1VOAGb/Y2IA +Z+VifgAA 64+Zv9O44ho" M.rightS
Substitution2: "+U1VOAGb/Y2IA +Z+VifgAA 63+Zv9O44ho" M.rightM
Substitution2: "+U1VOAGb/Y2IA +Z+VifgAA 62+Zv9O44ho" M.rightL
Substitution2: "+U1VOAGb/Y2IA +Z+VifgAA 61+Zv9O44ho" M.leftS
Substitution2: "+U1VOAGb/Y2IA +Z+VifgAA 60+Zv9O44ho" M.leftM
Substitution2: "+U1VOAGb/Y2IA +Z+VifgAA 59+Zv9O44ho" M.leftL
EndChar

StartChar: M.leftL
Encoding: 65617 -1 166
Width: 600
GlyphClass: 1
Flags: W
LayerCount: 2
Fore
SplineSet
101 556 m 1
 101 0 l 1
 -14 0 l 1
 -14 700 l 1
 158 700 l 1
 254 283 l 1
 258 283 l 1
 354 700 l 1
 526 700 l 1
 526 0 l 1
 411 0 l 1
 411 556 l 1
 407 556 l 1
 311 140 l 1
 201 140 l 1
 105 556 l 1
 101 556 l 1
EndSplineSet
Validated: 1
EndChar

StartChar: M.leftM
Encoding: 65618 -1 167
Width: 600
GlyphClass: 1
Flags: W
LayerCount: 2
Fore
SplineSet
115 556 m 1
 115 0 l 1
 0 0 l 1
 0 700 l 1
 172 700 l 1
 268 283 l 1
 272 283 l 1
 368 700 l 1
 540 700 l 1
 540 0 l 1
 425 0 l 1
 425 556 l 1
 421 556 l 1
 325 140 l 1
 215 140 l 1
 119 556 l 1
 115 556 l 1
EndSplineSet
Validated: 1
EndChar

StartChar: M.leftS
Encoding: 65619 -1 168
Width: 600
GlyphClass: 1
Flags: W
LayerCount: 2
Fore
SplineSet
127 556 m 1
 127 0 l 1
 12 0 l 1
 12 700 l 1
 184 700 l 1
 280 283 l 1
 284 283 l 1
 380 700 l 1
 552 700 l 1
 552 0 l 1
 437 0 l 1
 437 556 l 1
 433 556 l 1
 337 140 l 1
 227 140 l 1
 131 556 l 1
 127 556 l 1
EndSplineSet
Validated: 1
EndChar

StartChar: M.rightL
Encoding: 65620 -1 169
Width: 600
GlyphClass: 1
Flags: W
LayerCount: 2
Fore
SplineSet
189 556 m 1
 189 0 l 1
 74 0 l 1
 74 700 l 1
 246 700 l 1
 342 283 l 1
 346 283 l 1
 442 700 l 1
 614 700 l 1
 614 0 l 1
 499 0 l 1
 499 556 l 1
 495 556 l 1
 399 140 l 1
 289 140 l 1
 193 556 l 1
 189 556 l 1
EndSplineSet
Validated: 1
EndChar

StartChar: M.rightM
Encoding: 65621 -1 170
Width: 600
GlyphClass: 1
Flags: W
LayerCount: 2
Fore
SplineSet
175 556 m 1
 175 0 l 1
 60 0 l 1
 60 700 l 1
 232 700 l 1
 328 283 l 1
 332 283 l 1
 428 700 l 1
 600 700 l 1
 600 0 l 1
 485 0 l 1
 485 556 l 1
 481 556 l 1
 385 140 l 1
 275 140 l 1
 179 556 l 1
 175 556 l 1
EndSplineSet
Validated: 1
EndChar

StartChar: M.rightS
Encoding: 65622 -1 171
Width: 600
GlyphClass: 1
Flags: W
LayerCount: 2
Fore
SplineSet
163 556 m 1
 163 0 l 1
 48 0 l 1
 48 700 l 1
 220 700 l 1
 316 283 l 1
 320 283 l 1
 416 700 l 1
 588 700 l 1
 588 0 l 1
 473 0 l 1
 473 556 l 1
 469 556 l 1
 373 140 l 1
 263 140 l 1
 167 556 l 1
 163 556 l 1
EndSplineSet
Validated: 1
EndChar

StartChar: Mu
Encoding: 924 924 172
Width: 600
GlyphClass: 1
Flags: W
LayerCount: 2
Fore
SplineSet
145 556 m 1
 145 0 l 1
 30 0 l 1
 30 700 l 1
 202 700 l 1
 298 283 l 1
 302 283 l 1
 398 700 l 1
 570 700 l 1
 570 0 l 1
 455 0 l 1
 455 556 l 1
 451 556 l 1
 355 140 l 1
 245 140 l 1
 149 556 l 1
 145 556 l 1
EndSplineSet
Validated: 1
EndChar

StartChar: N
Encoding: 78 78 173
Width: 600
GlyphClass: 1
Flags: W
LayerCount: 2
Fore
SplineSet
430 185 m 1
 430 700 l 1
 545 700 l 1
 545 0 l 1
 380 0 l 1
 174 579 l 1
 170 579 l 1
 170 0 l 1
 55 0 l 1
 55 700 l 1
 243 700 l 1
 426 185 l 1
 430 185 l 1
EndSplineSet
Validated: 1
Substitution2: "+U1VOAGb/Y2IA +Z+VifgAA 72+Zv9O44ho" N.rightS
Substitution2: "+U1VOAGb/Y2IA +Z+VifgAA 71+Zv9O44ho" N.rightM
Substitution2: "+U1VOAGb/Y2IA +Z+VifgAA 70+Zv9O44ho" N.rightL
Substitution2: "+U1VOAGb/Y2IA +Z+VifgAA 69+Zv9O44ho" N.leftS
Substitution2: "+U1VOAGb/Y2IA +Z+VifgAA 68+Zv9O44ho" N.leftM
Substitution2: "+U1VOAGb/Y2IA +Z+VifgAA 67+Zv9O44ho" N.leftL
Substitution2: "+U1VOAGb/Y2IA +Z+VifgAA 66+Zv9O44ho" N.rightS
Substitution2: "+U1VOAGb/Y2IA +Z+VifgAA 65+Zv9O44ho" N.rightM
Substitution2: "+U1VOAGb/Y2IA +Z+VifgAA 64+Zv9O44ho" N.rightS
Substitution2: "+U1VOAGb/Y2IA +Z+VifgAA 63+Zv9O44ho" N.rightM
Substitution2: "+U1VOAGb/Y2IA +Z+VifgAA 62+Zv9O44ho" N.rightL
Substitution2: "+U1VOAGb/Y2IA +Z+VifgAA 61+Zv9O44ho" N.leftS
Substitution2: "+U1VOAGb/Y2IA +Z+VifgAA 60+Zv9O44ho" N.leftM
Substitution2: "+U1VOAGb/Y2IA +Z+VifgAA 59+Zv9O44ho" N.leftL
EndChar

StartChar: N.leftL
Encoding: 65623 -1 174
Width: 600
GlyphClass: 1
Flags: W
LayerCount: 2
Fore
SplineSet
388 185 m 1
 388 700 l 1
 503 700 l 1
 503 0 l 1
 338 0 l 1
 132 579 l 1
 128 579 l 1
 128 0 l 1
 13 0 l 1
 13 700 l 1
 201 700 l 1
 384 185 l 1
 388 185 l 1
EndSplineSet
Validated: 1
EndChar

StartChar: N.leftM
Encoding: 65624 -1 175
Width: 600
GlyphClass: 1
Flags: W
LayerCount: 2
Fore
SplineSet
403 185 m 1
 403 700 l 1
 518 700 l 1
 518 0 l 1
 353 0 l 1
 147 579 l 1
 143 579 l 1
 143 0 l 1
 28 0 l 1
 28 700 l 1
 216 700 l 1
 399 185 l 1
 403 185 l 1
EndSplineSet
Validated: 1
EndChar

StartChar: N.leftS
Encoding: 65625 -1 176
Width: 600
GlyphClass: 1
Flags: W
LayerCount: 2
Fore
SplineSet
418 185 m 1
 418 700 l 1
 533 700 l 1
 533 0 l 1
 368 0 l 1
 162 579 l 1
 158 579 l 1
 158 0 l 1
 43 0 l 1
 43 700 l 1
 231 700 l 1
 414 185 l 1
 418 185 l 1
EndSplineSet
Validated: 1
EndChar

StartChar: N.rightL
Encoding: 65626 -1 177
Width: 600
GlyphClass: 1
Flags: W
LayerCount: 2
Fore
SplineSet
472 185 m 1
 472 700 l 1
 587 700 l 1
 587 0 l 1
 422 0 l 1
 216 579 l 1
 212 579 l 1
 212 0 l 1
 97 0 l 1
 97 700 l 1
 285 700 l 1
 468 185 l 1
 472 185 l 1
EndSplineSet
Validated: 1
EndChar

StartChar: N.rightM
Encoding: 65627 -1 178
Width: 600
GlyphClass: 1
Flags: W
LayerCount: 2
Fore
SplineSet
457 185 m 1
 457 700 l 1
 572 700 l 1
 572 0 l 1
 407 0 l 1
 201 579 l 1
 197 579 l 1
 197 0 l 1
 82 0 l 1
 82 700 l 1
 270 700 l 1
 453 185 l 1
 457 185 l 1
EndSplineSet
Validated: 1
EndChar

StartChar: N.rightS
Encoding: 65628 -1 179
Width: 600
GlyphClass: 1
Flags: W
LayerCount: 2
Fore
SplineSet
442 185 m 1
 442 700 l 1
 557 700 l 1
 557 0 l 1
 392 0 l 1
 186 579 l 1
 182 579 l 1
 182 0 l 1
 67 0 l 1
 67 700 l 1
 255 700 l 1
 438 185 l 1
 442 185 l 1
EndSplineSet
Validated: 1
EndChar

StartChar: Nacute
Encoding: 323 323 180
Width: 600
GlyphClass: 1
Flags: W
LayerCount: 2
Fore
SplineSet
430 185 m 1
 430 700 l 1
 545 700 l 1
 545 0 l 1
 380 0 l 1
 174 579 l 1
 170 579 l 1
 170 0 l 1
 55 0 l 1
 55 700 l 1
 243 700 l 1
 426 185 l 1
 430 185 l 1
454 980 m 1
 325 780 l 1
 225 780 l 1
 304 980 l 1
 454 980 l 1
EndSplineSet
Validated: 1
EndChar

StartChar: Ncaron
Encoding: 327 327 181
Width: 600
GlyphClass: 1
Flags: W
LayerCount: 2
Fore
SplineSet
430 185 m 1
 430 700 l 1
 545 700 l 1
 545 0 l 1
 380 0 l 1
 174 579 l 1
 170 579 l 1
 170 0 l 1
 55 0 l 1
 55 700 l 1
 243 700 l 1
 426 185 l 1
 430 185 l 1
245 771 m 1
 126 971 l 1
 221 971 l 1
 300 869 l 1
 379 971 l 1
 474 971 l 1
 355 771 l 1
 245 771 l 1
EndSplineSet
Validated: 1
EndChar

StartChar: uni0145
Encoding: 325 325 182
Width: 600
GlyphClass: 1
Flags: W
LayerCount: 2
Fore
SplineSet
430 185 m 1
 430 700 l 1
 545 700 l 1
 545 0 l 1
 380 0 l 1
 174 579 l 1
 170 579 l 1
 170 0 l 1
 55 0 l 1
 55 700 l 1
 243 700 l 1
 426 185 l 1
 430 185 l 1
372 -70 m 1
 243 -270 l 1
 143 -270 l 1
 222 -70 l 1
 372 -70 l 1
EndSplineSet
Validated: 1
EndChar

StartChar: Ntilde
Encoding: 209 209 183
Width: 600
GlyphClass: 1
Flags: W
LayerCount: 2
Fore
SplineSet
430 185 m 1
 430 700 l 1
 545 700 l 1
 545 0 l 1
 380 0 l 1
 174 579 l 1
 170 579 l 1
 170 0 l 1
 55 0 l 1
 55 700 l 1
 243 700 l 1
 426 185 l 1
 430 185 l 1
116 799 m 1
 116 832 l 2
 116 914 159 963 232 963 c 0
 327 963 343 878 368 878 c 0
 378 878 382 892 383 928 c 2
 383 949 l 1
 484 949 l 1
 484 916 l 2
 484 834 441 785 368 785 c 0
 273 785 259 870 234 870 c 0
 224 870 218 855 217 820 c 2
 217 799 l 1
 116 799 l 1
EndSplineSet
Validated: 1
EndChar

StartChar: Nu
Encoding: 925 925 184
Width: 600
GlyphClass: 1
Flags: W
LayerCount: 2
Fore
SplineSet
430 185 m 1
 430 700 l 1
 545 700 l 1
 545 0 l 1
 380 0 l 1
 174 579 l 1
 170 579 l 1
 170 0 l 1
 55 0 l 1
 55 700 l 1
 243 700 l 1
 426 185 l 1
 430 185 l 1
EndSplineSet
Validated: 1
EndChar

StartChar: O
Encoding: 79 79 185
Width: 600
GlyphClass: 1
Flags: W
LayerCount: 2
Fore
SplineSet
300 -10 m 0
 141 -10 30 138 30 350 c 0
 30 562 141 710 300 710 c 0
 459 710 570 562 570 350 c 0
 570 138 459 -10 300 -10 c 0
300 105 m 0
 388 105 445 202 445 350 c 0
 445 498 388 595 300 595 c 0
 212 595 155 498 155 350 c 0
 155 202 212 105 300 105 c 0
EndSplineSet
Validated: 1
Substitution2: "+U1VOAGb/Y2IA +Z+VifgAA 72+Zv9O44ho" O.rightS
Substitution2: "+U1VOAGb/Y2IA +Z+VifgAA 71+Zv9O44ho" O.rightM
Substitution2: "+U1VOAGb/Y2IA +Z+VifgAA 70+Zv9O44ho" O.rightL
Substitution2: "+U1VOAGb/Y2IA +Z+VifgAA 69+Zv9O44ho" O.leftS
Substitution2: "+U1VOAGb/Y2IA +Z+VifgAA 68+Zv9O44ho" O.leftM
Substitution2: "+U1VOAGb/Y2IA +Z+VifgAA 67+Zv9O44ho" O.leftL
Substitution2: "+U1VOAGb/Y2IA +Z+VifgAA 66+Zv9O44ho" O.rightS
Substitution2: "+U1VOAGb/Y2IA +Z+VifgAA 65+Zv9O44ho" O.rightM
Substitution2: "+U1VOAGb/Y2IA +Z+VifgAA 64+Zv9O44ho" O.rightS
Substitution2: "+U1VOAGb/Y2IA +Z+VifgAA 63+Zv9O44ho" O.rightM
Substitution2: "+U1VOAGb/Y2IA +Z+VifgAA 62+Zv9O44ho" O.rightL
Substitution2: "+U1VOAGb/Y2IA +Z+VifgAA 61+Zv9O44ho" O.leftS
Substitution2: "+U1VOAGb/Y2IA +Z+VifgAA 60+Zv9O44ho" O.leftM
Substitution2: "+U1VOAGb/Y2IA +Z+VifgAA 59+Zv9O44ho" O.leftL
EndChar

StartChar: O.leftL
Encoding: 65629 -1 186
Width: 600
GlyphClass: 1
Flags: W
LayerCount: 2
Fore
SplineSet
256 -10 m 0
 97 -10 -14 138 -14 350 c 0
 -14 562 97 710 256 710 c 0
 415 710 526 562 526 350 c 0
 526 138 415 -10 256 -10 c 0
256 105 m 0
 344 105 401 202 401 350 c 0
 401 498 344 595 256 595 c 0
 168 595 111 498 111 350 c 0
 111 202 168 105 256 105 c 0
EndSplineSet
Validated: 1
EndChar

StartChar: O.leftM
Encoding: 65630 -1 187
Width: 600
GlyphClass: 1
Flags: W
LayerCount: 2
Fore
SplineSet
270 -10 m 0
 111 -10 0 138 0 350 c 0
 0 562 111 710 270 710 c 0
 429 710 540 562 540 350 c 0
 540 138 429 -10 270 -10 c 0
270 105 m 0
 358 105 415 202 415 350 c 0
 415 498 358 595 270 595 c 0
 182 595 125 498 125 350 c 0
 125 202 182 105 270 105 c 0
EndSplineSet
Validated: 1
EndChar

StartChar: O.leftS
Encoding: 65631 -1 188
Width: 600
GlyphClass: 1
Flags: W
LayerCount: 2
Fore
SplineSet
282 -10 m 0
 123 -10 12 138 12 350 c 0
 12 562 123 710 282 710 c 0
 441 710 552 562 552 350 c 0
 552 138 441 -10 282 -10 c 0
282 105 m 0
 370 105 427 202 427 350 c 0
 427 498 370 595 282 595 c 0
 194 595 137 498 137 350 c 0
 137 202 194 105 282 105 c 0
EndSplineSet
Validated: 1
EndChar

StartChar: O.rightL
Encoding: 65632 -1 189
Width: 600
GlyphClass: 1
Flags: W
LayerCount: 2
Fore
SplineSet
344 -10 m 0
 185 -10 74 138 74 350 c 0
 74 562 185 710 344 710 c 0
 503 710 614 562 614 350 c 0
 614 138 503 -10 344 -10 c 0
344 105 m 0
 432 105 489 202 489 350 c 0
 489 498 432 595 344 595 c 0
 256 595 199 498 199 350 c 0
 199 202 256 105 344 105 c 0
EndSplineSet
Validated: 1
EndChar

StartChar: O.rightM
Encoding: 65633 -1 190
Width: 600
GlyphClass: 1
Flags: W
LayerCount: 2
Fore
SplineSet
330 -10 m 0
 171 -10 60 138 60 350 c 0
 60 562 171 710 330 710 c 0
 489 710 600 562 600 350 c 0
 600 138 489 -10 330 -10 c 0
330 105 m 0
 418 105 475 202 475 350 c 0
 475 498 418 595 330 595 c 0
 242 595 185 498 185 350 c 0
 185 202 242 105 330 105 c 0
EndSplineSet
Validated: 1
EndChar

StartChar: O.rightS
Encoding: 65634 -1 191
Width: 600
GlyphClass: 1
Flags: W
LayerCount: 2
Fore
SplineSet
312 -10 m 0
 153 -10 42 138 42 350 c 0
 42 562 153 710 312 710 c 0
 471 710 582 562 582 350 c 0
 582 138 471 -10 312 -10 c 0
312 105 m 0
 400 105 457 202 457 350 c 0
 457 498 400 595 312 595 c 0
 224 595 167 498 167 350 c 0
 167 202 224 105 312 105 c 0
EndSplineSet
Validated: 1
EndChar

StartChar: OE
Encoding: 338 338 192
Width: 600
GlyphClass: 1
Flags: W
LayerCount: 2
Fore
SplineSet
251 0 m 2
 119 0 23 147 23 350 c 0
 23 553 119 700 251 700 c 2
 580 700 l 1
 580 590 l 1
 396 590 l 1
 396 418 l 1
 546 418 l 1
 546 308 l 1
 396 308 l 1
 396 110 l 1
 580 110 l 1
 580 0 l 1
 251 0 l 2
251 590 m 2
 187 590 143 493 143 350 c 0
 143 207 187 110 251 110 c 2
 276 110 l 1
 276 590 l 1
 251 590 l 2
EndSplineSet
Validated: 1
EndChar

StartChar: Oacute
Encoding: 211 211 193
Width: 600
GlyphClass: 1
Flags: W
LayerCount: 2
Fore
SplineSet
300 -10 m 0
 141 -10 30 138 30 350 c 0
 30 562 141 710 300 710 c 0
 459 710 570 562 570 350 c 0
 570 138 459 -10 300 -10 c 0
300 105 m 0
 388 105 445 202 445 350 c 0
 445 498 388 595 300 595 c 0
 212 595 155 498 155 350 c 0
 155 202 212 105 300 105 c 0
454 980 m 1
 325 780 l 1
 225 780 l 1
 304 980 l 1
 454 980 l 1
EndSplineSet
Validated: 1
EndChar

StartChar: Obreve
Encoding: 334 334 194
Width: 600
GlyphClass: 1
Flags: W
LayerCount: 2
Fore
SplineSet
300 -10 m 0
 141 -10 30 138 30 350 c 0
 30 562 141 710 300 710 c 0
 459 710 570 562 570 350 c 0
 570 138 459 -10 300 -10 c 0
300 105 m 0
 388 105 445 202 445 350 c 0
 445 498 388 595 300 595 c 0
 212 595 155 498 155 350 c 0
 155 202 212 105 300 105 c 0
244 932 m 1
 248 892 270 866 300 866 c 0
 330 866 352 892 356 932 c 1
 451 932 l 1
 451 841 388 776 300 776 c 0
 212 776 149 841 149 932 c 1
 244 932 l 1
EndSplineSet
Validated: 1
EndChar

StartChar: Ocircumflex
Encoding: 212 212 195
Width: 600
GlyphClass: 1
Flags: W
LayerCount: 2
Fore
SplineSet
300 -10 m 0
 141 -10 30 138 30 350 c 0
 30 562 141 710 300 710 c 0
 459 710 570 562 570 350 c 0
 570 138 459 -10 300 -10 c 0
300 105 m 0
 388 105 445 202 445 350 c 0
 445 498 388 595 300 595 c 0
 212 595 155 498 155 350 c 0
 155 202 212 105 300 105 c 0
126 771 m 1
 245 971 l 1
 355 971 l 1
 474 771 l 1
 379 771 l 1
 300 873 l 1
 221 771 l 1
 126 771 l 1
EndSplineSet
Validated: 1
EndChar

StartChar: Odieresis
Encoding: 214 214 196
Width: 600
GlyphClass: 1
Flags: W
LayerCount: 2
Fore
SplineSet
300 -10 m 0
 141 -10 30 138 30 350 c 0
 30 562 141 710 300 710 c 0
 459 710 570 562 570 350 c 0
 570 138 459 -10 300 -10 c 0
300 105 m 0
 388 105 445 202 445 350 c 0
 445 498 388 595 300 595 c 0
 212 595 155 498 155 350 c 0
 155 202 212 105 300 105 c 0
106 859 m 0
 106 906 144 943 190 943 c 0
 237 943 274 906 274 859 c 0
 274 813 237 776 190 776 c 0
 144 776 106 813 106 859 c 0
326 859 m 0
 326 906 364 943 410 943 c 0
 457 943 494 906 494 859 c 0
 494 813 457 776 410 776 c 0
 364 776 326 813 326 859 c 0
EndSplineSet
Validated: 1
Substitution2: "'cv03' +W1d7JlPYT1MA-03 +Z+VifgAA 2+Zv9O44ho" Odieresis.square
EndChar

StartChar: Odieresis.square
Encoding: 65635 -1 197
Width: 600
GlyphClass: 1
Flags: W
LayerCount: 2
Fore
SplineSet
300 -10 m 0
 141 -10 30 138 30 350 c 0
 30 562 141 710 300 710 c 0
 459 710 570 562 570 350 c 0
 570 138 459 -10 300 -10 c 0
300 105 m 0
 388 105 445 202 445 350 c 0
 445 498 388 595 300 595 c 0
 212 595 155 498 155 350 c 0
 155 202 212 105 300 105 c 0
118 775 m 1
 118 920 l 1
 263 920 l 1
 263 775 l 1
 118 775 l 1
338 775 m 1
 338 920 l 1
 483 920 l 1
 483 775 l 1
 338 775 l 1
EndSplineSet
Validated: 1
EndChar

StartChar: Ograve
Encoding: 210 210 198
Width: 600
GlyphClass: 1
Flags: W
LayerCount: 2
Fore
SplineSet
300 -10 m 0
 141 -10 30 138 30 350 c 0
 30 562 141 710 300 710 c 0
 459 710 570 562 570 350 c 0
 570 138 459 -10 300 -10 c 0
300 105 m 0
 388 105 445 202 445 350 c 0
 445 498 388 595 300 595 c 0
 212 595 155 498 155 350 c 0
 155 202 212 105 300 105 c 0
375 780 m 1
 275 780 l 1
 146 980 l 1
 296 980 l 1
 375 780 l 1
EndSplineSet
Validated: 1
EndChar

StartChar: uni2126
Encoding: 8486 8486 199
Width: 600
GlyphClass: 1
Flags: W
LayerCount: 2
Fore
SplineSet
300 600 m 0
 218 600 155 505 155 382 c 0
 155 280 198 182 270 120 c 1
 270 0 l 1
 37 0 l 1
 37 110 l 1
 162 110 l 1
 162 114 l 1
 81 172 30 278 30 394 c 0
 30 571 148 710 300 710 c 0
 452 710 570 571 570 394 c 0
 570 278 519 172 438 114 c 1
 438 110 l 1
 563 110 l 1
 563 0 l 1
 330 0 l 1
 330 120 l 1
 402 182 445 280 445 382 c 0
 445 505 382 600 300 600 c 0
EndSplineSet
Validated: 1
EndChar

StartChar: Ohungarumlaut
Encoding: 336 336 200
Width: 600
GlyphClass: 1
Flags: W
LayerCount: 2
Fore
SplineSet
300 -10 m 0
 141 -10 30 138 30 350 c 0
 30 562 141 710 300 710 c 0
 459 710 570 562 570 350 c 0
 570 138 459 -10 300 -10 c 0
300 105 m 0
 388 105 445 202 445 350 c 0
 445 498 388 595 300 595 c 0
 212 595 155 498 155 350 c 0
 155 202 212 105 300 105 c 0
376 980 m 1
 247 780 l 1
 147 780 l 1
 226 980 l 1
 376 980 l 1
556 980 m 1
 427 780 l 1
 327 780 l 1
 406 980 l 1
 556 980 l 1
EndSplineSet
Validated: 1
EndChar

StartChar: Omacron
Encoding: 332 332 201
Width: 600
GlyphClass: 1
Flags: W
LayerCount: 2
Fore
SplineSet
300 -10 m 0
 141 -10 30 138 30 350 c 0
 30 562 141 710 300 710 c 0
 459 710 570 562 570 350 c 0
 570 138 459 -10 300 -10 c 0
300 105 m 0
 388 105 445 202 445 350 c 0
 445 498 388 595 300 595 c 0
 212 595 155 498 155 350 c 0
 155 202 212 105 300 105 c 0
140 800 m 1
 140 900 l 1
 460 900 l 1
 460 800 l 1
 140 800 l 1
EndSplineSet
Validated: 1
EndChar

StartChar: uni03A9
Encoding: 937 937 202
Width: 600
GlyphClass: 1
Flags: W
LayerCount: 2
Fore
SplineSet
300 600 m 0
 218 600 155 505 155 382 c 0
 155 280 198 182 270 120 c 1
 270 0 l 1
 37 0 l 1
 37 110 l 1
 162 110 l 1
 162 114 l 1
 81 172 30 278 30 394 c 0
 30 571 148 710 300 710 c 0
 452 710 570 571 570 394 c 0
 570 278 519 172 438 114 c 1
 438 110 l 1
 563 110 l 1
 563 0 l 1
 330 0 l 1
 330 120 l 1
 402 182 445 280 445 382 c 0
 445 505 382 600 300 600 c 0
EndSplineSet
Validated: 1
EndChar

StartChar: Omegatonos
Encoding: 911 911 203
Width: 600
GlyphClass: 1
Flags: W
LayerCount: 2
Fore
SplineSet
300 600 m 0
 218 600 155 505 155 382 c 0
 155 280 198 182 270 120 c 1
 270 0 l 1
 37 0 l 1
 37 110 l 1
 162 110 l 1
 162 114 l 1
 81 172 30 278 30 394 c 0
 30 571 148 710 300 710 c 0
 452 710 570 571 570 394 c 0
 570 278 519 172 438 114 c 1
 438 110 l 1
 563 110 l 1
 563 0 l 1
 330 0 l 1
 330 120 l 1
 402 182 445 280 445 382 c 0
 445 505 382 600 300 600 c 0
110 780 m 1
 31 560 l 1
 -59 560 l 1
 -30 780 l 1
 110 780 l 1
EndSplineSet
Validated: 1
EndChar

StartChar: Omicron
Encoding: 927 927 204
Width: 600
GlyphClass: 1
Flags: W
LayerCount: 2
Fore
SplineSet
300 -10 m 0
 141 -10 30 138 30 350 c 0
 30 562 141 710 300 710 c 0
 459 710 570 562 570 350 c 0
 570 138 459 -10 300 -10 c 0
300 105 m 0
 388 105 445 202 445 350 c 0
 445 498 388 595 300 595 c 0
 212 595 155 498 155 350 c 0
 155 202 212 105 300 105 c 0
EndSplineSet
Validated: 1
EndChar

StartChar: Omicrontonos
Encoding: 908 908 205
Width: 600
GlyphClass: 1
Flags: W
LayerCount: 2
Fore
SplineSet
300 -10 m 0
 141 -10 30 138 30 350 c 0
 30 562 141 710 300 710 c 0
 459 710 570 562 570 350 c 0
 570 138 459 -10 300 -10 c 0
300 105 m 0
 388 105 445 202 445 350 c 0
 445 498 388 595 300 595 c 0
 212 595 155 498 155 350 c 0
 155 202 212 105 300 105 c 0
110 780 m 1
 31 560 l 1
 -59 560 l 1
 -30 780 l 1
 110 780 l 1
EndSplineSet
Validated: 1
EndChar

StartChar: Oslash
Encoding: 216 216 206
Width: 600
GlyphClass: 1
Flags: W
LayerCount: 2
Fore
SplineSet
42 -34 m 1
 108 88 l 1
 59 151 30 242 30 350 c 0
 30 562 141 710 300 710 c 0
 346 710 388 698 424 675 c 1
 479 776 l 1
 559 734 l 1
 493 612 l 1
 542 548 570 457 570 350 c 0
 570 138 459 -10 300 -10 c 0
 254 -10 213 2 176 25 c 1
 122 -76 l 1
 42 -34 l 1
155 350 m 0
 155 297 162 251 176 213 c 1
 369 571 l 1
 349 587 326 595 300 595 c 0
 212 595 155 498 155 350 c 0
300 105 m 0
 388 105 445 202 445 350 c 0
 445 402 438 448 425 485 c 1
 232 128 l 1
 252 113 275 105 300 105 c 0
EndSplineSet
Validated: 1
EndChar

StartChar: Oslashacute
Encoding: 510 510 207
Width: 600
GlyphClass: 1
Flags: W
LayerCount: 2
Fore
SplineSet
42 -34 m 1
 108 88 l 1
 59 151 30 242 30 350 c 0
 30 562 141 710 300 710 c 0
 346 710 388 698 424 675 c 1
 479 776 l 1
 559 734 l 1
 493 612 l 1
 542 548 570 457 570 350 c 0
 570 138 459 -10 300 -10 c 0
 254 -10 213 2 176 25 c 1
 122 -76 l 1
 42 -34 l 1
155 350 m 0
 155 297 162 251 176 213 c 1
 369 571 l 1
 349 587 326 595 300 595 c 0
 212 595 155 498 155 350 c 0
300 105 m 0
 388 105 445 202 445 350 c 0
 445 402 438 448 425 485 c 1
 232 128 l 1
 252 113 275 105 300 105 c 0
452 980 m 1
 323 780 l 1
 223 780 l 1
 302 980 l 1
 452 980 l 1
EndSplineSet
Validated: 1
EndChar

StartChar: Otilde
Encoding: 213 213 208
Width: 600
GlyphClass: 1
Flags: W
LayerCount: 2
Fore
SplineSet
300 -10 m 0
 141 -10 30 138 30 350 c 0
 30 562 141 710 300 710 c 0
 459 710 570 562 570 350 c 0
 570 138 459 -10 300 -10 c 0
300 105 m 0
 388 105 445 202 445 350 c 0
 445 498 388 595 300 595 c 0
 212 595 155 498 155 350 c 0
 155 202 212 105 300 105 c 0
116 799 m 1
 116 832 l 2
 116 914 159 963 232 963 c 0
 327 963 343 878 368 878 c 0
 378 878 382 892 383 928 c 2
 383 949 l 1
 484 949 l 1
 484 916 l 2
 484 834 441 785 368 785 c 0
 273 785 259 870 234 870 c 0
 224 870 218 855 217 820 c 2
 217 799 l 1
 116 799 l 1
EndSplineSet
Validated: 1
EndChar

StartChar: P
Encoding: 80 80 209
Width: 600
GlyphClass: 1
Flags: W
LayerCount: 2
Fore
SplineSet
88 0 m 1
 88 700 l 1
 339 700 l 2
 471 700 563 611 563 485 c 0
 563 359 471 270 339 270 c 2
 213 270 l 1
 213 0 l 1
 88 0 l 1
213 380 m 1
 344 380 l 2
 403 380 443 422 443 485 c 0
 443 548 403 590 344 590 c 2
 213 590 l 1
 213 380 l 1
EndSplineSet
Validated: 1
Substitution2: "+U1VOAGb/Y2IA +Z+VifgAA 72+Zv9O44ho" P.rightS
Substitution2: "+U1VOAGb/Y2IA +Z+VifgAA 71+Zv9O44ho" P.rightM
Substitution2: "+U1VOAGb/Y2IA +Z+VifgAA 70+Zv9O44ho" P.rightL
Substitution2: "+U1VOAGb/Y2IA +Z+VifgAA 69+Zv9O44ho" P.leftS
Substitution2: "+U1VOAGb/Y2IA +Z+VifgAA 68+Zv9O44ho" P.leftM
Substitution2: "+U1VOAGb/Y2IA +Z+VifgAA 67+Zv9O44ho" P.leftL
Substitution2: "+U1VOAGb/Y2IA +Z+VifgAA 66+Zv9O44ho" P.rightS
Substitution2: "+U1VOAGb/Y2IA +Z+VifgAA 65+Zv9O44ho" P.rightM
Substitution2: "+U1VOAGb/Y2IA +Z+VifgAA 64+Zv9O44ho" P.rightS
Substitution2: "+U1VOAGb/Y2IA +Z+VifgAA 63+Zv9O44ho" P.rightM
Substitution2: "+U1VOAGb/Y2IA +Z+VifgAA 62+Zv9O44ho" P.rightL
Substitution2: "+U1VOAGb/Y2IA +Z+VifgAA 61+Zv9O44ho" P.leftS
Substitution2: "+U1VOAGb/Y2IA +Z+VifgAA 60+Zv9O44ho" P.leftM
Substitution2: "+U1VOAGb/Y2IA +Z+VifgAA 59+Zv9O44ho" P.leftL
EndChar

StartChar: P.leftL
Encoding: 65636 -1 210
Width: 600
GlyphClass: 1
Flags: W
LayerCount: 2
Fore
SplineSet
44 0 m 1
 44 700 l 1
 295 700 l 2
 427 700 519 611 519 485 c 0
 519 359 427 270 295 270 c 2
 169 270 l 1
 169 0 l 1
 44 0 l 1
169 380 m 1
 300 380 l 2
 359 380 399 422 399 485 c 0
 399 548 359 590 300 590 c 2
 169 590 l 1
 169 380 l 1
EndSplineSet
Validated: 1
EndChar

StartChar: P.leftM
Encoding: 65637 -1 211
Width: 600
GlyphClass: 1
Flags: W
LayerCount: 2
Fore
SplineSet
58 0 m 1
 58 700 l 1
 309 700 l 2
 441 700 533 611 533 485 c 0
 533 359 441 270 309 270 c 2
 183 270 l 1
 183 0 l 1
 58 0 l 1
183 380 m 1
 314 380 l 2
 373 380 413 422 413 485 c 0
 413 548 373 590 314 590 c 2
 183 590 l 1
 183 380 l 1
EndSplineSet
Validated: 1
EndChar

StartChar: P.leftS
Encoding: 65638 -1 212
Width: 600
GlyphClass: 1
Flags: W
LayerCount: 2
Fore
SplineSet
70 0 m 1
 70 700 l 1
 321 700 l 2
 453 700 545 611 545 485 c 0
 545 359 453 270 321 270 c 2
 195 270 l 1
 195 0 l 1
 70 0 l 1
195 380 m 1
 326 380 l 2
 385 380 425 422 425 485 c 0
 425 548 385 590 326 590 c 2
 195 590 l 1
 195 380 l 1
EndSplineSet
Validated: 1
EndChar

StartChar: P.rightL
Encoding: 65639 -1 213
Width: 600
GlyphClass: 1
Flags: W
LayerCount: 2
Fore
SplineSet
132 0 m 1
 132 700 l 1
 383 700 l 2
 515 700 607 611 607 485 c 0
 607 359 515 270 383 270 c 2
 257 270 l 1
 257 0 l 1
 132 0 l 1
257 380 m 1
 388 380 l 2
 447 380 487 422 487 485 c 0
 487 548 447 590 388 590 c 2
 257 590 l 1
 257 380 l 1
EndSplineSet
Validated: 1
EndChar

StartChar: P.rightM
Encoding: 65640 -1 214
Width: 600
GlyphClass: 1
Flags: W
LayerCount: 2
Fore
SplineSet
118 0 m 1
 118 700 l 1
 369 700 l 2
 501 700 593 611 593 485 c 0
 593 359 501 270 369 270 c 2
 243 270 l 1
 243 0 l 1
 118 0 l 1
243 380 m 1
 374 380 l 2
 433 380 473 422 473 485 c 0
 473 548 433 590 374 590 c 2
 243 590 l 1
 243 380 l 1
EndSplineSet
Validated: 1
EndChar

StartChar: P.rightS
Encoding: 65641 -1 215
Width: 600
GlyphClass: 1
Flags: W
LayerCount: 2
Fore
SplineSet
106 0 m 1
 106 700 l 1
 357 700 l 2
 489 700 581 611 581 485 c 0
 581 359 489 270 357 270 c 2
 231 270 l 1
 231 0 l 1
 106 0 l 1
231 380 m 1
 362 380 l 2
 421 380 461 422 461 485 c 0
 461 548 421 590 362 590 c 2
 231 590 l 1
 231 380 l 1
EndSplineSet
Validated: 1
EndChar

StartChar: Phi
Encoding: 934 934 216
Width: 600
GlyphClass: 1
Flags: W
LayerCount: 2
Fore
SplineSet
360 0 m 1
 240 0 l 1
 240 76 l 1
 114 101 30 207 30 350 c 0
 30 493 114 599 240 624 c 1
 240 700 l 1
 360 700 l 1
 360 624 l 1
 486 599 570 493 570 350 c 0
 570 207 486 101 360 76 c 1
 360 0 l 1
150 350 m 0
 150 274 184 218 240 196 c 1
 240 504 l 1
 184 482 150 426 150 350 c 0
450 350 m 0
 450 426 416 482 360 504 c 1
 360 196 l 1
 416 218 450 274 450 350 c 0
EndSplineSet
Validated: 1
EndChar

StartChar: Pi
Encoding: 928 928 217
Width: 600
GlyphClass: 1
Flags: W
LayerCount: 2
Fore
SplineSet
60 0 m 1
 60 700 l 1
 540 700 l 1
 540 0 l 1
 415 0 l 1
 415 585 l 1
 185 585 l 1
 185 0 l 1
 60 0 l 1
EndSplineSet
Validated: 1
EndChar

StartChar: Psi
Encoding: 936 936 218
Width: 600
GlyphClass: 1
Flags: W
LayerCount: 2
Fore
SplineSet
565 700 m 1
 565 450 l 2
 565 313 486 218 360 195 c 1
 360 0 l 1
 240 0 l 1
 240 195 l 1
 114 218 35 313 35 450 c 2
 35 700 l 1
 155 700 l 1
 155 450 l 2
 155 383 187 335 240 315 c 1
 240 700 l 1
 360 700 l 1
 360 315 l 1
 414 334 445 382 445 450 c 2
 445 700 l 1
 565 700 l 1
EndSplineSet
Validated: 1
EndChar

StartChar: Q
Encoding: 81 81 219
Width: 600
GlyphClass: 1
Flags: W
LayerCount: 2
Fore
SplineSet
549 -71 m 1
 441 37 l 1
 401 7 353 -10 300 -10 c 0
 141 -10 30 138 30 350 c 0
 30 562 141 710 300 710 c 0
 459 710 570 562 570 350 c 0
 570 249 545 162 501 99 c 1
 610 -10 l 1
 549 -71 l 1
300 105 m 0
 321 105 340 111 357 121 c 1
 238 240 l 1
 299 301 l 1
 413 187 l 1
 434 228 445 284 445 350 c 0
 445 498 388 595 300 595 c 0
 212 595 155 498 155 350 c 0
 155 202 212 105 300 105 c 0
EndSplineSet
Validated: 1
Substitution2: "+U1VOAGb/Y2IA +Z+VifgAA 72+Zv9O44ho" Q.rightS
Substitution2: "+U1VOAGb/Y2IA +Z+VifgAA 71+Zv9O44ho" Q.rightM
Substitution2: "+U1VOAGb/Y2IA +Z+VifgAA 70+Zv9O44ho" Q.rightL
Substitution2: "+U1VOAGb/Y2IA +Z+VifgAA 69+Zv9O44ho" Q.leftS
Substitution2: "+U1VOAGb/Y2IA +Z+VifgAA 68+Zv9O44ho" Q.leftM
Substitution2: "+U1VOAGb/Y2IA +Z+VifgAA 67+Zv9O44ho" Q.leftL
Substitution2: "+U1VOAGb/Y2IA +Z+VifgAA 66+Zv9O44ho" Q.rightS
Substitution2: "+U1VOAGb/Y2IA +Z+VifgAA 65+Zv9O44ho" Q.rightM
Substitution2: "+U1VOAGb/Y2IA +Z+VifgAA 64+Zv9O44ho" Q.rightS
Substitution2: "+U1VOAGb/Y2IA +Z+VifgAA 63+Zv9O44ho" Q.rightM
Substitution2: "+U1VOAGb/Y2IA +Z+VifgAA 62+Zv9O44ho" Q.rightL
Substitution2: "+U1VOAGb/Y2IA +Z+VifgAA 61+Zv9O44ho" Q.leftS
Substitution2: "+U1VOAGb/Y2IA +Z+VifgAA 60+Zv9O44ho" Q.leftM
Substitution2: "+U1VOAGb/Y2IA +Z+VifgAA 59+Zv9O44ho" Q.leftL
EndChar

StartChar: Q.leftL
Encoding: 65642 -1 220
Width: 600
GlyphClass: 1
Flags: W
LayerCount: 2
Fore
SplineSet
505 -71 m 1
 397 37 l 1
 357 7 309 -10 256 -10 c 0
 97 -10 -14 138 -14 350 c 0
 -14 562 97 710 256 710 c 0
 415 710 526 562 526 350 c 0
 526 249 501 162 457 99 c 1
 566 -10 l 1
 505 -71 l 1
256 105 m 0
 277 105 296 111 313 121 c 1
 194 240 l 1
 255 301 l 1
 369 187 l 1
 390 228 401 284 401 350 c 0
 401 498 344 595 256 595 c 0
 168 595 111 498 111 350 c 0
 111 202 168 105 256 105 c 0
EndSplineSet
Validated: 1
EndChar

StartChar: Q.leftM
Encoding: 65643 -1 221
Width: 600
GlyphClass: 1
Flags: W
LayerCount: 2
Fore
SplineSet
519 -71 m 1
 411 37 l 1
 371 7 323 -10 270 -10 c 0
 111 -10 0 138 0 350 c 0
 0 562 111 710 270 710 c 0
 429 710 540 562 540 350 c 0
 540 249 515 162 471 99 c 1
 580 -10 l 1
 519 -71 l 1
270 105 m 0
 291 105 310 111 327 121 c 1
 208 240 l 1
 269 301 l 1
 383 187 l 1
 404 228 415 284 415 350 c 0
 415 498 358 595 270 595 c 0
 182 595 125 498 125 350 c 0
 125 202 182 105 270 105 c 0
EndSplineSet
Validated: 1
EndChar

StartChar: Q.leftS
Encoding: 65644 -1 222
Width: 600
GlyphClass: 1
Flags: W
LayerCount: 2
Fore
SplineSet
531 -71 m 1
 423 37 l 1
 383 7 335 -10 282 -10 c 0
 123 -10 12 138 12 350 c 0
 12 562 123 710 282 710 c 0
 441 710 552 562 552 350 c 0
 552 249 527 162 483 99 c 1
 592 -10 l 1
 531 -71 l 1
282 105 m 0
 303 105 322 111 339 121 c 1
 220 240 l 1
 281 301 l 1
 395 187 l 1
 416 228 427 284 427 350 c 0
 427 498 370 595 282 595 c 0
 194 595 137 498 137 350 c 0
 137 202 194 105 282 105 c 0
EndSplineSet
Validated: 1
EndChar

StartChar: Q.rightL
Encoding: 65645 -1 223
Width: 600
GlyphClass: 1
Flags: W
LayerCount: 2
Fore
SplineSet
593 -71 m 1
 485 37 l 1
 445 7 397 -10 344 -10 c 0
 185 -10 74 138 74 350 c 0
 74 562 185 710 344 710 c 0
 503 710 614 562 614 350 c 0
 614 249 589 162 545 99 c 1
 654 -10 l 1
 593 -71 l 1
344 105 m 0
 365 105 384 111 401 121 c 1
 282 240 l 1
 343 301 l 1
 457 187 l 1
 478 228 489 284 489 350 c 0
 489 498 432 595 344 595 c 0
 256 595 199 498 199 350 c 0
 199 202 256 105 344 105 c 0
EndSplineSet
Validated: 1
EndChar

StartChar: Q.rightM
Encoding: 65646 -1 224
Width: 600
GlyphClass: 1
Flags: W
LayerCount: 2
Fore
SplineSet
579 -71 m 1
 471 37 l 1
 431 7 383 -10 330 -10 c 0
 171 -10 60 138 60 350 c 0
 60 562 171 710 330 710 c 0
 489 710 600 562 600 350 c 0
 600 249 575 162 531 99 c 1
 640 -10 l 1
 579 -71 l 1
330 105 m 0
 351 105 370 111 387 121 c 1
 268 240 l 1
 329 301 l 1
 443 187 l 1
 464 228 475 284 475 350 c 0
 475 498 418 595 330 595 c 0
 242 595 185 498 185 350 c 0
 185 202 242 105 330 105 c 0
EndSplineSet
Validated: 1
EndChar

StartChar: Q.rightS
Encoding: 65647 -1 225
Width: 600
GlyphClass: 1
Flags: W
LayerCount: 2
Fore
SplineSet
567 -71 m 1
 459 37 l 1
 419 7 371 -10 318 -10 c 0
 159 -10 48 138 48 350 c 0
 48 562 159 710 318 710 c 0
 477 710 588 562 588 350 c 0
 588 249 563 162 519 99 c 1
 628 -10 l 1
 567 -71 l 1
318 105 m 0
 339 105 358 111 375 121 c 1
 256 240 l 1
 317 301 l 1
 431 187 l 1
 452 228 463 284 463 350 c 0
 463 498 406 595 318 595 c 0
 230 595 173 498 173 350 c 0
 173 202 230 105 318 105 c 0
EndSplineSet
Validated: 1
EndChar

StartChar: R
Encoding: 82 82 226
Width: 600
GlyphClass: 1
Flags: W
LayerCount: 2
Fore
SplineSet
207 400 m 1
 337 400 l 2
 394 400 433 438 433 495 c 0
 433 552 394 590 337 590 c 2
 207 590 l 1
 207 400 l 1
82 0 m 1
 82 700 l 1
 332 700 l 2
 462 700 553 616 553 495 c 0
 553 405 503 336 425 306 c 1
 575 0 l 1
 438 0 l 1
 296 290 l 1
 207 290 l 1
 207 0 l 1
 82 0 l 1
EndSplineSet
Validated: 1
Substitution2: "+U1VOAGb/Y2IA +Z+VifgAA 72+Zv9O44ho" R.rightS
Substitution2: "+U1VOAGb/Y2IA +Z+VifgAA 71+Zv9O44ho" R.rightM
Substitution2: "+U1VOAGb/Y2IA +Z+VifgAA 70+Zv9O44ho" R.rightL
Substitution2: "+U1VOAGb/Y2IA +Z+VifgAA 69+Zv9O44ho" R.leftS
Substitution2: "+U1VOAGb/Y2IA +Z+VifgAA 68+Zv9O44ho" R.leftM
Substitution2: "+U1VOAGb/Y2IA +Z+VifgAA 67+Zv9O44ho" R.leftL
Substitution2: "+U1VOAGb/Y2IA +Z+VifgAA 66+Zv9O44ho" R.rightS
Substitution2: "+U1VOAGb/Y2IA +Z+VifgAA 65+Zv9O44ho" R.rightM
Substitution2: "+U1VOAGb/Y2IA +Z+VifgAA 64+Zv9O44ho" R.rightS
Substitution2: "+U1VOAGb/Y2IA +Z+VifgAA 63+Zv9O44ho" R.rightM
Substitution2: "+U1VOAGb/Y2IA +Z+VifgAA 62+Zv9O44ho" R.rightL
Substitution2: "+U1VOAGb/Y2IA +Z+VifgAA 61+Zv9O44ho" R.leftS
Substitution2: "+U1VOAGb/Y2IA +Z+VifgAA 60+Zv9O44ho" R.leftM
Substitution2: "+U1VOAGb/Y2IA +Z+VifgAA 59+Zv9O44ho" R.leftL
EndChar

StartChar: R.leftL
Encoding: 65648 -1 227
Width: 600
GlyphClass: 1
Flags: W
LayerCount: 2
Fore
SplineSet
163 400 m 1
 293 400 l 2
 350 400 389 438 389 495 c 0
 389 552 350 590 293 590 c 2
 163 590 l 1
 163 400 l 1
38 0 m 1
 38 700 l 1
 288 700 l 2
 418 700 509 616 509 495 c 0
 509 405 459 336 381 306 c 1
 531 0 l 1
 394 0 l 1
 252 290 l 1
 163 290 l 1
 163 0 l 1
 38 0 l 1
EndSplineSet
Validated: 1
EndChar

StartChar: R.leftM
Encoding: 65649 -1 228
Width: 600
GlyphClass: 1
Flags: W
LayerCount: 2
Fore
SplineSet
177 400 m 1
 307 400 l 2
 364 400 403 438 403 495 c 0
 403 552 364 590 307 590 c 2
 177 590 l 1
 177 400 l 1
52 0 m 1
 52 700 l 1
 302 700 l 2
 432 700 523 616 523 495 c 0
 523 405 473 336 395 306 c 1
 545 0 l 1
 408 0 l 1
 266 290 l 1
 177 290 l 1
 177 0 l 1
 52 0 l 1
EndSplineSet
Validated: 1
EndChar

StartChar: R.leftS
Encoding: 65650 -1 229
Width: 600
GlyphClass: 1
Flags: W
LayerCount: 2
Fore
SplineSet
189 400 m 1
 319 400 l 2
 376 400 415 438 415 495 c 0
 415 552 376 590 319 590 c 2
 189 590 l 1
 189 400 l 1
64 0 m 1
 64 700 l 1
 314 700 l 2
 444 700 535 616 535 495 c 0
 535 405 485 336 407 306 c 1
 557 0 l 1
 420 0 l 1
 278 290 l 1
 189 290 l 1
 189 0 l 1
 64 0 l 1
EndSplineSet
Validated: 1
EndChar

StartChar: R.rightL
Encoding: 65651 -1 230
Width: 600
GlyphClass: 1
Flags: W
LayerCount: 2
Fore
SplineSet
251 400 m 1
 381 400 l 2
 438 400 477 438 477 495 c 0
 477 552 438 590 381 590 c 2
 251 590 l 1
 251 400 l 1
126 0 m 1
 126 700 l 1
 376 700 l 2
 506 700 597 616 597 495 c 0
 597 405 547 336 469 306 c 1
 619 0 l 1
 482 0 l 1
 340 290 l 1
 251 290 l 1
 251 0 l 1
 126 0 l 1
EndSplineSet
Validated: 1
EndChar

StartChar: R.rightM
Encoding: 65652 -1 231
Width: 600
GlyphClass: 1
Flags: W
LayerCount: 2
Fore
SplineSet
237 400 m 1
 367 400 l 2
 424 400 463 438 463 495 c 0
 463 552 424 590 367 590 c 2
 237 590 l 1
 237 400 l 1
112 0 m 1
 112 700 l 1
 362 700 l 2
 492 700 583 616 583 495 c 0
 583 405 533 336 455 306 c 1
 605 0 l 1
 468 0 l 1
 326 290 l 1
 237 290 l 1
 237 0 l 1
 112 0 l 1
EndSplineSet
Validated: 1
EndChar

StartChar: R.rightS
Encoding: 65653 -1 232
Width: 600
GlyphClass: 1
Flags: W
LayerCount: 2
Fore
SplineSet
225 400 m 1
 355 400 l 2
 412 400 451 438 451 495 c 0
 451 552 412 590 355 590 c 2
 225 590 l 1
 225 400 l 1
100 0 m 1
 100 700 l 1
 350 700 l 2
 480 700 571 616 571 495 c 0
 571 405 521 336 443 306 c 1
 593 0 l 1
 456 0 l 1
 314 290 l 1
 225 290 l 1
 225 0 l 1
 100 0 l 1
EndSplineSet
Validated: 1
EndChar

StartChar: Racute
Encoding: 340 340 233
Width: 600
GlyphClass: 1
Flags: W
LayerCount: 2
Fore
SplineSet
207 400 m 1
 337 400 l 2
 394 400 433 438 433 495 c 0
 433 552 394 590 337 590 c 2
 207 590 l 1
 207 400 l 1
82 0 m 1
 82 700 l 1
 332 700 l 2
 462 700 553 616 553 495 c 0
 553 405 503 336 425 306 c 1
 575 0 l 1
 438 0 l 1
 296 290 l 1
 207 290 l 1
 207 0 l 1
 82 0 l 1
460 980 m 1
 331 780 l 1
 231 780 l 1
 310 980 l 1
 460 980 l 1
EndSplineSet
Validated: 1
EndChar

StartChar: Rcaron
Encoding: 344 344 234
Width: 600
GlyphClass: 1
Flags: W
LayerCount: 2
Fore
SplineSet
207 400 m 1
 337 400 l 2
 394 400 433 438 433 495 c 0
 433 552 394 590 337 590 c 2
 207 590 l 1
 207 400 l 1
82 0 m 1
 82 700 l 1
 332 700 l 2
 462 700 553 616 553 495 c 0
 553 405 503 336 425 306 c 1
 575 0 l 1
 438 0 l 1
 296 290 l 1
 207 290 l 1
 207 0 l 1
 82 0 l 1
251 771 m 1
 132 971 l 1
 227 971 l 1
 306 869 l 1
 385 971 l 1
 480 971 l 1
 361 771 l 1
 251 771 l 1
EndSplineSet
Validated: 1
EndChar

StartChar: uni0156
Encoding: 342 342 235
Width: 600
GlyphClass: 1
Flags: W
LayerCount: 2
Fore
SplineSet
207 400 m 1
 337 400 l 2
 394 400 433 438 433 495 c 0
 433 552 394 590 337 590 c 2
 207 590 l 1
 207 400 l 1
82 0 m 1
 82 700 l 1
 332 700 l 2
 462 700 553 616 553 495 c 0
 553 405 503 336 425 306 c 1
 575 0 l 1
 438 0 l 1
 296 290 l 1
 207 290 l 1
 207 0 l 1
 82 0 l 1
396 -70 m 1
 267 -270 l 1
 167 -270 l 1
 246 -70 l 1
 396 -70 l 1
EndSplineSet
Validated: 1
EndChar

StartChar: Rho
Encoding: 929 929 236
Width: 600
GlyphClass: 1
Flags: W
LayerCount: 2
Fore
SplineSet
88 0 m 1
 88 700 l 1
 339 700 l 2
 471 700 563 611 563 485 c 0
 563 359 471 270 339 270 c 2
 213 270 l 1
 213 0 l 1
 88 0 l 1
213 380 m 1
 344 380 l 2
 403 380 443 422 443 485 c 0
 443 548 403 590 344 590 c 2
 213 590 l 1
 213 380 l 1
EndSplineSet
Validated: 1
EndChar

StartChar: S
Encoding: 83 83 237
Width: 600
GlyphClass: 1
Flags: W
LayerCount: 2
Fore
SplineSet
56 190 m 1
 172 190 l 1
 179 135 233 96 302 96 c 0
 373 96 421 137 421 197 c 0
 421 249 386 280 313 293 c 2
 273 300 l 2
 136 324 69 389 69 498 c 0
 69 625 161 710 298 710 c 0
 431 710 532 630 537 520 c 1
 421 520 l 1
 415 567 366 600 303 600 c 0
 236 600 191 562 191 506 c 0
 191 458 223 429 289 417 c 2
 329 410 l 2
 472 385 543 317 543 204 c 0
 543 73 448 -14 306 -14 c 0
 165 -14 60 72 56 190 c 1
EndSplineSet
Validated: 1
Substitution2: "+U1VOAGb/Y2IA +Z+VifgAA 72+Zv9O44ho" S.rightS
Substitution2: "+U1VOAGb/Y2IA +Z+VifgAA 71+Zv9O44ho" S.rightM
Substitution2: "+U1VOAGb/Y2IA +Z+VifgAA 70+Zv9O44ho" S.rightL
Substitution2: "+U1VOAGb/Y2IA +Z+VifgAA 69+Zv9O44ho" S.leftS
Substitution2: "+U1VOAGb/Y2IA +Z+VifgAA 68+Zv9O44ho" S.leftM
Substitution2: "+U1VOAGb/Y2IA +Z+VifgAA 67+Zv9O44ho" S.leftL
Substitution2: "+U1VOAGb/Y2IA +Z+VifgAA 66+Zv9O44ho" S.rightS
Substitution2: "+U1VOAGb/Y2IA +Z+VifgAA 65+Zv9O44ho" S.rightM
Substitution2: "+U1VOAGb/Y2IA +Z+VifgAA 64+Zv9O44ho" S.rightS
Substitution2: "+U1VOAGb/Y2IA +Z+VifgAA 63+Zv9O44ho" S.rightM
Substitution2: "+U1VOAGb/Y2IA +Z+VifgAA 62+Zv9O44ho" S.rightL
Substitution2: "+U1VOAGb/Y2IA +Z+VifgAA 61+Zv9O44ho" S.leftS
Substitution2: "+U1VOAGb/Y2IA +Z+VifgAA 60+Zv9O44ho" S.leftM
Substitution2: "+U1VOAGb/Y2IA +Z+VifgAA 59+Zv9O44ho" S.leftL
EndChar

StartChar: S.leftL
Encoding: 65654 -1 238
Width: 600
GlyphClass: 1
Flags: W
LayerCount: 2
Fore
SplineSet
14 190 m 1
 130 190 l 1
 137 135 191 96 260 96 c 0
 331 96 379 137 379 197 c 0
 379 249 344 280 271 293 c 2
 231 300 l 2
 94 324 27 389 27 498 c 0
 27 625 119 710 256 710 c 0
 389 710 490 630 495 520 c 1
 379 520 l 1
 373 567 324 600 261 600 c 0
 194 600 149 562 149 506 c 0
 149 458 181 429 247 417 c 2
 287 410 l 2
 430 385 501 317 501 204 c 0
 501 73 406 -14 264 -14 c 0
 123 -14 18 72 14 190 c 1
EndSplineSet
Validated: 1
EndChar

StartChar: S.leftM
Encoding: 65655 -1 239
Width: 600
GlyphClass: 1
Flags: W
LayerCount: 2
Fore
SplineSet
29 190 m 1
 145 190 l 1
 152 135 206 96 275 96 c 0
 346 96 394 137 394 197 c 0
 394 249 359 280 286 293 c 2
 246 300 l 2
 109 324 42 389 42 498 c 0
 42 625 134 710 271 710 c 0
 404 710 505 630 510 520 c 1
 394 520 l 1
 388 567 339 600 276 600 c 0
 209 600 164 562 164 506 c 0
 164 458 196 429 262 417 c 2
 302 410 l 2
 445 385 516 317 516 204 c 0
 516 73 421 -14 279 -14 c 0
 138 -14 33 72 29 190 c 1
EndSplineSet
Validated: 1
EndChar

StartChar: S.leftS
Encoding: 65656 -1 240
Width: 600
GlyphClass: 1
Flags: W
LayerCount: 2
Fore
SplineSet
44 190 m 1
 160 190 l 1
 167 135 221 96 290 96 c 0
 361 96 409 137 409 197 c 0
 409 249 374 280 301 293 c 2
 261 300 l 2
 124 324 57 389 57 498 c 0
 57 625 149 710 286 710 c 0
 419 710 520 630 525 520 c 1
 409 520 l 1
 403 567 354 600 291 600 c 0
 224 600 179 562 179 506 c 0
 179 458 211 429 277 417 c 2
 317 410 l 2
 460 385 531 317 531 204 c 0
 531 73 436 -14 294 -14 c 0
 153 -14 48 72 44 190 c 1
EndSplineSet
Validated: 1
EndChar

StartChar: S.rightL
Encoding: 65657 -1 241
Width: 600
GlyphClass: 1
Flags: W
LayerCount: 2
Fore
SplineSet
100 190 m 1
 216 190 l 1
 223 135 277 96 346 96 c 0
 417 96 465 137 465 197 c 0
 465 249 430 280 357 293 c 2
 317 300 l 2
 180 324 113 389 113 498 c 0
 113 625 205 710 342 710 c 0
 475 710 576 630 581 520 c 1
 465 520 l 1
 459 567 410 600 347 600 c 0
 280 600 235 562 235 506 c 0
 235 458 267 429 333 417 c 2
 373 410 l 2
 516 385 587 317 587 204 c 0
 587 73 492 -14 350 -14 c 0
 209 -14 104 72 100 190 c 1
EndSplineSet
Validated: 1
EndChar

StartChar: S.rightM
Encoding: 65658 -1 242
Width: 600
GlyphClass: 1
Flags: W
LayerCount: 2
Fore
SplineSet
86 190 m 1
 202 190 l 1
 209 135 263 96 332 96 c 0
 403 96 451 137 451 197 c 0
 451 249 416 280 343 293 c 2
 303 300 l 2
 166 324 99 389 99 498 c 0
 99 625 191 710 328 710 c 0
 461 710 562 630 567 520 c 1
 451 520 l 1
 445 567 396 600 333 600 c 0
 266 600 221 562 221 506 c 0
 221 458 253 429 319 417 c 2
 359 410 l 2
 502 385 573 317 573 204 c 0
 573 73 478 -14 336 -14 c 0
 195 -14 90 72 86 190 c 1
EndSplineSet
Validated: 1
EndChar

StartChar: S.rightS
Encoding: 65659 -1 243
Width: 600
GlyphClass: 1
Flags: W
LayerCount: 2
Fore
SplineSet
68 190 m 1
 184 190 l 1
 191 135 245 96 314 96 c 0
 385 96 433 137 433 197 c 0
 433 249 398 280 325 293 c 2
 285 300 l 2
 148 324 81 389 81 498 c 0
 81 625 173 710 310 710 c 0
 443 710 544 630 549 520 c 1
 433 520 l 1
 427 567 378 600 315 600 c 0
 248 600 203 562 203 506 c 0
 203 458 235 429 301 417 c 2
 341 410 l 2
 484 385 555 317 555 204 c 0
 555 73 460 -14 318 -14 c 0
 177 -14 72 72 68 190 c 1
EndSplineSet
Validated: 1
EndChar

StartChar: Sacute
Encoding: 346 346 244
Width: 600
GlyphClass: 1
Flags: W
LayerCount: 2
Fore
SplineSet
56 190 m 1
 172 190 l 1
 179 135 233 96 302 96 c 0
 373 96 421 137 421 197 c 0
 421 249 386 280 313 293 c 2
 273 300 l 2
 136 324 69 389 69 498 c 0
 69 625 161 710 298 710 c 0
 431 710 532 630 537 520 c 1
 421 520 l 1
 415 567 366 600 303 600 c 0
 236 600 191 562 191 506 c 0
 191 458 223 429 289 417 c 2
 329 410 l 2
 472 385 543 317 543 204 c 0
 543 73 448 -14 306 -14 c 0
 165 -14 60 72 56 190 c 1
449 980 m 1
 320 780 l 1
 220 780 l 1
 299 980 l 1
 449 980 l 1
EndSplineSet
Validated: 1
EndChar

StartChar: Scaron
Encoding: 352 352 245
Width: 600
GlyphClass: 1
Flags: W
LayerCount: 2
Fore
SplineSet
56 190 m 1
 172 190 l 1
 179 135 233 96 302 96 c 0
 373 96 421 137 421 197 c 0
 421 249 386 280 313 293 c 2
 273 300 l 2
 136 324 69 389 69 498 c 0
 69 625 161 710 298 710 c 0
 431 710 532 630 537 520 c 1
 421 520 l 1
 415 567 366 600 303 600 c 0
 236 600 191 562 191 506 c 0
 191 458 223 429 289 417 c 2
 329 410 l 2
 472 385 543 317 543 204 c 0
 543 73 448 -14 306 -14 c 0
 165 -14 60 72 56 190 c 1
240 771 m 1
 121 971 l 1
 216 971 l 1
 295 869 l 1
 374 971 l 1
 469 971 l 1
 350 771 l 1
 240 771 l 1
EndSplineSet
Validated: 1
EndChar

StartChar: Scedilla
Encoding: 350 350 246
Width: 600
GlyphClass: 1
Flags: W
LayerCount: 2
Fore
SplineSet
271 -165 m 1
 273 -191 295 -209 324 -209 c 0
 354 -209 374 -190 374 -163 c 0
 374 -135 353 -116 324 -116 c 0
 310 -116 298 -120 289 -128 c 1
 225 -113 l 1
 243 -8 l 1
 135 13 59 90 56 190 c 1
 172 190 l 1
 179 135 233 96 302 96 c 0
 373 96 421 137 421 197 c 0
 421 249 386 280 313 293 c 2
 273 300 l 2
 136 324 69 389 69 498 c 0
 69 625 161 710 298 710 c 0
 431 710 532 630 537 520 c 1
 421 520 l 1
 415 567 366 600 303 600 c 0
 236 600 191 562 191 506 c 0
 191 458 223 429 289 417 c 2
 329 410 l 2
 472 385 543 317 543 204 c 0
 543 84 463 0 339 -12 c 1
 333 -53 l 1
 404 -43 464 -94 464 -163 c 0
 464 -232 403 -285 323 -285 c 0
 243 -285 182 -233 181 -165 c 1
 271 -165 l 1
EndSplineSet
Validated: 33
EndChar

StartChar: Scircumflex
Encoding: 348 348 247
Width: 600
GlyphClass: 1
Flags: W
LayerCount: 2
Fore
SplineSet
56 190 m 1
 172 190 l 1
 179 135 233 96 302 96 c 0
 373 96 421 137 421 197 c 0
 421 249 386 280 313 293 c 2
 273 300 l 2
 136 324 69 389 69 498 c 0
 69 625 161 710 298 710 c 0
 431 710 532 630 537 520 c 1
 421 520 l 1
 415 567 366 600 303 600 c 0
 236 600 191 562 191 506 c 0
 191 458 223 429 289 417 c 2
 329 410 l 2
 472 385 543 317 543 204 c 0
 543 73 448 -14 306 -14 c 0
 165 -14 60 72 56 190 c 1
121 771 m 1
 240 971 l 1
 350 971 l 1
 469 771 l 1
 374 771 l 1
 295 873 l 1
 216 771 l 1
 121 771 l 1
EndSplineSet
Validated: 1
EndChar

StartChar: uni0218
Encoding: 536 536 248
Width: 600
GlyphClass: 1
Flags: W
LayerCount: 2
Fore
SplineSet
56 190 m 1
 172 190 l 1
 179 135 233 96 302 96 c 0
 373 96 421 137 421 197 c 0
 421 249 386 280 313 293 c 2
 273 300 l 2
 136 324 69 389 69 498 c 0
 69 625 161 710 298 710 c 0
 431 710 532 630 537 520 c 1
 421 520 l 1
 415 567 366 600 303 600 c 0
 236 600 191 562 191 506 c 0
 191 458 223 429 289 417 c 2
 329 410 l 2
 472 385 543 317 543 204 c 0
 543 73 448 -14 306 -14 c 0
 165 -14 60 72 56 190 c 1
376 -70 m 1
 247 -270 l 1
 147 -270 l 1
 226 -70 l 1
 376 -70 l 1
EndSplineSet
Validated: 1
EndChar

StartChar: Sigma
Encoding: 931 931 249
Width: 600
GlyphClass: 1
Flags: W
LayerCount: 2
Fore
SplineSet
50 0 m 1
 50 100 l 1
 295 352 l 1
 56 597 l 1
 56 697 l 1
 529 697 l 1
 529 587 l 1
 229 587 l 1
 457 353 l 1
 221 110 l 1
 550 110 l 1
 550 0 l 1
 50 0 l 1
EndSplineSet
Validated: 1
EndChar

StartChar: T
Encoding: 84 84 250
Width: 600
GlyphClass: 1
Flags: W
LayerCount: 2
Fore
SplineSet
238 0 m 1
 238 590 l 1
 40 590 l 1
 40 700 l 1
 560 700 l 1
 560 590 l 1
 363 590 l 1
 363 0 l 1
 238 0 l 1
EndSplineSet
Validated: 1
Substitution2: "+U1VOAGb/Y2IA +Z+VifgAA 72+Zv9O44ho" T.rightS
Substitution2: "+U1VOAGb/Y2IA +Z+VifgAA 71+Zv9O44ho" T.rightM
Substitution2: "+U1VOAGb/Y2IA +Z+VifgAA 70+Zv9O44ho" T.rightL
Substitution2: "+U1VOAGb/Y2IA +Z+VifgAA 69+Zv9O44ho" T.leftS
Substitution2: "+U1VOAGb/Y2IA +Z+VifgAA 68+Zv9O44ho" T.leftM
Substitution2: "+U1VOAGb/Y2IA +Z+VifgAA 67+Zv9O44ho" T.leftL
Substitution2: "+U1VOAGb/Y2IA +Z+VifgAA 66+Zv9O44ho" T.rightS
Substitution2: "+U1VOAGb/Y2IA +Z+VifgAA 65+Zv9O44ho" T.rightM
Substitution2: "+U1VOAGb/Y2IA +Z+VifgAA 64+Zv9O44ho" T.rightS
Substitution2: "+U1VOAGb/Y2IA +Z+VifgAA 63+Zv9O44ho" T.rightM
Substitution2: "+U1VOAGb/Y2IA +Z+VifgAA 62+Zv9O44ho" T.rightL
Substitution2: "+U1VOAGb/Y2IA +Z+VifgAA 61+Zv9O44ho" T.leftS
Substitution2: "+U1VOAGb/Y2IA +Z+VifgAA 60+Zv9O44ho" T.leftM
Substitution2: "+U1VOAGb/Y2IA +Z+VifgAA 59+Zv9O44ho" T.leftL
EndChar

StartChar: T.leftL
Encoding: 65660 -1 251
Width: 600
GlyphClass: 1
Flags: W
LayerCount: 2
Fore
SplineSet
194 0 m 1
 194 590 l 1
 -4 590 l 1
 -4 700 l 1
 516 700 l 1
 516 590 l 1
 319 590 l 1
 319 0 l 1
 194 0 l 1
EndSplineSet
Validated: 1
EndChar

StartChar: T.leftM
Encoding: 65661 -1 252
Width: 600
GlyphClass: 1
Flags: W
LayerCount: 2
Fore
SplineSet
208 0 m 1
 208 590 l 1
 10 590 l 1
 10 700 l 1
 530 700 l 1
 530 590 l 1
 333 590 l 1
 333 0 l 1
 208 0 l 1
EndSplineSet
Validated: 1
EndChar

StartChar: T.leftS
Encoding: 65662 -1 253
Width: 600
GlyphClass: 1
Flags: W
LayerCount: 2
Fore
SplineSet
220 0 m 1
 220 590 l 1
 22 590 l 1
 22 700 l 1
 542 700 l 1
 542 590 l 1
 345 590 l 1
 345 0 l 1
 220 0 l 1
EndSplineSet
Validated: 1
EndChar

StartChar: T.rightL
Encoding: 65663 -1 254
Width: 600
GlyphClass: 1
Flags: W
LayerCount: 2
Fore
SplineSet
282 0 m 1
 282 590 l 1
 84 590 l 1
 84 700 l 1
 604 700 l 1
 604 590 l 1
 407 590 l 1
 407 0 l 1
 282 0 l 1
EndSplineSet
Validated: 1
EndChar

StartChar: T.rightM
Encoding: 65664 -1 255
Width: 600
GlyphClass: 1
Flags: W
LayerCount: 2
Fore
SplineSet
268 0 m 1
 268 590 l 1
 70 590 l 1
 70 700 l 1
 590 700 l 1
 590 590 l 1
 393 590 l 1
 393 0 l 1
 268 0 l 1
EndSplineSet
Validated: 1
EndChar

StartChar: T.rightS
Encoding: 65665 -1 256
Width: 600
GlyphClass: 1
Flags: W
LayerCount: 2
Fore
SplineSet
256 0 m 1
 256 590 l 1
 58 590 l 1
 58 700 l 1
 578 700 l 1
 578 590 l 1
 381 590 l 1
 381 0 l 1
 256 0 l 1
EndSplineSet
Validated: 1
EndChar

StartChar: Tau
Encoding: 932 932 257
Width: 600
GlyphClass: 1
Flags: W
LayerCount: 2
Fore
SplineSet
238 0 m 1
 238 590 l 1
 40 590 l 1
 40 700 l 1
 560 700 l 1
 560 590 l 1
 363 590 l 1
 363 0 l 1
 238 0 l 1
EndSplineSet
Validated: 1
EndChar

StartChar: Tbar
Encoding: 358 358 258
Width: 600
GlyphClass: 1
Flags: W
LayerCount: 2
Fore
SplineSet
238 0 m 1
 238 275 l 1
 141 275 l 1
 141 375 l 1
 238 375 l 1
 238 590 l 1
 40 590 l 1
 40 700 l 1
 560 700 l 1
 560 590 l 1
 363 590 l 1
 363 375 l 1
 461 375 l 1
 461 275 l 1
 363 275 l 1
 363 0 l 1
 238 0 l 1
EndSplineSet
Validated: 1
EndChar

StartChar: Tcaron
Encoding: 356 356 259
Width: 600
GlyphClass: 1
Flags: W
LayerCount: 2
Fore
SplineSet
238 0 m 1
 238 590 l 1
 40 590 l 1
 40 700 l 1
 560 700 l 1
 560 590 l 1
 363 590 l 1
 363 0 l 1
 238 0 l 1
245 771 m 1
 126 971 l 1
 221 971 l 1
 300 869 l 1
 379 971 l 1
 474 971 l 1
 355 771 l 1
 245 771 l 1
EndSplineSet
Validated: 1
EndChar

StartChar: uni0162
Encoding: 354 354 260
Width: 600
GlyphClass: 1
Flags: W
LayerCount: 2
Fore
SplineSet
238 0 m 1
 238 590 l 1
 40 590 l 1
 40 700 l 1
 560 700 l 1
 560 590 l 1
 363 590 l 1
 363 0 l 1
 349 0 l 1
 341 -53 l 1
 412 -43 472 -94 472 -163 c 0
 472 -232 411 -285 331 -285 c 0
 251 -285 190 -233 189 -165 c 1
 279 -165 l 1
 281 -191 303 -209 332 -209 c 0
 362 -209 382 -190 382 -163 c 0
 382 -135 361 -116 332 -116 c 0
 318 -116 306 -120 297 -128 c 1
 233 -113 l 1
 253 0 l 1
 238 0 l 1
EndSplineSet
Validated: 33
EndChar

StartChar: uni021A
Encoding: 538 538 261
Width: 600
GlyphClass: 1
Flags: W
LayerCount: 2
Fore
SplineSet
238 0 m 1
 238 590 l 1
 40 590 l 1
 40 700 l 1
 560 700 l 1
 560 590 l 1
 363 590 l 1
 363 0 l 1
 238 0 l 1
384 -70 m 1
 255 -270 l 1
 155 -270 l 1
 234 -70 l 1
 384 -70 l 1
EndSplineSet
Validated: 1
EndChar

StartChar: Theta
Encoding: 920 920 262
Width: 600
GlyphClass: 1
Flags: W
LayerCount: 2
Fore
SplineSet
300 -10 m 0
 141 -10 30 138 30 350 c 0
 30 562 141 710 300 710 c 0
 459 710 570 562 570 350 c 0
 570 138 459 -10 300 -10 c 0
300 105 m 0
 388 105 445 202 445 350 c 0
 445 498 388 595 300 595 c 0
 212 595 155 498 155 350 c 0
 155 202 212 105 300 105 c 0
200 295 m 1
 200 405 l 1
 400 405 l 1
 400 295 l 1
 200 295 l 1
EndSplineSet
Validated: 1
EndChar

StartChar: Thorn
Encoding: 222 222 263
Width: 600
GlyphClass: 1
Flags: W
LayerCount: 2
Fore
SplineSet
85 0 m 1
 85 700 l 1
 210 700 l 1
 210 570 l 1
 331 570 l 2
 459 570 550 481 550 355 c 0
 550 229 459 140 331 140 c 2
 210 140 l 1
 210 0 l 1
 85 0 l 1
210 250 m 1
 331 250 l 2
 387 250 425 293 425 355 c 0
 425 417 387 460 331 460 c 2
 210 460 l 1
 210 250 l 1
EndSplineSet
Validated: 1
EndChar

StartChar: U
Encoding: 85 85 264
Width: 600
GlyphClass: 1
Flags: W
LayerCount: 2
Fore
SplineSet
540 700 m 1
 540 220 l 2
 540 87 438 -10 300 -10 c 0
 162 -10 60 87 60 220 c 2
 60 700 l 1
 185 700 l 1
 185 220 l 2
 185 153 233 105 300 105 c 0
 368 105 415 153 415 220 c 2
 415 700 l 1
 540 700 l 1
EndSplineSet
Validated: 1
Substitution2: "+U1VOAGb/Y2IA +Z+VifgAA 72+Zv9O44ho" U.rightS
Substitution2: "+U1VOAGb/Y2IA +Z+VifgAA 71+Zv9O44ho" U.rightM
Substitution2: "+U1VOAGb/Y2IA +Z+VifgAA 70+Zv9O44ho" U.rightL
Substitution2: "+U1VOAGb/Y2IA +Z+VifgAA 69+Zv9O44ho" U.leftS
Substitution2: "+U1VOAGb/Y2IA +Z+VifgAA 68+Zv9O44ho" U.leftM
Substitution2: "+U1VOAGb/Y2IA +Z+VifgAA 67+Zv9O44ho" U.leftL
Substitution2: "+U1VOAGb/Y2IA +Z+VifgAA 66+Zv9O44ho" U.rightS
Substitution2: "+U1VOAGb/Y2IA +Z+VifgAA 65+Zv9O44ho" U.rightM
Substitution2: "+U1VOAGb/Y2IA +Z+VifgAA 64+Zv9O44ho" U.rightS
Substitution2: "+U1VOAGb/Y2IA +Z+VifgAA 63+Zv9O44ho" U.rightM
Substitution2: "+U1VOAGb/Y2IA +Z+VifgAA 62+Zv9O44ho" U.rightL
Substitution2: "+U1VOAGb/Y2IA +Z+VifgAA 61+Zv9O44ho" U.leftS
Substitution2: "+U1VOAGb/Y2IA +Z+VifgAA 60+Zv9O44ho" U.leftM
Substitution2: "+U1VOAGb/Y2IA +Z+VifgAA 59+Zv9O44ho" U.leftL
EndChar

StartChar: U.leftL
Encoding: 65666 -1 265
Width: 600
GlyphClass: 1
Flags: W
LayerCount: 2
Fore
SplineSet
496 700 m 1
 496 220 l 2
 496 87 394 -10 256 -10 c 0
 118 -10 16 87 16 220 c 2
 16 700 l 1
 141 700 l 1
 141 220 l 2
 141 153 189 105 256 105 c 0
 324 105 371 153 371 220 c 2
 371 700 l 1
 496 700 l 1
EndSplineSet
Validated: 1
EndChar

StartChar: U.leftM
Encoding: 65667 -1 266
Width: 600
GlyphClass: 1
Flags: W
LayerCount: 2
Fore
SplineSet
510 700 m 1
 510 220 l 2
 510 87 408 -10 270 -10 c 0
 132 -10 30 87 30 220 c 2
 30 700 l 1
 155 700 l 1
 155 220 l 2
 155 153 203 105 270 105 c 0
 338 105 385 153 385 220 c 2
 385 700 l 1
 510 700 l 1
EndSplineSet
Validated: 1
EndChar

StartChar: U.leftS
Encoding: 65668 -1 267
Width: 600
GlyphClass: 1
Flags: W
LayerCount: 2
Fore
SplineSet
522 700 m 1
 522 220 l 2
 522 87 420 -10 282 -10 c 0
 144 -10 42 87 42 220 c 2
 42 700 l 1
 167 700 l 1
 167 220 l 2
 167 153 215 105 282 105 c 0
 350 105 397 153 397 220 c 2
 397 700 l 1
 522 700 l 1
EndSplineSet
Validated: 1
EndChar

StartChar: U.rightL
Encoding: 65669 -1 268
Width: 600
GlyphClass: 1
Flags: W
LayerCount: 2
Fore
SplineSet
584 700 m 1
 584 220 l 2
 584 87 482 -10 344 -10 c 0
 206 -10 104 87 104 220 c 2
 104 700 l 1
 229 700 l 1
 229 220 l 2
 229 153 277 105 344 105 c 0
 412 105 459 153 459 220 c 2
 459 700 l 1
 584 700 l 1
EndSplineSet
Validated: 1
EndChar

StartChar: U.rightM
Encoding: 65670 -1 269
Width: 600
GlyphClass: 1
Flags: W
LayerCount: 2
Fore
SplineSet
570 700 m 1
 570 220 l 2
 570 87 468 -10 330 -10 c 0
 192 -10 90 87 90 220 c 2
 90 700 l 1
 215 700 l 1
 215 220 l 2
 215 153 263 105 330 105 c 0
 398 105 445 153 445 220 c 2
 445 700 l 1
 570 700 l 1
EndSplineSet
Validated: 1
EndChar

StartChar: U.rightS
Encoding: 65671 -1 270
Width: 600
GlyphClass: 1
Flags: W
LayerCount: 2
Fore
SplineSet
558 700 m 1
 558 220 l 2
 558 87 456 -10 318 -10 c 0
 180 -10 78 87 78 220 c 2
 78 700 l 1
 203 700 l 1
 203 220 l 2
 203 153 251 105 318 105 c 0
 386 105 433 153 433 220 c 2
 433 700 l 1
 558 700 l 1
EndSplineSet
Validated: 1
EndChar

StartChar: Uacute
Encoding: 218 218 271
Width: 600
GlyphClass: 1
Flags: W
LayerCount: 2
Fore
SplineSet
540 700 m 1
 540 220 l 2
 540 87 438 -10 300 -10 c 0
 162 -10 60 87 60 220 c 2
 60 700 l 1
 185 700 l 1
 185 220 l 2
 185 153 233 105 300 105 c 0
 368 105 415 153 415 220 c 2
 415 700 l 1
 540 700 l 1
454 980 m 1
 325 780 l 1
 225 780 l 1
 304 980 l 1
 454 980 l 1
EndSplineSet
Validated: 1
EndChar

StartChar: Ubreve
Encoding: 364 364 272
Width: 600
GlyphClass: 1
Flags: W
LayerCount: 2
Fore
SplineSet
540 700 m 1
 540 220 l 2
 540 87 438 -10 300 -10 c 0
 162 -10 60 87 60 220 c 2
 60 700 l 1
 185 700 l 1
 185 220 l 2
 185 153 233 105 300 105 c 0
 368 105 415 153 415 220 c 2
 415 700 l 1
 540 700 l 1
244 932 m 1
 248 892 270 866 300 866 c 0
 330 866 352 892 356 932 c 1
 451 932 l 1
 451 841 388 776 300 776 c 0
 212 776 149 841 149 932 c 1
 244 932 l 1
EndSplineSet
Validated: 1
EndChar

StartChar: Ucircumflex
Encoding: 219 219 273
Width: 600
GlyphClass: 1
Flags: W
LayerCount: 2
Fore
SplineSet
540 700 m 1
 540 220 l 2
 540 87 438 -10 300 -10 c 0
 162 -10 60 87 60 220 c 2
 60 700 l 1
 185 700 l 1
 185 220 l 2
 185 153 233 105 300 105 c 0
 368 105 415 153 415 220 c 2
 415 700 l 1
 540 700 l 1
126 771 m 1
 245 971 l 1
 355 971 l 1
 474 771 l 1
 379 771 l 1
 300 873 l 1
 221 771 l 1
 126 771 l 1
EndSplineSet
Validated: 1
EndChar

StartChar: Udieresis
Encoding: 220 220 274
Width: 600
GlyphClass: 1
Flags: W
LayerCount: 2
Fore
SplineSet
540 700 m 1
 540 220 l 2
 540 87 438 -10 300 -10 c 0
 162 -10 60 87 60 220 c 2
 60 700 l 1
 185 700 l 1
 185 220 l 2
 185 153 233 105 300 105 c 0
 368 105 415 153 415 220 c 2
 415 700 l 1
 540 700 l 1
106 859 m 0
 106 906 144 943 190 943 c 0
 237 943 274 906 274 859 c 0
 274 813 237 776 190 776 c 0
 144 776 106 813 106 859 c 0
326 859 m 0
 326 906 364 943 410 943 c 0
 457 943 494 906 494 859 c 0
 494 813 457 776 410 776 c 0
 364 776 326 813 326 859 c 0
EndSplineSet
Validated: 1
Substitution2: "'cv03' +W1d7JlPYT1MA-03 +Z+VifgAA 2+Zv9O44ho" Udieresis.square
EndChar

StartChar: Udieresis.square
Encoding: 65672 -1 275
Width: 600
GlyphClass: 1
Flags: W
LayerCount: 2
Fore
SplineSet
540 700 m 1
 540 220 l 2
 540 87 438 -10 300 -10 c 0
 162 -10 60 87 60 220 c 2
 60 700 l 1
 185 700 l 1
 185 220 l 2
 185 153 233 105 300 105 c 0
 368 105 415 153 415 220 c 2
 415 700 l 1
 540 700 l 1
118 775 m 1
 118 920 l 1
 263 920 l 1
 263 775 l 1
 118 775 l 1
338 775 m 1
 338 920 l 1
 483 920 l 1
 483 775 l 1
 338 775 l 1
EndSplineSet
Validated: 1
EndChar

StartChar: Ugrave
Encoding: 217 217 276
Width: 600
GlyphClass: 1
Flags: W
LayerCount: 2
Fore
SplineSet
540 700 m 1
 540 220 l 2
 540 87 438 -10 300 -10 c 0
 162 -10 60 87 60 220 c 2
 60 700 l 1
 185 700 l 1
 185 220 l 2
 185 153 233 105 300 105 c 0
 368 105 415 153 415 220 c 2
 415 700 l 1
 540 700 l 1
375 780 m 1
 275 780 l 1
 146 980 l 1
 296 980 l 1
 375 780 l 1
EndSplineSet
Validated: 1
EndChar

StartChar: Uhungarumlaut
Encoding: 368 368 277
Width: 600
GlyphClass: 1
Flags: W
LayerCount: 2
Fore
SplineSet
540 700 m 1
 540 220 l 2
 540 87 438 -10 300 -10 c 0
 162 -10 60 87 60 220 c 2
 60 700 l 1
 185 700 l 1
 185 220 l 2
 185 153 233 105 300 105 c 0
 368 105 415 153 415 220 c 2
 415 700 l 1
 540 700 l 1
376 980 m 1
 247 780 l 1
 147 780 l 1
 226 980 l 1
 376 980 l 1
556 980 m 1
 427 780 l 1
 327 780 l 1
 406 980 l 1
 556 980 l 1
EndSplineSet
Validated: 1
EndChar

StartChar: Umacron
Encoding: 362 362 278
Width: 600
GlyphClass: 1
Flags: W
LayerCount: 2
Fore
SplineSet
540 700 m 1
 540 220 l 2
 540 87 438 -10 300 -10 c 0
 162 -10 60 87 60 220 c 2
 60 700 l 1
 185 700 l 1
 185 220 l 2
 185 153 233 105 300 105 c 0
 368 105 415 153 415 220 c 2
 415 700 l 1
 540 700 l 1
140 800 m 1
 140 900 l 1
 460 900 l 1
 460 800 l 1
 140 800 l 1
EndSplineSet
Validated: 1
EndChar

StartChar: Uogonek
Encoding: 370 370 279
Width: 600
GlyphClass: 1
Flags: W
LayerCount: 2
Fore
SplineSet
540 700 m 1
 540 220 l 2
 540 122 484 43 399 9 c 1
 380 -6 371 -22 371 -39 c 0
 371 -66 393 -83 425 -83 c 0
 433 -83 442 -82 449 -80 c 1
 449 -163 l 1
 437 -166 421 -168 404 -168 c 0
 325 -168 271 -124 271 -60 c 0
 271 -42 275 -25 284 -10 c 1
 154 -2 60 92 60 220 c 2
 60 700 l 1
 185 700 l 1
 185 220 l 2
 185 153 233 105 300 105 c 0
 368 105 415 153 415 220 c 2
 415 700 l 1
 540 700 l 1
EndSplineSet
Validated: 1
EndChar

StartChar: Upsilon
Encoding: 933 933 280
Width: 600
GlyphClass: 1
Flags: W
LayerCount: 2
Fore
SplineSet
238 0 m 1
 238 294 l 1
 15 700 l 1
 150 700 l 1
 302 414 l 1
 454 700 l 1
 585 700 l 1
 362 294 l 1
 362 0 l 1
 238 0 l 1
EndSplineSet
Validated: 1
EndChar

StartChar: Upsilondieresis
Encoding: 939 939 281
Width: 600
GlyphClass: 1
Flags: W
LayerCount: 2
Fore
SplineSet
238 0 m 1
 238 294 l 1
 15 700 l 1
 150 700 l 1
 302 414 l 1
 454 700 l 1
 585 700 l 1
 362 294 l 1
 362 0 l 1
 238 0 l 1
106 859 m 0
 106 906 144 943 190 943 c 0
 237 943 274 906 274 859 c 0
 274 813 237 776 190 776 c 0
 144 776 106 813 106 859 c 0
326 859 m 0
 326 906 364 943 410 943 c 0
 457 943 494 906 494 859 c 0
 494 813 457 776 410 776 c 0
 364 776 326 813 326 859 c 0
EndSplineSet
Validated: 1
EndChar

StartChar: Upsilontonos
Encoding: 910 910 282
Width: 600
GlyphClass: 1
Flags: W
LayerCount: 2
Fore
SplineSet
238 0 m 1
 238 294 l 1
 16 699 l 1
 -34 560 l 1
 -124 560 l 1
 -95 780 l 1
 45 780 l 1
 16 700 l 1
 150 700 l 1
 302 414 l 1
 454 700 l 1
 585 700 l 1
 362 294 l 1
 362 0 l 1
 238 0 l 1
EndSplineSet
Validated: 1
EndChar

StartChar: Uring
Encoding: 366 366 283
Width: 600
GlyphClass: 1
Flags: W
LayerCount: 2
Fore
SplineSet
540 700 m 1
 540 220 l 2
 540 87 438 -10 300 -10 c 0
 162 -10 60 87 60 220 c 2
 60 700 l 1
 185 700 l 1
 185 220 l 2
 185 153 233 105 300 105 c 0
 368 105 415 153 415 220 c 2
 415 700 l 1
 540 700 l 1
167 888 m 0
 167 960 224 1014 300 1014 c 0
 376 1014 433 960 433 888 c 0
 433 814 374 756 300 756 c 0
 226 756 167 814 167 888 c 0
300 832 m 0
 330 832 352 855 352 885 c 0
 352 915 330 938 300 938 c 0
 270 938 248 915 248 885 c 0
 248 855 270 832 300 832 c 0
EndSplineSet
Validated: 1
EndChar

StartChar: Utilde
Encoding: 360 360 284
Width: 600
GlyphClass: 1
Flags: W
LayerCount: 2
Fore
SplineSet
540 700 m 1
 540 220 l 2
 540 87 438 -10 300 -10 c 0
 162 -10 60 87 60 220 c 2
 60 700 l 1
 185 700 l 1
 185 220 l 2
 185 153 233 105 300 105 c 0
 368 105 415 153 415 220 c 2
 415 700 l 1
 540 700 l 1
116 799 m 1
 116 832 l 2
 116 914 159 963 232 963 c 0
 327 963 343 878 368 878 c 0
 378 878 382 892 383 928 c 2
 383 949 l 1
 484 949 l 1
 484 916 l 2
 484 834 441 785 368 785 c 0
 273 785 259 870 234 870 c 0
 224 870 218 855 217 820 c 2
 217 799 l 1
 116 799 l 1
EndSplineSet
Validated: 1
EndChar

StartChar: V
Encoding: 86 86 285
Width: 600
GlyphClass: 1
Flags: W
LayerCount: 2
Fore
SplineSet
216 0 m 1
 20 700 l 1
 146 700 l 1
 299 134 l 1
 303 134 l 1
 456 700 l 1
 580 700 l 1
 384 0 l 1
 216 0 l 1
EndSplineSet
Validated: 1
Substitution2: "+U1VOAGb/Y2IA +Z+VifgAA 72+Zv9O44ho" V.rightS
Substitution2: "+U1VOAGb/Y2IA +Z+VifgAA 71+Zv9O44ho" V.rightM
Substitution2: "+U1VOAGb/Y2IA +Z+VifgAA 70+Zv9O44ho" V.rightL
Substitution2: "+U1VOAGb/Y2IA +Z+VifgAA 69+Zv9O44ho" V.leftS
Substitution2: "+U1VOAGb/Y2IA +Z+VifgAA 68+Zv9O44ho" V.leftM
Substitution2: "+U1VOAGb/Y2IA +Z+VifgAA 67+Zv9O44ho" V.leftL
Substitution2: "+U1VOAGb/Y2IA +Z+VifgAA 66+Zv9O44ho" V.rightS
Substitution2: "+U1VOAGb/Y2IA +Z+VifgAA 65+Zv9O44ho" V.rightM
Substitution2: "+U1VOAGb/Y2IA +Z+VifgAA 64+Zv9O44ho" V.rightS
Substitution2: "+U1VOAGb/Y2IA +Z+VifgAA 63+Zv9O44ho" V.rightM
Substitution2: "+U1VOAGb/Y2IA +Z+VifgAA 62+Zv9O44ho" V.rightL
Substitution2: "+U1VOAGb/Y2IA +Z+VifgAA 61+Zv9O44ho" V.leftS
Substitution2: "+U1VOAGb/Y2IA +Z+VifgAA 60+Zv9O44ho" V.leftM
Substitution2: "+U1VOAGb/Y2IA +Z+VifgAA 59+Zv9O44ho" V.leftL
EndChar

StartChar: V.leftL
Encoding: 65673 -1 286
Width: 600
GlyphClass: 1
Flags: W
LayerCount: 2
Fore
SplineSet
174 0 m 1
 -22 700 l 1
 104 700 l 1
 257 134 l 1
 261 134 l 1
 414 700 l 1
 538 700 l 1
 342 0 l 1
 174 0 l 1
EndSplineSet
Validated: 1
EndChar

StartChar: V.leftM
Encoding: 65674 -1 287
Width: 600
GlyphClass: 1
Flags: W
LayerCount: 2
Fore
SplineSet
189 0 m 1
 -7 700 l 1
 119 700 l 1
 272 134 l 1
 276 134 l 1
 429 700 l 1
 553 700 l 1
 357 0 l 1
 189 0 l 1
EndSplineSet
Validated: 1
EndChar

StartChar: V.leftS
Encoding: 65675 -1 288
Width: 600
GlyphClass: 1
Flags: W
LayerCount: 2
Fore
SplineSet
204 0 m 1
 8 700 l 1
 134 700 l 1
 287 134 l 1
 291 134 l 1
 444 700 l 1
 568 700 l 1
 372 0 l 1
 204 0 l 1
EndSplineSet
Validated: 1
EndChar

StartChar: V.rightL
Encoding: 65676 -1 289
Width: 600
GlyphClass: 1
Flags: W
LayerCount: 2
Fore
SplineSet
258 0 m 1
 62 700 l 1
 188 700 l 1
 341 134 l 1
 345 134 l 1
 498 700 l 1
 622 700 l 1
 426 0 l 1
 258 0 l 1
EndSplineSet
Validated: 1
EndChar

StartChar: V.rightM
Encoding: 65677 -1 290
Width: 600
GlyphClass: 1
Flags: W
LayerCount: 2
Fore
SplineSet
243 0 m 1
 47 700 l 1
 173 700 l 1
 326 134 l 1
 330 134 l 1
 483 700 l 1
 607 700 l 1
 411 0 l 1
 243 0 l 1
EndSplineSet
Validated: 1
EndChar

StartChar: V.rightS
Encoding: 65678 -1 291
Width: 600
GlyphClass: 1
Flags: W
LayerCount: 2
Fore
SplineSet
228 0 m 1
 32 700 l 1
 158 700 l 1
 311 134 l 1
 315 134 l 1
 468 700 l 1
 592 700 l 1
 396 0 l 1
 228 0 l 1
EndSplineSet
Validated: 1
EndChar

StartChar: W
Encoding: 87 87 292
Width: 600
GlyphClass: 1
Flags: W
LayerCount: 2
Fore
SplineSet
51 0 m 1
 -10 700 l 1
 105 700 l 1
 144 181 l 1
 148 181 l 1
 252 600 l 1
 348 600 l 1
 452 181 l 1
 456 181 l 1
 495 700 l 1
 610 700 l 1
 549 0 l 1
 403 0 l 1
 302 409 l 1
 298 409 l 1
 197 0 l 1
 51 0 l 1
EndSplineSet
Validated: 1
Substitution2: "+U1VOAGb/Y2IA +Z+VifgAA 72+Zv9O44ho" W.rightS
Substitution2: "+U1VOAGb/Y2IA +Z+VifgAA 71+Zv9O44ho" W.rightM
Substitution2: "+U1VOAGb/Y2IA +Z+VifgAA 70+Zv9O44ho" W.rightL
Substitution2: "+U1VOAGb/Y2IA +Z+VifgAA 69+Zv9O44ho" W.leftS
Substitution2: "+U1VOAGb/Y2IA +Z+VifgAA 68+Zv9O44ho" W.leftM
Substitution2: "+U1VOAGb/Y2IA +Z+VifgAA 67+Zv9O44ho" W.leftL
Substitution2: "+U1VOAGb/Y2IA +Z+VifgAA 66+Zv9O44ho" W.rightS
Substitution2: "+U1VOAGb/Y2IA +Z+VifgAA 65+Zv9O44ho" W.rightM
Substitution2: "+U1VOAGb/Y2IA +Z+VifgAA 64+Zv9O44ho" W.rightS
Substitution2: "+U1VOAGb/Y2IA +Z+VifgAA 63+Zv9O44ho" W.rightM
Substitution2: "+U1VOAGb/Y2IA +Z+VifgAA 62+Zv9O44ho" W.rightL
Substitution2: "+U1VOAGb/Y2IA +Z+VifgAA 61+Zv9O44ho" W.leftS
Substitution2: "+U1VOAGb/Y2IA +Z+VifgAA 60+Zv9O44ho" W.leftM
Substitution2: "+U1VOAGb/Y2IA +Z+VifgAA 59+Zv9O44ho" W.leftL
EndChar

StartChar: W.leftL
Encoding: 65679 -1 293
Width: 600
GlyphClass: 1
Flags: W
LayerCount: 2
Fore
SplineSet
7 0 m 1
 -54 700 l 1
 61 700 l 1
 100 181 l 1
 104 181 l 1
 208 600 l 1
 304 600 l 1
 408 181 l 1
 412 181 l 1
 451 700 l 1
 566 700 l 1
 505 0 l 1
 359 0 l 1
 258 409 l 1
 254 409 l 1
 153 0 l 1
 7 0 l 1
EndSplineSet
Validated: 1
EndChar

StartChar: W.leftM
Encoding: 65680 -1 294
Width: 600
GlyphClass: 1
Flags: W
LayerCount: 2
Fore
SplineSet
21 0 m 1
 -40 700 l 1
 75 700 l 1
 114 181 l 1
 118 181 l 1
 222 600 l 1
 318 600 l 1
 422 181 l 1
 426 181 l 1
 465 700 l 1
 580 700 l 1
 519 0 l 1
 373 0 l 1
 272 409 l 1
 268 409 l 1
 167 0 l 1
 21 0 l 1
EndSplineSet
Validated: 1
EndChar

StartChar: W.leftS
Encoding: 65681 -1 295
Width: 600
GlyphClass: 1
Flags: W
LayerCount: 2
Fore
SplineSet
33 0 m 1
 -28 700 l 1
 87 700 l 1
 126 181 l 1
 130 181 l 1
 234 600 l 1
 330 600 l 1
 434 181 l 1
 438 181 l 1
 477 700 l 1
 592 700 l 1
 531 0 l 1
 385 0 l 1
 284 409 l 1
 280 409 l 1
 179 0 l 1
 33 0 l 1
EndSplineSet
Validated: 1
EndChar

StartChar: W.rightL
Encoding: 65682 -1 296
Width: 600
GlyphClass: 1
Flags: W
LayerCount: 2
Fore
SplineSet
95 0 m 1
 34 700 l 1
 149 700 l 1
 188 181 l 1
 192 181 l 1
 296 600 l 1
 392 600 l 1
 496 181 l 1
 500 181 l 1
 539 700 l 1
 654 700 l 1
 593 0 l 1
 447 0 l 1
 346 409 l 1
 342 409 l 1
 241 0 l 1
 95 0 l 1
EndSplineSet
Validated: 1
EndChar

StartChar: W.rightM
Encoding: 65683 -1 297
Width: 600
GlyphClass: 1
Flags: W
LayerCount: 2
Fore
SplineSet
81 0 m 1
 20 700 l 1
 135 700 l 1
 174 181 l 1
 178 181 l 1
 282 600 l 1
 378 600 l 1
 482 181 l 1
 486 181 l 1
 525 700 l 1
 640 700 l 1
 579 0 l 1
 433 0 l 1
 332 409 l 1
 328 409 l 1
 227 0 l 1
 81 0 l 1
EndSplineSet
Validated: 1
EndChar

StartChar: W.rightS
Encoding: 65684 -1 298
Width: 600
GlyphClass: 1
Flags: W
LayerCount: 2
Fore
SplineSet
69 0 m 1
 8 700 l 1
 123 700 l 1
 162 181 l 1
 166 181 l 1
 270 600 l 1
 366 600 l 1
 470 181 l 1
 474 181 l 1
 513 700 l 1
 628 700 l 1
 567 0 l 1
 421 0 l 1
 320 409 l 1
 316 409 l 1
 215 0 l 1
 69 0 l 1
EndSplineSet
Validated: 1
EndChar

StartChar: Wacute
Encoding: 7810 7810 299
Width: 600
GlyphClass: 1
Flags: W
LayerCount: 2
Fore
SplineSet
51 0 m 1
 -10 700 l 1
 105 700 l 1
 144 181 l 1
 148 181 l 1
 252 600 l 1
 348 600 l 1
 452 181 l 1
 456 181 l 1
 495 700 l 1
 610 700 l 1
 549 0 l 1
 403 0 l 1
 302 409 l 1
 298 409 l 1
 197 0 l 1
 51 0 l 1
454 980 m 1
 325 780 l 1
 225 780 l 1
 304 980 l 1
 454 980 l 1
EndSplineSet
Validated: 1
EndChar

StartChar: Wcircumflex
Encoding: 372 372 300
Width: 600
GlyphClass: 1
Flags: W
LayerCount: 2
Fore
SplineSet
51 0 m 1
 -10 700 l 1
 105 700 l 1
 144 181 l 1
 148 181 l 1
 252 600 l 1
 348 600 l 1
 452 181 l 1
 456 181 l 1
 495 700 l 1
 610 700 l 1
 549 0 l 1
 403 0 l 1
 302 409 l 1
 298 409 l 1
 197 0 l 1
 51 0 l 1
126 771 m 1
 245 971 l 1
 355 971 l 1
 474 771 l 1
 379 771 l 1
 300 873 l 1
 221 771 l 1
 126 771 l 1
EndSplineSet
Validated: 1
EndChar

StartChar: Wdieresis
Encoding: 7812 7812 301
Width: 600
GlyphClass: 1
Flags: W
LayerCount: 2
Fore
SplineSet
51 0 m 1
 -10 700 l 1
 105 700 l 1
 144 181 l 1
 148 181 l 1
 252 600 l 1
 348 600 l 1
 452 181 l 1
 456 181 l 1
 495 700 l 1
 610 700 l 1
 549 0 l 1
 403 0 l 1
 302 409 l 1
 298 409 l 1
 197 0 l 1
 51 0 l 1
106 859 m 0
 106 906 144 943 190 943 c 0
 237 943 274 906 274 859 c 0
 274 813 237 776 190 776 c 0
 144 776 106 813 106 859 c 0
326 859 m 0
 326 906 364 943 410 943 c 0
 457 943 494 906 494 859 c 0
 494 813 457 776 410 776 c 0
 364 776 326 813 326 859 c 0
EndSplineSet
Validated: 1
Substitution2: "'cv03' +W1d7JlPYT1MA-03 +Z+VifgAA 2+Zv9O44ho" Wdieresis.square
EndChar

StartChar: Wdieresis.square
Encoding: 65685 -1 302
Width: 600
GlyphClass: 1
Flags: W
LayerCount: 2
Fore
SplineSet
51 0 m 1
 -10 700 l 1
 105 700 l 1
 144 181 l 1
 148 181 l 1
 252 600 l 1
 348 600 l 1
 452 181 l 1
 456 181 l 1
 495 700 l 1
 610 700 l 1
 549 0 l 1
 403 0 l 1
 302 409 l 1
 298 409 l 1
 197 0 l 1
 51 0 l 1
118 775 m 1
 118 920 l 1
 263 920 l 1
 263 775 l 1
 118 775 l 1
338 775 m 1
 338 920 l 1
 483 920 l 1
 483 775 l 1
 338 775 l 1
EndSplineSet
Validated: 1
EndChar

StartChar: Wgrave
Encoding: 7808 7808 303
Width: 600
GlyphClass: 1
Flags: W
LayerCount: 2
Fore
SplineSet
51 0 m 1
 -10 700 l 1
 105 700 l 1
 144 181 l 1
 148 181 l 1
 252 600 l 1
 348 600 l 1
 452 181 l 1
 456 181 l 1
 495 700 l 1
 610 700 l 1
 549 0 l 1
 403 0 l 1
 302 409 l 1
 298 409 l 1
 197 0 l 1
 51 0 l 1
375 780 m 1
 275 780 l 1
 146 980 l 1
 296 980 l 1
 375 780 l 1
EndSplineSet
Validated: 1
EndChar

StartChar: X
Encoding: 88 88 304
Width: 600
GlyphClass: 1
Flags: W
LayerCount: 2
Fore
SplineSet
5 0 m 1
 225 365 l 1
 21 700 l 1
 160 700 l 1
 300 470 l 1
 440 700 l 1
 577 700 l 1
 374 367 l 1
 595 0 l 1
 456 0 l 1
 299 261 l 1
 142 0 l 1
 5 0 l 1
EndSplineSet
Validated: 1
Substitution2: "+U1VOAGb/Y2IA +Z+VifgAA 72+Zv9O44ho" X.rightS
Substitution2: "+U1VOAGb/Y2IA +Z+VifgAA 71+Zv9O44ho" X.rightM
Substitution2: "+U1VOAGb/Y2IA +Z+VifgAA 70+Zv9O44ho" X.rightL
Substitution2: "+U1VOAGb/Y2IA +Z+VifgAA 69+Zv9O44ho" X.leftS
Substitution2: "+U1VOAGb/Y2IA +Z+VifgAA 68+Zv9O44ho" X.leftM
Substitution2: "+U1VOAGb/Y2IA +Z+VifgAA 67+Zv9O44ho" X.leftL
Substitution2: "+U1VOAGb/Y2IA +Z+VifgAA 66+Zv9O44ho" X.rightS
Substitution2: "+U1VOAGb/Y2IA +Z+VifgAA 65+Zv9O44ho" X.rightM
Substitution2: "+U1VOAGb/Y2IA +Z+VifgAA 64+Zv9O44ho" X.rightS
Substitution2: "+U1VOAGb/Y2IA +Z+VifgAA 63+Zv9O44ho" X.rightM
Substitution2: "+U1VOAGb/Y2IA +Z+VifgAA 62+Zv9O44ho" X.rightL
Substitution2: "+U1VOAGb/Y2IA +Z+VifgAA 61+Zv9O44ho" X.leftS
Substitution2: "+U1VOAGb/Y2IA +Z+VifgAA 60+Zv9O44ho" X.leftM
Substitution2: "+U1VOAGb/Y2IA +Z+VifgAA 59+Zv9O44ho" X.leftL
EndChar

StartChar: X.leftL
Encoding: 65686 -1 305
Width: 600
GlyphClass: 1
Flags: W
LayerCount: 2
Fore
SplineSet
-39 0 m 1
 181 365 l 1
 -23 700 l 1
 116 700 l 1
 256 470 l 1
 396 700 l 1
 533 700 l 1
 330 367 l 1
 551 0 l 1
 412 0 l 1
 255 261 l 1
 98 0 l 1
 -39 0 l 1
EndSplineSet
Validated: 1
EndChar

StartChar: X.leftM
Encoding: 65687 -1 306
Width: 600
GlyphClass: 1
Flags: W
LayerCount: 2
Fore
SplineSet
-25 0 m 1
 195 365 l 1
 -9 700 l 1
 130 700 l 1
 270 470 l 1
 410 700 l 1
 547 700 l 1
 344 367 l 1
 565 0 l 1
 426 0 l 1
 269 261 l 1
 112 0 l 1
 -25 0 l 1
EndSplineSet
Validated: 1
EndChar

StartChar: X.leftS
Encoding: 65688 -1 307
Width: 600
GlyphClass: 1
Flags: W
LayerCount: 2
Fore
SplineSet
-13 0 m 1
 207 365 l 1
 3 700 l 1
 142 700 l 1
 282 470 l 1
 422 700 l 1
 559 700 l 1
 356 367 l 1
 577 0 l 1
 438 0 l 1
 281 261 l 1
 124 0 l 1
 -13 0 l 1
EndSplineSet
Validated: 1
EndChar

StartChar: X.rightL
Encoding: 65689 -1 308
Width: 600
GlyphClass: 1
Flags: W
LayerCount: 2
Fore
SplineSet
49 0 m 1
 269 365 l 1
 65 700 l 1
 204 700 l 1
 344 470 l 1
 484 700 l 1
 621 700 l 1
 418 367 l 1
 639 0 l 1
 500 0 l 1
 343 261 l 1
 186 0 l 1
 49 0 l 1
EndSplineSet
Validated: 1
EndChar

StartChar: X.rightM
Encoding: 65690 -1 309
Width: 600
GlyphClass: 1
Flags: W
LayerCount: 2
Fore
SplineSet
35 0 m 1
 255 365 l 1
 51 700 l 1
 190 700 l 1
 330 470 l 1
 470 700 l 1
 607 700 l 1
 404 367 l 1
 625 0 l 1
 486 0 l 1
 329 261 l 1
 172 0 l 1
 35 0 l 1
EndSplineSet
Validated: 1
EndChar

StartChar: X.rightS
Encoding: 65691 -1 310
Width: 600
GlyphClass: 1
Flags: W
LayerCount: 2
Fore
SplineSet
23 0 m 1
 243 365 l 1
 39 700 l 1
 178 700 l 1
 318 470 l 1
 458 700 l 1
 595 700 l 1
 392 367 l 1
 613 0 l 1
 474 0 l 1
 317 261 l 1
 160 0 l 1
 23 0 l 1
EndSplineSet
Validated: 1
EndChar

StartChar: Xi
Encoding: 926 926 311
Width: 600
GlyphClass: 1
Flags: W
LayerCount: 2
Fore
SplineSet
73 0 m 1
 73 110 l 1
 527 110 l 1
 527 0 l 1
 73 0 l 1
110 308 m 1
 110 418 l 1
 490 418 l 1
 490 308 l 1
 110 308 l 1
73 590 m 1
 73 700 l 1
 527 700 l 1
 527 590 l 1
 73 590 l 1
EndSplineSet
Validated: 1
EndChar

StartChar: Y
Encoding: 89 89 312
Width: 600
GlyphClass: 1
Flags: W
LayerCount: 2
Fore
SplineSet
238 0 m 1
 238 294 l 1
 15 700 l 1
 150 700 l 1
 302 414 l 1
 454 700 l 1
 585 700 l 1
 362 294 l 1
 362 0 l 1
 238 0 l 1
EndSplineSet
Validated: 1
Substitution2: "+U1VOAGb/Y2IA +Z+VifgAA 72+Zv9O44ho" Y.rightS
Substitution2: "+U1VOAGb/Y2IA +Z+VifgAA 71+Zv9O44ho" Y.rightM
Substitution2: "+U1VOAGb/Y2IA +Z+VifgAA 70+Zv9O44ho" Y.rightL
Substitution2: "+U1VOAGb/Y2IA +Z+VifgAA 69+Zv9O44ho" Y.leftS
Substitution2: "+U1VOAGb/Y2IA +Z+VifgAA 68+Zv9O44ho" Y.leftM
Substitution2: "+U1VOAGb/Y2IA +Z+VifgAA 67+Zv9O44ho" Y.leftL
Substitution2: "+U1VOAGb/Y2IA +Z+VifgAA 66+Zv9O44ho" Y.rightS
Substitution2: "+U1VOAGb/Y2IA +Z+VifgAA 65+Zv9O44ho" Y.rightM
Substitution2: "+U1VOAGb/Y2IA +Z+VifgAA 64+Zv9O44ho" Y.rightS
Substitution2: "+U1VOAGb/Y2IA +Z+VifgAA 63+Zv9O44ho" Y.rightM
Substitution2: "+U1VOAGb/Y2IA +Z+VifgAA 62+Zv9O44ho" Y.rightL
Substitution2: "+U1VOAGb/Y2IA +Z+VifgAA 61+Zv9O44ho" Y.leftS
Substitution2: "+U1VOAGb/Y2IA +Z+VifgAA 60+Zv9O44ho" Y.leftM
Substitution2: "+U1VOAGb/Y2IA +Z+VifgAA 59+Zv9O44ho" Y.leftL
EndChar

StartChar: Y.leftL
Encoding: 65692 -1 313
Width: 600
GlyphClass: 1
Flags: W
LayerCount: 2
Fore
SplineSet
194 0 m 1
 194 294 l 1
 -29 700 l 1
 106 700 l 1
 258 414 l 1
 410 700 l 1
 541 700 l 1
 318 294 l 1
 318 0 l 1
 194 0 l 1
EndSplineSet
Validated: 1
EndChar

StartChar: Y.leftM
Encoding: 65693 -1 314
Width: 600
GlyphClass: 1
Flags: W
LayerCount: 2
Fore
SplineSet
208 0 m 1
 208 294 l 1
 -15 700 l 1
 120 700 l 1
 272 414 l 1
 424 700 l 1
 555 700 l 1
 332 294 l 1
 332 0 l 1
 208 0 l 1
EndSplineSet
Validated: 1
EndChar

StartChar: Y.leftS
Encoding: 65694 -1 315
Width: 600
GlyphClass: 1
Flags: W
LayerCount: 2
Fore
SplineSet
220 0 m 1
 220 294 l 1
 -3 700 l 1
 132 700 l 1
 284 414 l 1
 436 700 l 1
 567 700 l 1
 344 294 l 1
 344 0 l 1
 220 0 l 1
EndSplineSet
Validated: 1
EndChar

StartChar: Y.rightL
Encoding: 65695 -1 316
Width: 600
GlyphClass: 1
Flags: W
LayerCount: 2
Fore
SplineSet
282 0 m 1
 282 294 l 1
 59 700 l 1
 194 700 l 1
 346 414 l 1
 498 700 l 1
 629 700 l 1
 406 294 l 1
 406 0 l 1
 282 0 l 1
EndSplineSet
Validated: 1
EndChar

StartChar: Y.rightM
Encoding: 65696 -1 317
Width: 600
GlyphClass: 1
Flags: W
LayerCount: 2
Fore
SplineSet
268 0 m 1
 268 294 l 1
 45 700 l 1
 180 700 l 1
 332 414 l 1
 484 700 l 1
 615 700 l 1
 392 294 l 1
 392 0 l 1
 268 0 l 1
EndSplineSet
Validated: 1
EndChar

StartChar: Y.rightS
Encoding: 65697 -1 318
Width: 600
GlyphClass: 1
Flags: W
LayerCount: 2
Fore
SplineSet
256 0 m 1
 256 294 l 1
 33 700 l 1
 168 700 l 1
 320 414 l 1
 472 700 l 1
 603 700 l 1
 380 294 l 1
 380 0 l 1
 256 0 l 1
EndSplineSet
Validated: 1
EndChar

StartChar: Yacute
Encoding: 221 221 319
Width: 600
GlyphClass: 1
Flags: W
LayerCount: 2
Fore
SplineSet
238 0 m 1
 238 294 l 1
 15 700 l 1
 150 700 l 1
 302 414 l 1
 454 700 l 1
 585 700 l 1
 362 294 l 1
 362 0 l 1
 238 0 l 1
454 980 m 1
 325 780 l 1
 225 780 l 1
 304 980 l 1
 454 980 l 1
EndSplineSet
Validated: 1
EndChar

StartChar: Ycircumflex
Encoding: 374 374 320
Width: 600
GlyphClass: 1
Flags: W
LayerCount: 2
Fore
SplineSet
238 0 m 1
 238 294 l 1
 15 700 l 1
 150 700 l 1
 302 414 l 1
 454 700 l 1
 585 700 l 1
 362 294 l 1
 362 0 l 1
 238 0 l 1
126 771 m 1
 245 971 l 1
 355 971 l 1
 474 771 l 1
 379 771 l 1
 300 873 l 1
 221 771 l 1
 126 771 l 1
EndSplineSet
Validated: 1
EndChar

StartChar: Ydieresis
Encoding: 376 376 321
Width: 600
GlyphClass: 1
Flags: W
LayerCount: 2
Fore
SplineSet
238 0 m 1
 238 294 l 1
 15 700 l 1
 150 700 l 1
 302 414 l 1
 454 700 l 1
 585 700 l 1
 362 294 l 1
 362 0 l 1
 238 0 l 1
106 859 m 0
 106 906 144 943 190 943 c 0
 237 943 274 906 274 859 c 0
 274 813 237 776 190 776 c 0
 144 776 106 813 106 859 c 0
326 859 m 0
 326 906 364 943 410 943 c 0
 457 943 494 906 494 859 c 0
 494 813 457 776 410 776 c 0
 364 776 326 813 326 859 c 0
EndSplineSet
Validated: 1
Substitution2: "'cv03' +W1d7JlPYT1MA-03 +Z+VifgAA 2+Zv9O44ho" Ydieresis.square
EndChar

StartChar: Ydieresis.square
Encoding: 65698 -1 322
Width: 600
GlyphClass: 1
Flags: W
LayerCount: 2
Fore
SplineSet
238 0 m 1
 238 294 l 1
 15 700 l 1
 150 700 l 1
 302 414 l 1
 454 700 l 1
 585 700 l 1
 362 294 l 1
 362 0 l 1
 238 0 l 1
118 775 m 1
 118 920 l 1
 263 920 l 1
 263 775 l 1
 118 775 l 1
338 775 m 1
 338 920 l 1
 483 920 l 1
 483 775 l 1
 338 775 l 1
EndSplineSet
Validated: 1
EndChar

StartChar: Ygrave
Encoding: 7922 7922 323
Width: 600
GlyphClass: 1
Flags: W
LayerCount: 2
Fore
SplineSet
238 0 m 1
 238 294 l 1
 15 700 l 1
 150 700 l 1
 302 414 l 1
 454 700 l 1
 585 700 l 1
 362 294 l 1
 362 0 l 1
 238 0 l 1
375 780 m 1
 275 780 l 1
 146 980 l 1
 296 980 l 1
 375 780 l 1
EndSplineSet
Validated: 1
EndChar

StartChar: Z
Encoding: 90 90 324
Width: 600
GlyphClass: 1
Flags: W
LayerCount: 2
Fore
SplineSet
50 0 m 1
 50 100 l 1
 381 590 l 1
 60 590 l 1
 60 700 l 1
 533 700 l 1
 533 600 l 1
 202 110 l 1
 550 110 l 1
 550 0 l 1
 50 0 l 1
EndSplineSet
Validated: 1
Substitution2: "+U1VOAGb/Y2IA +Z+VifgAA 72+Zv9O44ho" Z.rightS
Substitution2: "+U1VOAGb/Y2IA +Z+VifgAA 71+Zv9O44ho" Z.rightM
Substitution2: "+U1VOAGb/Y2IA +Z+VifgAA 70+Zv9O44ho" Z.rightL
Substitution2: "+U1VOAGb/Y2IA +Z+VifgAA 69+Zv9O44ho" Z.leftS
Substitution2: "+U1VOAGb/Y2IA +Z+VifgAA 68+Zv9O44ho" Z.leftM
Substitution2: "+U1VOAGb/Y2IA +Z+VifgAA 67+Zv9O44ho" Z.leftL
Substitution2: "+U1VOAGb/Y2IA +Z+VifgAA 66+Zv9O44ho" Z.rightS
Substitution2: "+U1VOAGb/Y2IA +Z+VifgAA 65+Zv9O44ho" Z.rightM
Substitution2: "+U1VOAGb/Y2IA +Z+VifgAA 64+Zv9O44ho" Z.rightS
Substitution2: "+U1VOAGb/Y2IA +Z+VifgAA 63+Zv9O44ho" Z.rightM
Substitution2: "+U1VOAGb/Y2IA +Z+VifgAA 62+Zv9O44ho" Z.rightL
Substitution2: "+U1VOAGb/Y2IA +Z+VifgAA 61+Zv9O44ho" Z.leftS
Substitution2: "+U1VOAGb/Y2IA +Z+VifgAA 60+Zv9O44ho" Z.leftM
Substitution2: "+U1VOAGb/Y2IA +Z+VifgAA 59+Zv9O44ho" Z.leftL
EndChar

StartChar: Z.leftL
Encoding: 65699 -1 325
Width: 600
GlyphClass: 1
Flags: W
LayerCount: 2
Fore
SplineSet
6 0 m 1
 6 100 l 1
 337 590 l 1
 16 590 l 1
 16 700 l 1
 489 700 l 1
 489 600 l 1
 158 110 l 1
 506 110 l 1
 506 0 l 1
 6 0 l 1
EndSplineSet
Validated: 1
EndChar

StartChar: Z.leftM
Encoding: 65700 -1 326
Width: 600
GlyphClass: 1
Flags: W
LayerCount: 2
Fore
SplineSet
20 0 m 1
 20 100 l 1
 351 590 l 1
 30 590 l 1
 30 700 l 1
 503 700 l 1
 503 600 l 1
 172 110 l 1
 520 110 l 1
 520 0 l 1
 20 0 l 1
EndSplineSet
Validated: 1
EndChar

StartChar: Z.leftS
Encoding: 65701 -1 327
Width: 600
GlyphClass: 1
Flags: W
LayerCount: 2
Fore
SplineSet
32 0 m 1
 32 100 l 1
 363 590 l 1
 42 590 l 1
 42 700 l 1
 515 700 l 1
 515 600 l 1
 184 110 l 1
 532 110 l 1
 532 0 l 1
 32 0 l 1
EndSplineSet
Validated: 1
EndChar

StartChar: Z.rightL
Encoding: 65702 -1 328
Width: 600
GlyphClass: 1
Flags: W
LayerCount: 2
Fore
SplineSet
94 0 m 1
 94 100 l 1
 425 590 l 1
 104 590 l 1
 104 700 l 1
 577 700 l 1
 577 600 l 1
 246 110 l 1
 594 110 l 1
 594 0 l 1
 94 0 l 1
EndSplineSet
Validated: 1
EndChar

StartChar: Z.rightM
Encoding: 65703 -1 329
Width: 600
GlyphClass: 1
Flags: W
LayerCount: 2
Fore
SplineSet
80 0 m 1
 80 100 l 1
 411 590 l 1
 90 590 l 1
 90 700 l 1
 563 700 l 1
 563 600 l 1
 232 110 l 1
 580 110 l 1
 580 0 l 1
 80 0 l 1
EndSplineSet
Validated: 1
EndChar

StartChar: Z.rightS
Encoding: 65704 -1 330
Width: 600
GlyphClass: 1
Flags: W
LayerCount: 2
Fore
SplineSet
68 0 m 1
 68 100 l 1
 399 590 l 1
 78 590 l 1
 78 700 l 1
 551 700 l 1
 551 600 l 1
 220 110 l 1
 568 110 l 1
 568 0 l 1
 68 0 l 1
EndSplineSet
Validated: 1
EndChar

StartChar: Zacute
Encoding: 377 377 331
Width: 600
GlyphClass: 1
Flags: W
LayerCount: 2
Fore
SplineSet
50 0 m 1
 50 100 l 1
 381 590 l 1
 60 590 l 1
 60 700 l 1
 533 700 l 1
 533 600 l 1
 202 110 l 1
 550 110 l 1
 550 0 l 1
 50 0 l 1
454 980 m 1
 325 780 l 1
 225 780 l 1
 304 980 l 1
 454 980 l 1
EndSplineSet
Validated: 1
EndChar

StartChar: Zcaron
Encoding: 381 381 332
Width: 600
GlyphClass: 1
Flags: W
LayerCount: 2
Fore
SplineSet
50 0 m 1
 50 100 l 1
 381 590 l 1
 60 590 l 1
 60 700 l 1
 533 700 l 1
 533 600 l 1
 202 110 l 1
 550 110 l 1
 550 0 l 1
 50 0 l 1
245 771 m 1
 126 971 l 1
 221 971 l 1
 300 869 l 1
 379 971 l 1
 474 971 l 1
 355 771 l 1
 245 771 l 1
EndSplineSet
Validated: 1
EndChar

StartChar: Zdotaccent
Encoding: 379 379 333
Width: 600
GlyphClass: 1
Flags: W
LayerCount: 2
Fore
SplineSet
50 0 m 1
 50 100 l 1
 381 590 l 1
 60 590 l 1
 60 700 l 1
 533 700 l 1
 533 600 l 1
 202 110 l 1
 550 110 l 1
 550 0 l 1
 50 0 l 1
209 861 m 0
 209 912 250 952 300 952 c 0
 351 952 391 912 391 861 c 0
 391 811 351 770 300 770 c 0
 250 770 209 811 209 861 c 0
EndSplineSet
Validated: 1
Substitution2: "'cv03' +W1d7JlPYT1MA-03 +Z+VifgAA 2+Zv9O44ho" Zdotaccent.square
EndChar

StartChar: Zdotaccent.square
Encoding: 65705 -1 334
Width: 600
GlyphClass: 1
Flags: W
LayerCount: 2
Fore
SplineSet
50 0 m 1
 50 100 l 1
 381 590 l 1
 60 590 l 1
 60 700 l 1
 533 700 l 1
 533 600 l 1
 202 110 l 1
 550 110 l 1
 550 0 l 1
 50 0 l 1
221 782 m 1
 221 940 l 1
 379 940 l 1
 379 782 l 1
 221 782 l 1
EndSplineSet
Validated: 1
EndChar

StartChar: Zeta
Encoding: 918 918 335
Width: 600
GlyphClass: 1
Flags: W
LayerCount: 2
Fore
SplineSet
50 0 m 1
 50 100 l 1
 381 590 l 1
 60 590 l 1
 60 700 l 1
 533 700 l 1
 533 600 l 1
 202 110 l 1
 550 110 l 1
 550 0 l 1
 50 0 l 1
EndSplineSet
Validated: 1
EndChar

StartChar: a
Encoding: 97 97 336
Width: 600
GlyphClass: 1
Flags: W
LayerCount: 2
Fore
SplineSet
386 375 m 0
 386 421 353 450 297 450 c 0
 246 450 209 426 205 390 c 1
 88 390 l 1
 89 483 177 550 299 550 c 0
 423 550 506 480 506 376 c 2
 506 193 l 2
 506 120 513 55 526 0 c 1
 410 0 l 1
 404 20 399 44 395 70 c 1
 390 70 l 1
 361 19 311 -10 245 -10 c 0
 142 -10 70 58 70 156 c 0
 70 256 146 311 305 325 c 2
 338 328 l 2
 372 331 386 345 386 375 c 0
270 85 m 0
 335 85 386 137 386 204 c 2
 386 260 l 1
 375 254 362 250 347 248 c 2
 315 244 l 2
 227 233 190 207 190 158 c 0
 190 114 221 85 270 85 c 0
EndSplineSet
Validated: 1
Substitution2: "+U1VOAGb/Y2IA +Z+VifgAA 72+Zv9O44ho" a.rightS
Substitution2: "+U1VOAGb/Y2IA +Z+VifgAA 71+Zv9O44ho" a.rightM
Substitution2: "+U1VOAGb/Y2IA +Z+VifgAA 70+Zv9O44ho" a.rightL
Substitution2: "+U1VOAGb/Y2IA +Z+VifgAA 69+Zv9O44ho" a.leftS
Substitution2: "+U1VOAGb/Y2IA +Z+VifgAA 68+Zv9O44ho" a.leftM
Substitution2: "+U1VOAGb/Y2IA +Z+VifgAA 67+Zv9O44ho" a.leftL
Substitution2: "+U1VOAGb/Y2IA +Z+VifgAA 66+Zv9O44ho" a.rightS
Substitution2: "+U1VOAGb/Y2IA +Z+VifgAA 65+Zv9O44ho" a.rightM
Substitution2: "+U1VOAGb/Y2IA +Z+VifgAA 64+Zv9O44ho" a.rightS
Substitution2: "+U1VOAGb/Y2IA +Z+VifgAA 63+Zv9O44ho" a.rightM
Substitution2: "+U1VOAGb/Y2IA +Z+VifgAA 62+Zv9O44ho" a.rightL
Substitution2: "+U1VOAGb/Y2IA +Z+VifgAA 61+Zv9O44ho" a.leftS
Substitution2: "+U1VOAGb/Y2IA +Z+VifgAA 60+Zv9O44ho" a.leftM
Substitution2: "+U1VOAGb/Y2IA +Z+VifgAA 59+Zv9O44ho" a.leftL
Substitution2: "'cv08' +W1d7JlPYT1MA-08 +Z+VifgAA 7+Zv9O44ho" a.cv08
Substitution2: "'cv01' +W1d7JlPYT1MA-01 +Z+VifgAA 0+Zv9O44ho" a.cv01
EndChar

StartChar: a.cv01
Encoding: 65706 -1 337
Width: 600
GlyphClass: 1
Flags: W
LayerCount: 2
Fore
SplineSet
404 89 m 1
 373 25 323 -10 255 -10 c 0
 131 -10 39 109 39 270 c 0
 39 430 132 550 256 550 c 0
 324 550 375 514 405 449 c 1
 410 449 l 1
 410 540 l 1
 525 540 l 1
 525 180 l 2
 525 129 528 63 532 0 c 1
 417 0 l 1
 413 32 411 60 409 89 c 1
 404 89 l 1
407 270 m 0
 407 367 354 440 283 440 c 0
 212 440 159 367 159 270 c 0
 159 173 212 100 283 100 c 0
 354 100 407 173 407 270 c 0
EndSplineSet
Validated: 1
Substitution2: "+U1VOAGb/Y2IA +Z+VifgAA 72+Zv9O44ho" a.cv01.rightS
Substitution2: "+U1VOAGb/Y2IA +Z+VifgAA 71+Zv9O44ho" a.cv01.rightM
Substitution2: "+U1VOAGb/Y2IA +Z+VifgAA 70+Zv9O44ho" a.cv01.rightL
Substitution2: "+U1VOAGb/Y2IA +Z+VifgAA 69+Zv9O44ho" a.cv01.leftS
Substitution2: "+U1VOAGb/Y2IA +Z+VifgAA 68+Zv9O44ho" a.cv01.leftM
Substitution2: "+U1VOAGb/Y2IA +Z+VifgAA 67+Zv9O44ho" a.cv01.leftL
Substitution2: "+U1VOAGb/Y2IA +Z+VifgAA 66+Zv9O44ho" a.cv01.rightS
Substitution2: "+U1VOAGb/Y2IA +Z+VifgAA 65+Zv9O44ho" a.cv01.rightM
Substitution2: "+U1VOAGb/Y2IA +Z+VifgAA 64+Zv9O44ho" a.cv01.rightS
Substitution2: "+U1VOAGb/Y2IA +Z+VifgAA 63+Zv9O44ho" a.cv01.rightM
Substitution2: "+U1VOAGb/Y2IA +Z+VifgAA 62+Zv9O44ho" a.cv01.rightL
Substitution2: "+U1VOAGb/Y2IA +Z+VifgAA 61+Zv9O44ho" a.cv01.leftS
Substitution2: "+U1VOAGb/Y2IA +Z+VifgAA 60+Zv9O44ho" a.cv01.leftM
Substitution2: "+U1VOAGb/Y2IA +Z+VifgAA 59+Zv9O44ho" a.cv01.leftL
EndChar

StartChar: a.cv01.leftL
Encoding: 65707 -1 338
Width: 600
GlyphClass: 1
Flags: W
LayerCount: 2
Fore
SplineSet
360 89 m 1
 329 25 279 -10 211 -10 c 0
 87 -10 -5 109 -5 270 c 0
 -5 430 88 550 212 550 c 0
 280 550 331 514 361 449 c 1
 366 449 l 1
 366 540 l 1
 481 540 l 1
 481 180 l 2
 481 129 484 63 488 0 c 1
 373 0 l 1
 369 32 367 60 365 89 c 1
 360 89 l 1
363 270 m 0
 363 367 310 440 239 440 c 0
 168 440 115 367 115 270 c 0
 115 173 168 100 239 100 c 0
 310 100 363 173 363 270 c 0
EndSplineSet
Validated: 1
EndChar

StartChar: a.cv01.leftM
Encoding: 65708 -1 339
Width: 600
GlyphClass: 1
Flags: W
LayerCount: 2
Fore
SplineSet
374 89 m 1
 343 25 293 -10 225 -10 c 0
 101 -10 9 109 9 270 c 0
 9 430 102 550 226 550 c 0
 294 550 345 514 375 449 c 1
 380 449 l 1
 380 540 l 1
 495 540 l 1
 495 180 l 2
 495 129 498 63 502 0 c 1
 387 0 l 1
 383 32 381 60 379 89 c 1
 374 89 l 1
377 270 m 0
 377 367 324 440 253 440 c 0
 182 440 129 367 129 270 c 0
 129 173 182 100 253 100 c 0
 324 100 377 173 377 270 c 0
EndSplineSet
Validated: 1
EndChar

StartChar: a.cv01.leftS
Encoding: 65709 -1 340
Width: 600
GlyphClass: 1
Flags: W
LayerCount: 2
Fore
SplineSet
386 89 m 1
 355 25 305 -10 237 -10 c 0
 113 -10 21 109 21 270 c 0
 21 430 114 550 238 550 c 0
 306 550 357 514 387 449 c 1
 392 449 l 1
 392 540 l 1
 507 540 l 1
 507 180 l 2
 507 129 510 63 514 0 c 1
 399 0 l 1
 395 32 393 60 391 89 c 1
 386 89 l 1
389 270 m 0
 389 367 336 440 265 440 c 0
 194 440 141 367 141 270 c 0
 141 173 194 100 265 100 c 0
 336 100 389 173 389 270 c 0
EndSplineSet
Validated: 1
EndChar

StartChar: a.cv01.rightL
Encoding: 65710 -1 341
Width: 600
GlyphClass: 1
Flags: W
LayerCount: 2
Fore
SplineSet
448 89 m 1
 417 25 367 -10 299 -10 c 0
 175 -10 83 109 83 270 c 0
 83 430 176 550 300 550 c 0
 368 550 419 514 449 449 c 1
 454 449 l 1
 454 540 l 1
 569 540 l 1
 569 180 l 2
 569 129 572 63 576 0 c 1
 461 0 l 1
 457 32 455 60 453 89 c 1
 448 89 l 1
451 270 m 0
 451 367 398 440 327 440 c 0
 256 440 203 367 203 270 c 0
 203 173 256 100 327 100 c 0
 398 100 451 173 451 270 c 0
EndSplineSet
Validated: 1
EndChar

StartChar: a.cv01.rightM
Encoding: 65711 -1 342
Width: 600
GlyphClass: 1
Flags: W
LayerCount: 2
Fore
SplineSet
434 89 m 1
 403 25 353 -10 285 -10 c 0
 161 -10 69 109 69 270 c 0
 69 430 162 550 286 550 c 0
 354 550 405 514 435 449 c 1
 440 449 l 1
 440 540 l 1
 555 540 l 1
 555 180 l 2
 555 129 558 63 562 0 c 1
 447 0 l 1
 443 32 441 60 439 89 c 1
 434 89 l 1
437 270 m 0
 437 367 384 440 313 440 c 0
 242 440 189 367 189 270 c 0
 189 173 242 100 313 100 c 0
 384 100 437 173 437 270 c 0
EndSplineSet
Validated: 1
EndChar

StartChar: a.cv01.rightS
Encoding: 65712 -1 343
Width: 600
GlyphClass: 1
Flags: W
LayerCount: 2
Fore
SplineSet
422 89 m 1
 391 25 341 -10 273 -10 c 0
 149 -10 57 109 57 270 c 0
 57 430 150 550 274 550 c 0
 342 550 393 514 423 449 c 1
 428 449 l 1
 428 540 l 1
 543 540 l 1
 543 180 l 2
 543 129 546 63 550 0 c 1
 435 0 l 1
 431 32 429 60 427 89 c 1
 422 89 l 1
425 270 m 0
 425 367 372 440 301 440 c 0
 230 440 177 367 177 270 c 0
 177 173 230 100 301 100 c 0
 372 100 425 173 425 270 c 0
EndSplineSet
Validated: 1
EndChar

StartChar: a.cv08
Encoding: 65713 -1 344
Width: 600
GlyphClass: 1
Flags: W
LayerCount: 2
Fore
SplineSet
526 0 m 1
 410 0 l 1
 404 20 399 44 395 70 c 1
 390 70 l 1
 361 19 311 -10 245 -10 c 0
 142 -10 70 58 70 156 c 0
 70 256 146 311 305 325 c 0
 310 325 331 327 338 328 c 0
 372 331 386 345 386 374 c 0
 386 421 351 450 294 450 c 0
 243 450 204 426 200 390 c 1
 83 390 l 1
 84 483 174 550 296 550 c 0
 421 550 506 480 506 376 c 2
 506 193 l 2
 506 120 513 55 526 0 c 1
270 85 m 0
 335 85 386 137 386 204 c 2
 386 260 l 1
 375 254 362 250 347 248 c 0
 340 247 320 245 315 244 c 0
 227 233 190 207 190 158 c 0
 190 114 221 85 270 85 c 0
EndSplineSet
Validated: 1
Substitution2: "+U1VOAGb/Y2IA +Z+VifgAA 72+Zv9O44ho" a.cv08.rightS
Substitution2: "+U1VOAGb/Y2IA +Z+VifgAA 71+Zv9O44ho" a.cv08.rightM
Substitution2: "+U1VOAGb/Y2IA +Z+VifgAA 70+Zv9O44ho" a.cv08.rightL
Substitution2: "+U1VOAGb/Y2IA +Z+VifgAA 69+Zv9O44ho" a.cv08.leftS
Substitution2: "+U1VOAGb/Y2IA +Z+VifgAA 68+Zv9O44ho" a.cv08.leftM
Substitution2: "+U1VOAGb/Y2IA +Z+VifgAA 67+Zv9O44ho" a.cv08.leftL
Substitution2: "+U1VOAGb/Y2IA +Z+VifgAA 66+Zv9O44ho" a.cv08.rightS
Substitution2: "+U1VOAGb/Y2IA +Z+VifgAA 65+Zv9O44ho" a.cv08.rightM
Substitution2: "+U1VOAGb/Y2IA +Z+VifgAA 64+Zv9O44ho" a.cv08.rightS
Substitution2: "+U1VOAGb/Y2IA +Z+VifgAA 63+Zv9O44ho" a.cv08.rightM
Substitution2: "+U1VOAGb/Y2IA +Z+VifgAA 62+Zv9O44ho" a.cv08.rightL
Substitution2: "+U1VOAGb/Y2IA +Z+VifgAA 61+Zv9O44ho" a.cv08.leftS
Substitution2: "+U1VOAGb/Y2IA +Z+VifgAA 60+Zv9O44ho" a.cv08.leftM
Substitution2: "+U1VOAGb/Y2IA +Z+VifgAA 59+Zv9O44ho" a.cv08.leftL
EndChar

StartChar: a.cv08.leftL
Encoding: 65714 -1 345
Width: 600
GlyphClass: 1
Flags: W
LayerCount: 2
Fore
SplineSet
482 0 m 1
 366 0 l 1
 360 20 355 44 351 70 c 1
 346 70 l 1
 317 19 267 -10 201 -10 c 0
 98 -10 26 58 26 156 c 0
 26 256 102 311 261 325 c 0
 266 325 287 327 294 328 c 0
 328 331 342 345 342 374 c 0
 342 421 307 450 250 450 c 0
 199 450 160 426 156 390 c 1
 39 390 l 1
 40 483 130 550 252 550 c 0
 377 550 462 480 462 376 c 2
 462 193 l 2
 462 120 469 55 482 0 c 1
226 85 m 0
 291 85 342 137 342 204 c 2
 342 260 l 1
 331 254 318 250 303 248 c 0
 296 247 276 245 271 244 c 0
 183 233 146 207 146 158 c 0
 146 114 177 85 226 85 c 0
EndSplineSet
Validated: 1
EndChar

StartChar: a.cv08.leftM
Encoding: 65715 -1 346
Width: 600
GlyphClass: 1
Flags: W
LayerCount: 2
Fore
SplineSet
496 0 m 1
 380 0 l 1
 374 20 369 44 365 70 c 1
 360 70 l 1
 331 19 281 -10 215 -10 c 0
 112 -10 40 58 40 156 c 0
 40 256 116 311 275 325 c 0
 280 325 301 327 308 328 c 0
 342 331 356 345 356 374 c 0
 356 421 321 450 264 450 c 0
 213 450 174 426 170 390 c 1
 53 390 l 1
 54 483 144 550 266 550 c 0
 391 550 476 480 476 376 c 2
 476 193 l 2
 476 120 483 55 496 0 c 1
240 85 m 0
 305 85 356 137 356 204 c 2
 356 260 l 1
 345 254 332 250 317 248 c 0
 310 247 290 245 285 244 c 0
 197 233 160 207 160 158 c 0
 160 114 191 85 240 85 c 0
EndSplineSet
Validated: 1
EndChar

StartChar: a.cv08.leftS
Encoding: 65716 -1 347
Width: 600
GlyphClass: 1
Flags: W
LayerCount: 2
Fore
SplineSet
508 0 m 1
 392 0 l 1
 386 20 381 44 377 70 c 1
 372 70 l 1
 343 19 293 -10 227 -10 c 0
 124 -10 52 58 52 156 c 0
 52 256 128 311 287 325 c 0
 292 325 313 327 320 328 c 0
 354 331 368 345 368 374 c 0
 368 421 333 450 276 450 c 0
 225 450 186 426 182 390 c 1
 65 390 l 1
 66 483 156 550 278 550 c 0
 403 550 488 480 488 376 c 2
 488 193 l 2
 488 120 495 55 508 0 c 1
252 85 m 0
 317 85 368 137 368 204 c 2
 368 260 l 1
 357 254 344 250 329 248 c 0
 322 247 302 245 297 244 c 0
 209 233 172 207 172 158 c 0
 172 114 203 85 252 85 c 0
EndSplineSet
Validated: 1
EndChar

StartChar: a.cv08.rightL
Encoding: 65717 -1 348
Width: 600
GlyphClass: 1
Flags: W
LayerCount: 2
Fore
SplineSet
570 0 m 1
 454 0 l 1
 448 20 443 44 439 70 c 1
 434 70 l 1
 405 19 355 -10 289 -10 c 0
 186 -10 114 58 114 156 c 0
 114 256 190 311 349 325 c 0
 354 325 375 327 382 328 c 0
 416 331 430 345 430 374 c 0
 430 421 395 450 338 450 c 0
 287 450 248 426 244 390 c 1
 127 390 l 1
 128 483 218 550 340 550 c 0
 465 550 550 480 550 376 c 2
 550 193 l 2
 550 120 557 55 570 0 c 1
314 85 m 0
 379 85 430 137 430 204 c 2
 430 260 l 1
 419 254 406 250 391 248 c 0
 384 247 364 245 359 244 c 0
 271 233 234 207 234 158 c 0
 234 114 265 85 314 85 c 0
EndSplineSet
Validated: 1
EndChar

StartChar: a.cv08.rightM
Encoding: 65718 -1 349
Width: 600
GlyphClass: 1
Flags: W
LayerCount: 2
Fore
SplineSet
556 0 m 1
 440 0 l 1
 434 20 429 44 425 70 c 1
 420 70 l 1
 391 19 341 -10 275 -10 c 0
 172 -10 100 58 100 156 c 0
 100 256 176 311 335 325 c 0
 340 325 361 327 368 328 c 0
 402 331 416 345 416 374 c 0
 416 421 381 450 324 450 c 0
 273 450 234 426 230 390 c 1
 113 390 l 1
 114 483 204 550 326 550 c 0
 451 550 536 480 536 376 c 2
 536 193 l 2
 536 120 543 55 556 0 c 1
300 85 m 0
 365 85 416 137 416 204 c 2
 416 260 l 1
 405 254 392 250 377 248 c 0
 370 247 350 245 345 244 c 0
 257 233 220 207 220 158 c 0
 220 114 251 85 300 85 c 0
EndSplineSet
Validated: 1
EndChar

StartChar: a.cv08.rightS
Encoding: 65719 -1 350
Width: 600
GlyphClass: 1
Flags: W
LayerCount: 2
Fore
SplineSet
544 0 m 1
 428 0 l 1
 422 20 417 44 413 70 c 1
 408 70 l 1
 379 19 329 -10 263 -10 c 0
 160 -10 88 58 88 156 c 0
 88 256 164 311 323 325 c 0
 328 325 349 327 356 328 c 0
 390 331 404 345 404 374 c 0
 404 421 369 450 312 450 c 0
 261 450 222 426 218 390 c 1
 101 390 l 1
 102 483 192 550 314 550 c 0
 439 550 524 480 524 376 c 2
 524 193 l 2
 524 120 531 55 544 0 c 1
288 85 m 0
 353 85 404 137 404 204 c 2
 404 260 l 1
 393 254 380 250 365 248 c 0
 358 247 338 245 333 244 c 0
 245 233 208 207 208 158 c 0
 208 114 239 85 288 85 c 0
EndSplineSet
Validated: 1
EndChar

StartChar: a.leftL
Encoding: 65720 -1 351
Width: 600
GlyphClass: 1
Flags: W
LayerCount: 2
Fore
SplineSet
342 375 m 0
 342 421 309 450 253 450 c 0
 202 450 165 426 161 390 c 1
 44 390 l 1
 45 483 133 550 255 550 c 0
 379 550 462 480 462 376 c 2
 462 193 l 2
 462 120 469 55 482 0 c 1
 366 0 l 1
 360 20 355 44 351 70 c 1
 346 70 l 1
 317 19 267 -10 201 -10 c 0
 98 -10 26 58 26 156 c 0
 26 256 102 311 261 325 c 2
 294 328 l 2
 328 331 342 345 342 375 c 0
226 85 m 0
 291 85 342 137 342 204 c 2
 342 260 l 1
 331 254 318 250 303 248 c 2
 271 244 l 2
 183 233 146 207 146 158 c 0
 146 114 177 85 226 85 c 0
EndSplineSet
Validated: 1
Substitution2: "'cv08' +W1d7JlPYT1MA-08 +Z+VifgAA 7+Zv9O44ho" a.cv08.leftL
Substitution2: "'cv01' +W1d7JlPYT1MA-01 +Z+VifgAA 0+Zv9O44ho" a.cv01.leftL
EndChar

StartChar: a.leftM
Encoding: 65721 -1 352
Width: 600
GlyphClass: 1
Flags: W
LayerCount: 2
Fore
SplineSet
356 375 m 0
 356 421 323 450 267 450 c 0
 216 450 179 426 175 390 c 1
 58 390 l 1
 59 483 147 550 269 550 c 0
 393 550 476 480 476 376 c 2
 476 193 l 2
 476 120 483 55 496 0 c 1
 380 0 l 1
 374 20 369 44 365 70 c 1
 360 70 l 1
 331 19 281 -10 215 -10 c 0
 112 -10 40 58 40 156 c 0
 40 256 116 311 275 325 c 2
 308 328 l 2
 342 331 356 345 356 375 c 0
240 85 m 0
 305 85 356 137 356 204 c 2
 356 260 l 1
 345 254 332 250 317 248 c 2
 285 244 l 2
 197 233 160 207 160 158 c 0
 160 114 191 85 240 85 c 0
EndSplineSet
Validated: 1
Substitution2: "'cv08' +W1d7JlPYT1MA-08 +Z+VifgAA 7+Zv9O44ho" a.cv08.leftM
Substitution2: "'cv01' +W1d7JlPYT1MA-01 +Z+VifgAA 0+Zv9O44ho" a.cv01.leftM
EndChar

StartChar: a.leftS
Encoding: 65722 -1 353
Width: 600
GlyphClass: 1
Flags: W
LayerCount: 2
Fore
SplineSet
374 375 m 0
 374 421 341 450 285 450 c 0
 234 450 197 426 193 390 c 1
 76 390 l 1
 77 483 165 550 287 550 c 0
 411 550 494 480 494 376 c 2
 494 193 l 2
 494 120 501 55 514 0 c 1
 398 0 l 1
 392 20 387 44 383 70 c 1
 378 70 l 1
 349 19 299 -10 233 -10 c 0
 130 -10 58 58 58 156 c 0
 58 256 134 311 293 325 c 2
 326 328 l 2
 360 331 374 345 374 375 c 0
258 85 m 0
 323 85 374 137 374 204 c 2
 374 260 l 1
 363 254 350 250 335 248 c 2
 303 244 l 2
 215 233 178 207 178 158 c 0
 178 114 209 85 258 85 c 0
EndSplineSet
Validated: 1
Substitution2: "'cv08' +W1d7JlPYT1MA-08 +Z+VifgAA 7+Zv9O44ho" a.cv08.leftS
Substitution2: "'cv01' +W1d7JlPYT1MA-01 +Z+VifgAA 0+Zv9O44ho" a.cv01.leftS
EndChar

StartChar: a.rightL
Encoding: 65723 -1 354
Width: 600
GlyphClass: 1
Flags: W
LayerCount: 2
Fore
SplineSet
430 375 m 0
 430 421 397 450 341 450 c 0
 290 450 253 426 249 390 c 1
 132 390 l 1
 133 483 221 550 343 550 c 0
 467 550 550 480 550 376 c 2
 550 193 l 2
 550 120 557 55 570 0 c 1
 454 0 l 1
 448 20 443 44 439 70 c 1
 434 70 l 1
 405 19 355 -10 289 -10 c 0
 186 -10 114 58 114 156 c 0
 114 256 190 311 349 325 c 2
 382 328 l 2
 416 331 430 345 430 375 c 0
314 85 m 0
 379 85 430 137 430 204 c 2
 430 260 l 1
 419 254 406 250 391 248 c 2
 359 244 l 2
 271 233 234 207 234 158 c 0
 234 114 265 85 314 85 c 0
EndSplineSet
Validated: 1
Substitution2: "'cv08' +W1d7JlPYT1MA-08 +Z+VifgAA 7+Zv9O44ho" a.cv08.rightL
Substitution2: "'cv01' +W1d7JlPYT1MA-01 +Z+VifgAA 0+Zv9O44ho" a.cv01.rightL
EndChar

StartChar: a.rightM
Encoding: 65724 -1 355
Width: 600
GlyphClass: 1
Flags: W
LayerCount: 2
Fore
SplineSet
413 375 m 0
 413 421 380 450 324 450 c 0
 273 450 236 426 232 390 c 1
 115 390 l 1
 116 483 204 550 326 550 c 0
 450 550 533 480 533 376 c 2
 533 193 l 2
 533 120 540 55 553 0 c 1
 437 0 l 1
 431 20 426 44 422 70 c 1
 417 70 l 1
 388 19 338 -10 272 -10 c 0
 169 -10 97 58 97 156 c 0
 97 256 173 311 332 325 c 2
 365 328 l 2
 399 331 413 345 413 375 c 0
297 85 m 0
 362 85 413 137 413 204 c 2
 413 260 l 1
 402 254 389 250 374 248 c 2
 342 244 l 2
 254 233 217 207 217 158 c 0
 217 114 248 85 297 85 c 0
EndSplineSet
Validated: 1
Substitution2: "'cv08' +W1d7JlPYT1MA-08 +Z+VifgAA 7+Zv9O44ho" a.cv08.rightM
Substitution2: "'cv01' +W1d7JlPYT1MA-01 +Z+VifgAA 0+Zv9O44ho" a.cv01.rightM
EndChar

StartChar: a.rightS
Encoding: 65725 -1 356
Width: 600
GlyphClass: 1
Flags: W
LayerCount: 2
Fore
SplineSet
398 375 m 0
 398 421 365 450 309 450 c 0
 258 450 221 426 217 390 c 1
 100 390 l 1
 101 483 189 550 311 550 c 0
 435 550 518 480 518 376 c 2
 518 193 l 2
 518 120 525 55 538 0 c 1
 422 0 l 1
 416 20 411 44 407 70 c 1
 402 70 l 1
 373 19 323 -10 257 -10 c 0
 154 -10 82 58 82 156 c 0
 82 256 158 311 317 325 c 2
 350 328 l 2
 384 331 398 345 398 375 c 0
282 85 m 0
 347 85 398 137 398 204 c 2
 398 260 l 1
 387 254 374 250 359 248 c 2
 327 244 l 2
 239 233 202 207 202 158 c 0
 202 114 233 85 282 85 c 0
EndSplineSet
Validated: 1
Substitution2: "'cv08' +W1d7JlPYT1MA-08 +Z+VifgAA 7+Zv9O44ho" a.cv08.rightS
Substitution2: "'cv01' +W1d7JlPYT1MA-01 +Z+VifgAA 0+Zv9O44ho" a.cv01.rightS
EndChar

StartChar: aacute
Encoding: 225 225 357
Width: 600
GlyphClass: 1
Flags: W
LayerCount: 2
Fore
SplineSet
386 375 m 0
 386 421 353 450 297 450 c 0
 246 450 209 426 205 390 c 1
 88 390 l 1
 89 483 177 550 299 550 c 0
 423 550 506 480 506 376 c 2
 506 193 l 2
 506 120 513 55 526 0 c 1
 410 0 l 1
 404 20 399 44 395 70 c 1
 390 70 l 1
 361 19 311 -10 245 -10 c 0
 142 -10 70 58 70 156 c 0
 70 256 146 311 305 325 c 2
 338 328 l 2
 372 331 386 345 386 375 c 0
270 85 m 0
 335 85 386 137 386 204 c 2
 386 260 l 1
 375 254 362 250 347 248 c 2
 315 244 l 2
 227 233 190 207 190 158 c 0
 190 114 221 85 270 85 c 0
450 820 m 1
 321 620 l 1
 221 620 l 1
 300 820 l 1
 450 820 l 1
EndSplineSet
Validated: 1
Substitution2: "'cv08' +W1d7JlPYT1MA-08 +Z+VifgAA 7+Zv9O44ho" aacute.cv08
Substitution2: "'cv01' +W1d7JlPYT1MA-01 +Z+VifgAA 0+Zv9O44ho" aacute.cv01
EndChar

StartChar: aacute.cv01
Encoding: 65726 -1 358
Width: 600
GlyphClass: 1
Flags: W
LayerCount: 2
Fore
SplineSet
404 89 m 1
 373 25 323 -10 255 -10 c 0
 131 -10 39 109 39 270 c 0
 39 430 132 550 256 550 c 0
 324 550 375 514 405 449 c 1
 410 449 l 1
 410 540 l 1
 525 540 l 1
 525 180 l 2
 525 129 528 63 532 0 c 1
 417 0 l 1
 413 32 411 60 409 89 c 1
 404 89 l 1
407 270 m 0
 407 367 354 440 283 440 c 0
 212 440 159 367 159 270 c 0
 159 173 212 100 283 100 c 0
 354 100 407 173 407 270 c 0
433 820 m 1
 304 620 l 1
 204 620 l 1
 283 820 l 1
 433 820 l 1
EndSplineSet
Validated: 1
EndChar

StartChar: aacute.cv08
Encoding: 65727 -1 359
Width: 600
GlyphClass: 1
Flags: W
LayerCount: 2
Fore
SplineSet
526 0 m 1
 410 0 l 1
 404 20 399 44 395 70 c 1
 390 70 l 1
 361 19 311 -10 245 -10 c 0
 142 -10 70 58 70 156 c 0
 70 256 146 311 305 325 c 0
 310 325 331 327 338 328 c 0
 372 331 386 345 386 374 c 0
 386 421 351 450 294 450 c 0
 243 450 204 426 200 390 c 1
 83 390 l 1
 84 483 174 550 296 550 c 0
 421 550 506 480 506 376 c 2
 506 193 l 2
 506 120 513 55 526 0 c 1
270 85 m 0
 335 85 386 137 386 204 c 2
 386 260 l 1
 375 254 362 250 347 248 c 0
 340 247 320 245 315 244 c 0
 227 233 190 207 190 158 c 0
 190 114 221 85 270 85 c 0
450 820 m 1
 321 620 l 1
 221 620 l 1
 300 820 l 1
 450 820 l 1
EndSplineSet
Validated: 1
EndChar

StartChar: abreve
Encoding: 259 259 360
Width: 600
GlyphClass: 1
Flags: W
LayerCount: 2
Fore
SplineSet
386 375 m 0
 386 421 353 450 297 450 c 0
 246 450 209 426 205 390 c 1
 88 390 l 1
 89 483 177 550 299 550 c 0
 423 550 506 480 506 376 c 2
 506 193 l 2
 506 120 513 55 526 0 c 1
 410 0 l 1
 404 20 399 44 395 70 c 1
 390 70 l 1
 361 19 311 -10 245 -10 c 0
 142 -10 70 58 70 156 c 0
 70 256 146 311 305 325 c 2
 338 328 l 2
 372 331 386 345 386 375 c 0
270 85 m 0
 335 85 386 137 386 204 c 2
 386 260 l 1
 375 254 362 250 347 248 c 2
 315 244 l 2
 227 233 190 207 190 158 c 0
 190 114 221 85 270 85 c 0
240 772 m 1
 244 732 266 706 296 706 c 0
 326 706 348 732 352 772 c 1
 447 772 l 1
 447 681 384 616 296 616 c 0
 208 616 145 681 145 772 c 1
 240 772 l 1
EndSplineSet
Validated: 1
Substitution2: "'cv08' +W1d7JlPYT1MA-08 +Z+VifgAA 7+Zv9O44ho" abreve.cv08
Substitution2: "'cv01' +W1d7JlPYT1MA-01 +Z+VifgAA 0+Zv9O44ho" abreve.cv01
EndChar

StartChar: abreve.cv01
Encoding: 65728 -1 361
Width: 600
GlyphClass: 1
Flags: W
LayerCount: 2
Fore
SplineSet
404 89 m 1
 373 25 323 -10 255 -10 c 0
 131 -10 39 109 39 270 c 0
 39 430 132 550 256 550 c 0
 324 550 375 514 405 449 c 1
 410 449 l 1
 410 540 l 1
 525 540 l 1
 525 180 l 2
 525 129 528 63 532 0 c 1
 417 0 l 1
 413 32 411 60 409 89 c 1
 404 89 l 1
407 270 m 0
 407 367 354 440 283 440 c 0
 212 440 159 367 159 270 c 0
 159 173 212 100 283 100 c 0
 354 100 407 173 407 270 c 0
223 772 m 1
 227 732 249 706 279 706 c 0
 309 706 331 732 335 772 c 1
 430 772 l 1
 430 681 367 616 279 616 c 0
 191 616 128 681 128 772 c 1
 223 772 l 1
EndSplineSet
Validated: 1
EndChar

StartChar: abreve.cv08
Encoding: 65729 -1 362
Width: 600
GlyphClass: 1
Flags: W
LayerCount: 2
Fore
SplineSet
526 0 m 1
 410 0 l 1
 404 20 399 44 395 70 c 1
 390 70 l 1
 361 19 311 -10 245 -10 c 0
 142 -10 70 58 70 156 c 0
 70 256 146 311 305 325 c 0
 310 325 331 327 338 328 c 0
 372 331 386 345 386 374 c 0
 386 421 351 450 294 450 c 0
 243 450 204 426 200 390 c 1
 83 390 l 1
 84 483 174 550 296 550 c 0
 421 550 506 480 506 376 c 2
 506 193 l 2
 506 120 513 55 526 0 c 1
270 85 m 0
 335 85 386 137 386 204 c 2
 386 260 l 1
 375 254 362 250 347 248 c 0
 340 247 320 245 315 244 c 0
 227 233 190 207 190 158 c 0
 190 114 221 85 270 85 c 0
240 772 m 1
 244 732 266 706 296 706 c 0
 326 706 348 732 352 772 c 1
 447 772 l 1
 447 681 384 616 296 616 c 0
 208 616 145 681 145 772 c 1
 240 772 l 1
EndSplineSet
Validated: 1
EndChar

StartChar: acircumflex
Encoding: 226 226 363
Width: 600
GlyphClass: 1
Flags: W
LayerCount: 2
Fore
SplineSet
386 375 m 0
 386 421 353 450 297 450 c 0
 246 450 209 426 205 390 c 1
 88 390 l 1
 89 483 177 550 299 550 c 0
 423 550 506 480 506 376 c 2
 506 193 l 2
 506 120 513 55 526 0 c 1
 410 0 l 1
 404 20 399 44 395 70 c 1
 390 70 l 1
 361 19 311 -10 245 -10 c 0
 142 -10 70 58 70 156 c 0
 70 256 146 311 305 325 c 2
 338 328 l 2
 372 331 386 345 386 375 c 0
270 85 m 0
 335 85 386 137 386 204 c 2
 386 260 l 1
 375 254 362 250 347 248 c 2
 315 244 l 2
 227 233 190 207 190 158 c 0
 190 114 221 85 270 85 c 0
122 611 m 1
 241 811 l 1
 351 811 l 1
 470 611 l 1
 375 611 l 1
 296 713 l 1
 217 611 l 1
 122 611 l 1
EndSplineSet
Validated: 1
Substitution2: "'cv08' +W1d7JlPYT1MA-08 +Z+VifgAA 7+Zv9O44ho" acircumflex.cv08
Substitution2: "'cv01' +W1d7JlPYT1MA-01 +Z+VifgAA 0+Zv9O44ho" acircumflex.cv01
EndChar

StartChar: acircumflex.cv01
Encoding: 65730 -1 364
Width: 600
GlyphClass: 1
Flags: W
LayerCount: 2
Fore
SplineSet
404 89 m 1
 373 25 323 -10 255 -10 c 0
 131 -10 39 109 39 270 c 0
 39 430 132 550 256 550 c 0
 324 550 375 514 405 449 c 1
 410 449 l 1
 410 540 l 1
 525 540 l 1
 525 180 l 2
 525 129 528 63 532 0 c 1
 417 0 l 1
 413 32 411 60 409 89 c 1
 404 89 l 1
407 270 m 0
 407 367 354 440 283 440 c 0
 212 440 159 367 159 270 c 0
 159 173 212 100 283 100 c 0
 354 100 407 173 407 270 c 0
105 611 m 1
 224 811 l 1
 334 811 l 1
 453 611 l 1
 358 611 l 1
 279 713 l 1
 200 611 l 1
 105 611 l 1
EndSplineSet
Validated: 1
EndChar

StartChar: acircumflex.cv08
Encoding: 65731 -1 365
Width: 600
GlyphClass: 1
Flags: W
LayerCount: 2
Fore
SplineSet
526 0 m 1
 410 0 l 1
 404 20 399 44 395 70 c 1
 390 70 l 1
 361 19 311 -10 245 -10 c 0
 142 -10 70 58 70 156 c 0
 70 256 146 311 305 325 c 0
 310 325 331 327 338 328 c 0
 372 331 386 345 386 374 c 0
 386 421 351 450 294 450 c 0
 243 450 204 426 200 390 c 1
 83 390 l 1
 84 483 174 550 296 550 c 0
 421 550 506 480 506 376 c 2
 506 193 l 2
 506 120 513 55 526 0 c 1
270 85 m 0
 335 85 386 137 386 204 c 2
 386 260 l 1
 375 254 362 250 347 248 c 0
 340 247 320 245 315 244 c 0
 227 233 190 207 190 158 c 0
 190 114 221 85 270 85 c 0
122 611 m 1
 241 811 l 1
 351 811 l 1
 470 611 l 1
 375 611 l 1
 296 713 l 1
 217 611 l 1
 122 611 l 1
EndSplineSet
Validated: 1
EndChar

StartChar: uni2406
Encoding: 9222 9222 366
Width: 600
GlyphClass: 1
Flags: W
LayerCount: 2
Fore
SplineSet
82 625 m 1
 10 625 l 1
 98 975 l 1
 202 975 l 1
 290 625 l 1
 217 625 l 1
 198 709 l 1
 101 709 l 1
 82 625 l 1
118 774 m 1
 181 774 l 1
 151 902 l 1
 149 902 l 1
 118 774 l 1
355 274 m 1
 430 274 l 1
 425 213 377 170 314 170 c 0
 232 170 175 244 175 350 c 0
 175 456 232 530 313 530 c 0
 373 530 419 489 428 431 c 1
 353 431 l 1
 347 450 332 461 313 461 c 0
 274 461 249 418 249 350 c 0
 249 281 274 239 314 239 c 0
 336 239 351 252 355 274 c 1
401 75 m 1
 401 -64 l 1
 509 75 l 1
 598 75 l 1
 485 -68 l 1
 602 -275 l 1
 518 -275 l 1
 436 -128 l 1
 401 -173 l 1
 401 -275 l 1
 326 -275 l 1
 326 75 l 1
 401 75 l 1
EndSplineSet
Validated: 1
EndChar

StartChar: acute
Encoding: 180 180 367
Width: 600
GlyphClass: 1
Flags: W
LayerCount: 2
Fore
SplineSet
477 780 m 1
 248 500 l 1
 123 500 l 1
 307 780 l 1
 477 780 l 1
EndSplineSet
Validated: 1
EndChar

StartChar: acutecomb
Encoding: 769 769 368
Width: 600
GlyphClass: 1
Flags: W
LayerCount: 2
Fore
SplineSet
415 820 m 1
 286 620 l 1
 186 620 l 1
 265 820 l 1
 415 820 l 1
EndSplineSet
Validated: 1
EndChar

StartChar: adieresis
Encoding: 228 228 369
Width: 600
GlyphClass: 1
Flags: W
LayerCount: 2
Fore
SplineSet
386 375 m 0
 386 421 353 450 297 450 c 0
 246 450 209 426 205 390 c 1
 88 390 l 1
 89 483 177 550 299 550 c 0
 423 550 506 480 506 376 c 2
 506 193 l 2
 506 120 513 55 526 0 c 1
 410 0 l 1
 404 20 399 44 395 70 c 1
 390 70 l 1
 361 19 311 -10 245 -10 c 0
 142 -10 70 58 70 156 c 0
 70 256 146 311 305 325 c 2
 338 328 l 2
 372 331 386 345 386 375 c 0
270 85 m 0
 335 85 386 137 386 204 c 2
 386 260 l 1
 375 254 362 250 347 248 c 2
 315 244 l 2
 227 233 190 207 190 158 c 0
 190 114 221 85 270 85 c 0
102 699 m 0
 102 746 140 783 186 783 c 0
 233 783 270 746 270 699 c 0
 270 653 233 616 186 616 c 0
 140 616 102 653 102 699 c 0
322 699 m 0
 322 746 360 783 406 783 c 0
 453 783 490 746 490 699 c 0
 490 653 453 616 406 616 c 0
 360 616 322 653 322 699 c 0
EndSplineSet
Validated: 1
Substitution2: "'cv08' +W1d7JlPYT1MA-08 +Z+VifgAA 7+Zv9O44ho" adieresis.cv08
Substitution2: "'cv03' +W1d7JlPYT1MA-03 +Z+VifgAA 2+Zv9O44ho" adieresis.square
Substitution2: "'cv01' +W1d7JlPYT1MA-01 +Z+VifgAA 0+Zv9O44ho" adieresis.cv01
EndChar

StartChar: adieresis.cv01
Encoding: 65732 -1 370
Width: 600
GlyphClass: 1
Flags: W
LayerCount: 2
Fore
SplineSet
404 89 m 1
 373 25 323 -10 255 -10 c 0
 131 -10 39 109 39 270 c 0
 39 430 132 550 256 550 c 0
 324 550 375 514 405 449 c 1
 410 449 l 1
 410 540 l 1
 525 540 l 1
 525 180 l 2
 525 129 528 63 532 0 c 1
 417 0 l 1
 413 32 411 60 409 89 c 1
 404 89 l 1
407 270 m 0
 407 367 354 440 283 440 c 0
 212 440 159 367 159 270 c 0
 159 173 212 100 283 100 c 0
 354 100 407 173 407 270 c 0
85 699 m 0
 85 746 123 783 169 783 c 0
 216 783 253 746 253 699 c 0
 253 653 216 616 169 616 c 0
 123 616 85 653 85 699 c 0
305 699 m 0
 305 746 343 783 389 783 c 0
 436 783 473 746 473 699 c 0
 473 653 436 616 389 616 c 0
 343 616 305 653 305 699 c 0
EndSplineSet
Validated: 1
EndChar

StartChar: adieresis.cv08
Encoding: 65733 -1 371
Width: 600
GlyphClass: 1
Flags: W
LayerCount: 2
Fore
SplineSet
526 0 m 1
 410 0 l 1
 404 20 399 44 395 70 c 1
 390 70 l 1
 361 19 311 -10 245 -10 c 0
 142 -10 70 58 70 156 c 0
 70 256 146 311 305 325 c 0
 310 325 331 327 338 328 c 0
 372 331 386 345 386 374 c 0
 386 421 351 450 294 450 c 0
 243 450 204 426 200 390 c 1
 83 390 l 1
 84 483 174 550 296 550 c 0
 421 550 506 480 506 376 c 2
 506 193 l 2
 506 120 513 55 526 0 c 1
270 85 m 0
 335 85 386 137 386 204 c 2
 386 260 l 1
 375 254 362 250 347 248 c 0
 340 247 320 245 315 244 c 0
 227 233 190 207 190 158 c 0
 190 114 221 85 270 85 c 0
102 699 m 0
 102 746 140 783 186 783 c 0
 233 783 270 746 270 699 c 0
 270 653 233 616 186 616 c 0
 140 616 102 653 102 699 c 0
322 699 m 0
 322 746 360 783 406 783 c 0
 453 783 490 746 490 699 c 0
 490 653 453 616 406 616 c 0
 360 616 322 653 322 699 c 0
EndSplineSet
Validated: 1
Substitution2: "'cv03' +W1d7JlPYT1MA-03 +Z+VifgAA 2+Zv9O44ho" adieresis.square.cv08
EndChar

StartChar: adieresis.square
Encoding: 65734 -1 372
Width: 600
GlyphClass: 1
Flags: W
LayerCount: 2
Fore
SplineSet
386 375 m 0
 386 421 353 450 297 450 c 0
 246 450 209 426 205 390 c 1
 88 390 l 1
 89 483 177 550 299 550 c 0
 423 550 506 480 506 376 c 2
 506 193 l 2
 506 120 513 55 526 0 c 1
 410 0 l 1
 404 20 399 44 395 70 c 1
 390 70 l 1
 361 19 311 -10 245 -10 c 0
 142 -10 70 58 70 156 c 0
 70 256 146 311 305 325 c 2
 338 328 l 2
 372 331 386 345 386 375 c 0
270 85 m 0
 335 85 386 137 386 204 c 2
 386 260 l 1
 375 254 362 250 347 248 c 2
 315 244 l 2
 227 233 190 207 190 158 c 0
 190 114 221 85 270 85 c 0
114 615 m 1
 114 760 l 1
 259 760 l 1
 259 615 l 1
 114 615 l 1
334 615 m 1
 334 760 l 1
 479 760 l 1
 479 615 l 1
 334 615 l 1
EndSplineSet
Validated: 1
Substitution2: "'cv08' +W1d7JlPYT1MA-08 +Z+VifgAA 7+Zv9O44ho" adieresis.square.cv08
Substitution2: "'cv01' +W1d7JlPYT1MA-01 +Z+VifgAA 0+Zv9O44ho" adieresis.square.cv01
EndChar

StartChar: adieresis.square.cv01
Encoding: 65735 -1 373
Width: 600
GlyphClass: 1
Flags: W
LayerCount: 2
Fore
SplineSet
404 89 m 1
 373 25 323 -10 255 -10 c 0
 131 -10 39 109 39 270 c 0
 39 430 132 550 256 550 c 0
 324 550 375 514 405 449 c 1
 410 449 l 1
 410 540 l 1
 525 540 l 1
 525 180 l 2
 525 129 528 63 532 0 c 1
 417 0 l 1
 413 32 411 60 409 89 c 1
 404 89 l 1
407 270 m 0
 407 367 354 440 283 440 c 0
 212 440 159 367 159 270 c 0
 159 173 212 100 283 100 c 0
 354 100 407 173 407 270 c 0
97 615 m 1
 97 760 l 1
 242 760 l 1
 242 615 l 1
 97 615 l 1
317 615 m 1
 317 760 l 1
 462 760 l 1
 462 615 l 1
 317 615 l 1
EndSplineSet
Validated: 1
EndChar

StartChar: adieresis.square.cv08
Encoding: 65736 -1 374
Width: 600
GlyphClass: 1
Flags: W
LayerCount: 2
Fore
SplineSet
526 0 m 1
 410 0 l 1
 404 20 399 44 395 70 c 1
 390 70 l 1
 361 19 311 -10 245 -10 c 0
 142 -10 70 58 70 156 c 0
 70 256 146 311 305 325 c 0
 310 325 331 327 338 328 c 0
 372 331 386 345 386 374 c 0
 386 421 351 450 294 450 c 0
 243 450 204 426 200 390 c 1
 83 390 l 1
 84 483 174 550 296 550 c 0
 421 550 506 480 506 376 c 2
 506 193 l 2
 506 120 513 55 526 0 c 1
270 85 m 0
 335 85 386 137 386 204 c 2
 386 260 l 1
 375 254 362 250 347 248 c 0
 340 247 320 245 315 244 c 0
 227 233 190 207 190 158 c 0
 190 114 221 85 270 85 c 0
114 615 m 1
 114 760 l 1
 259 760 l 1
 259 615 l 1
 114 615 l 1
334 615 m 1
 334 760 l 1
 479 760 l 1
 479 615 l 1
 334 615 l 1
EndSplineSet
Validated: 1
EndChar

StartChar: ae
Encoding: 230 230 375
Width: 600
GlyphClass: 1
Flags: W
LayerCount: 2
Fore
SplineSet
154 -10 m 0
 68 -10 10 55 10 151 c 0
 10 258 83 327 197 327 c 2
 236 327 l 1
 236 350 l 2
 236 409 211 451 175 451 c 0
 148 451 122 426 119 390 c 1
 18 390 l 1
 21 482 86 550 169 550 c 0
 227 550 270 518 294 461 c 1
 299 461 l 1
 327 518 369 550 423 550 c 0
 522 550 590 440 590 282 c 2
 590 235 l 1
 347 235 l 1
 353 141 381 88 426 88 c 0
 456 88 483 112 490 150 c 1
 586 150 l 1
 574 57 508 -10 426 -10 c 0
 367 -10 323 25 296 89 c 1
 292 89 l 1
 266 26 218 -10 154 -10 c 0
348 327 m 1
 484 327 l 1
 482 406 457 453 418 453 c 0
 379 453 355 408 348 327 c 1
236 235 m 1
 198 235 l 2
 146 235 115 206 115 155 c 0
 115 115 134 88 164 88 c 0
 206 88 236 141 236 214 c 2
 236 235 l 1
EndSplineSet
Validated: 1
EndChar

StartChar: aeacute
Encoding: 509 509 376
Width: 600
GlyphClass: 1
Flags: W
LayerCount: 2
Fore
SplineSet
154 -10 m 0
 68 -10 10 55 10 151 c 0
 10 258 83 327 197 327 c 2
 236 327 l 1
 236 350 l 2
 236 409 211 451 175 451 c 0
 148 451 122 426 119 390 c 1
 18 390 l 1
 21 482 86 550 169 550 c 0
 227 550 270 518 294 461 c 1
 299 461 l 1
 327 518 369 550 423 550 c 0
 522 550 590 440 590 282 c 2
 590 235 l 1
 347 235 l 1
 353 141 381 88 426 88 c 0
 456 88 483 112 490 150 c 1
 586 150 l 1
 574 57 508 -10 426 -10 c 0
 367 -10 323 25 296 89 c 1
 292 89 l 1
 266 26 218 -10 154 -10 c 0
348 327 m 1
 484 327 l 1
 482 406 457 453 418 453 c 0
 379 453 355 408 348 327 c 1
236 235 m 1
 198 235 l 2
 146 235 115 206 115 155 c 0
 115 115 134 88 164 88 c 0
 206 88 236 141 236 214 c 2
 236 235 l 1
454 825 m 1
 325 625 l 1
 225 625 l 1
 304 825 l 1
 454 825 l 1
EndSplineSet
Validated: 1
EndChar

StartChar: agrave
Encoding: 224 224 377
Width: 600
GlyphClass: 1
Flags: W
LayerCount: 2
Fore
SplineSet
386 375 m 0
 386 421 353 450 297 450 c 0
 246 450 209 426 205 390 c 1
 88 390 l 1
 89 483 177 550 299 550 c 0
 423 550 506 480 506 376 c 2
 506 193 l 2
 506 120 513 55 526 0 c 1
 410 0 l 1
 404 20 399 44 395 70 c 1
 390 70 l 1
 361 19 311 -10 245 -10 c 0
 142 -10 70 58 70 156 c 0
 70 256 146 311 305 325 c 2
 338 328 l 2
 372 331 386 345 386 375 c 0
270 85 m 0
 335 85 386 137 386 204 c 2
 386 260 l 1
 375 254 362 250 347 248 c 2
 315 244 l 2
 227 233 190 207 190 158 c 0
 190 114 221 85 270 85 c 0
371 620 m 1
 271 620 l 1
 142 820 l 1
 292 820 l 1
 371 620 l 1
EndSplineSet
Validated: 1
Substitution2: "'cv08' +W1d7JlPYT1MA-08 +Z+VifgAA 7+Zv9O44ho" agrave.cv08
Substitution2: "'cv01' +W1d7JlPYT1MA-01 +Z+VifgAA 0+Zv9O44ho" agrave.cv01
EndChar

StartChar: agrave.cv01
Encoding: 65737 -1 378
Width: 600
GlyphClass: 1
Flags: W
LayerCount: 2
Fore
SplineSet
404 89 m 1
 373 25 323 -10 255 -10 c 0
 131 -10 39 109 39 270 c 0
 39 430 132 550 256 550 c 0
 324 550 375 514 405 449 c 1
 410 449 l 1
 410 540 l 1
 525 540 l 1
 525 180 l 2
 525 129 528 63 532 0 c 1
 417 0 l 1
 413 32 411 60 409 89 c 1
 404 89 l 1
407 270 m 0
 407 367 354 440 283 440 c 0
 212 440 159 367 159 270 c 0
 159 173 212 100 283 100 c 0
 354 100 407 173 407 270 c 0
354 620 m 1
 254 620 l 1
 125 820 l 1
 275 820 l 1
 354 620 l 1
EndSplineSet
Validated: 1
EndChar

StartChar: agrave.cv08
Encoding: 65738 -1 379
Width: 600
GlyphClass: 1
Flags: W
LayerCount: 2
Fore
SplineSet
526 0 m 1
 410 0 l 1
 404 20 399 44 395 70 c 1
 390 70 l 1
 361 19 311 -10 245 -10 c 0
 142 -10 70 58 70 156 c 0
 70 256 146 311 305 325 c 0
 310 325 331 327 338 328 c 0
 372 331 386 345 386 374 c 0
 386 421 351 450 294 450 c 0
 243 450 204 426 200 390 c 1
 83 390 l 1
 84 483 174 550 296 550 c 0
 421 550 506 480 506 376 c 2
 506 193 l 2
 506 120 513 55 526 0 c 1
270 85 m 0
 335 85 386 137 386 204 c 2
 386 260 l 1
 375 254 362 250 347 248 c 0
 340 247 320 245 315 244 c 0
 227 233 190 207 190 158 c 0
 190 114 221 85 270 85 c 0
371 620 m 1
 271 620 l 1
 142 820 l 1
 292 820 l 1
 371 620 l 1
EndSplineSet
Validated: 1
EndChar

StartChar: alpha
Encoding: 945 945 380
Width: 600
GlyphClass: 1
Flags: W
LayerCount: 2
Fore
SplineSet
261 550 m 0
 328 550 378 516 413 447 c 1
 417 447 l 1
 437 540 l 1
 558 540 l 1
 501 270 l 1
 558 0 l 1
 437 0 l 1
 417 93 l 1
 413 93 l 1
 378 24 327 -10 260 -10 c 0
 134 -10 39 110 39 270 c 0
 39 431 135 550 261 550 c 0
379 220 m 2
 390 270 l 1
 379 320 l 2
 362 399 325 440 275 440 c 0
 208 440 159 368 159 270 c 0
 159 172 208 100 275 100 c 0
 326 100 362 141 379 220 c 2
EndSplineSet
Validated: 1
EndChar

StartChar: alphatonos
Encoding: 940 940 381
Width: 600
GlyphClass: 1
Flags: W
LayerCount: 2
Fore
SplineSet
261 550 m 0
 328 550 378 516 413 447 c 1
 417 447 l 1
 437 540 l 1
 558 540 l 1
 501 270 l 1
 558 0 l 1
 437 0 l 1
 417 93 l 1
 413 93 l 1
 378 24 327 -10 260 -10 c 0
 134 -10 39 110 39 270 c 0
 39 431 135 550 261 550 c 0
379 220 m 2
 390 270 l 1
 379 320 l 2
 362 399 325 440 275 440 c 0
 208 440 159 368 159 270 c 0
 159 172 208 100 275 100 c 0
 326 100 362 141 379 220 c 2
400 830 m 1
 321 610 l 1
 231 610 l 1
 260 830 l 1
 400 830 l 1
EndSplineSet
Validated: 1
EndChar

StartChar: uni2387
Encoding: 9095 9095 382
Width: 600
GlyphClass: 1
Flags: W
LayerCount: 2
Fore
SplineSet
432 604 m 1
 172 2 l 1
 0 2 l 1
 0 102 l 1
 106 102 l 1
 366 704 l 1
 600 704 l 1
 600 604 l 1
 432 604 l 1
600 2 m 1
 343 2 l 1
 343 102 l 1
 600 102 l 1
 600 2 l 1
EndSplineSet
Validated: 1
EndChar

StartChar: amacron
Encoding: 257 257 383
Width: 600
GlyphClass: 1
Flags: W
LayerCount: 2
Fore
SplineSet
386 375 m 0
 386 421 353 450 297 450 c 0
 246 450 209 426 205 390 c 1
 88 390 l 1
 89 483 177 550 299 550 c 0
 423 550 506 480 506 376 c 2
 506 193 l 2
 506 120 513 55 526 0 c 1
 410 0 l 1
 404 20 399 44 395 70 c 1
 390 70 l 1
 361 19 311 -10 245 -10 c 0
 142 -10 70 58 70 156 c 0
 70 256 146 311 305 325 c 2
 338 328 l 2
 372 331 386 345 386 375 c 0
270 85 m 0
 335 85 386 137 386 204 c 2
 386 260 l 1
 375 254 362 250 347 248 c 2
 315 244 l 2
 227 233 190 207 190 158 c 0
 190 114 221 85 270 85 c 0
136 640 m 1
 136 740 l 1
 456 740 l 1
 456 640 l 1
 136 640 l 1
EndSplineSet
Validated: 1
Substitution2: "'cv08' +W1d7JlPYT1MA-08 +Z+VifgAA 7+Zv9O44ho" amacron.cv08
Substitution2: "'cv01' +W1d7JlPYT1MA-01 +Z+VifgAA 0+Zv9O44ho" amacron.cv01
EndChar

StartChar: amacron.cv01
Encoding: 65739 -1 384
Width: 600
GlyphClass: 1
Flags: W
LayerCount: 2
Fore
SplineSet
404 89 m 1
 373 25 323 -10 255 -10 c 0
 131 -10 39 109 39 270 c 0
 39 430 132 550 256 550 c 0
 324 550 375 514 405 449 c 1
 410 449 l 1
 410 540 l 1
 525 540 l 1
 525 180 l 2
 525 129 528 63 532 0 c 1
 417 0 l 1
 413 32 411 60 409 89 c 1
 404 89 l 1
407 270 m 0
 407 367 354 440 283 440 c 0
 212 440 159 367 159 270 c 0
 159 173 212 100 283 100 c 0
 354 100 407 173 407 270 c 0
119 640 m 1
 119 740 l 1
 439 740 l 1
 439 640 l 1
 119 640 l 1
EndSplineSet
Validated: 1
EndChar

StartChar: amacron.cv08
Encoding: 65740 -1 385
Width: 600
GlyphClass: 1
Flags: W
LayerCount: 2
Fore
SplineSet
526 0 m 1
 410 0 l 1
 404 20 399 44 395 70 c 1
 390 70 l 1
 361 19 311 -10 245 -10 c 0
 142 -10 70 58 70 156 c 0
 70 256 146 311 305 325 c 0
 310 325 331 327 338 328 c 0
 372 331 386 345 386 374 c 0
 386 421 351 450 294 450 c 0
 243 450 204 426 200 390 c 1
 83 390 l 1
 84 483 174 550 296 550 c 0
 421 550 506 480 506 376 c 2
 506 193 l 2
 506 120 513 55 526 0 c 1
270 85 m 0
 335 85 386 137 386 204 c 2
 386 260 l 1
 375 254 362 250 347 248 c 0
 340 247 320 245 315 244 c 0
 227 233 190 207 190 158 c 0
 190 114 221 85 270 85 c 0
136 640 m 1
 136 740 l 1
 456 740 l 1
 456 640 l 1
 136 640 l 1
EndSplineSet
Validated: 1
EndChar

StartChar: ampersand
Encoding: 38 38 386
Width: 600
GlyphClass: 1
Flags: W
LayerCount: 2
Fore
SplineSet
439 0 m 1
 386 62 l 1
 331 13 268 -14 203 -14 c 0
 94 -14 15 64 15 170 c 0
 15 243 52 308 124 368 c 1
 118 375 l 2
 74 427 50 483 50 538 c 0
 50 637 126 710 231 710 c 0
 336 710 412 638 412 542 c 0
 412 471 371 407 295 355 c 1
 290 351 l 1
 385 239 l 1
 405 275 422 315 433 358 c 1
 554 358 l 1
 533 278 501 207 462 150 c 1
 590 0 l 1
 439 0 l 1
212 96 m 0
 245 96 281 114 314 146 c 1
 196 284 l 1
 156 250 135 214 135 176 c 0
 135 129 167 96 212 96 c 0
170 535 m 0
 170 505 186 472 217 436 c 1
 218 434 l 1
 231 443 l 2
 273 472 296 504 296 538 c 0
 296 574 271 600 234 600 c 0
 196 600 170 573 170 535 c 0
EndSplineSet
Validated: 1
EndChar

StartChar: aogonek
Encoding: 261 261 387
Width: 600
GlyphClass: 1
Flags: W
LayerCount: 2
Fore
SplineSet
526 -200 m 1
 514 -203 498 -205 481 -205 c 0
 402 -205 348 -161 348 -97 c 0
 348 -58 369 -23 409 5 c 1
 403 24 399 46 395 70 c 1
 390 70 l 1
 361 19 311 -10 245 -10 c 0
 142 -10 70 58 70 156 c 0
 70 256 146 311 305 325 c 2
 338 328 l 2
 372 331 386 345 386 375 c 0
 386 421 353 450 297 450 c 0
 246 450 209 426 205 390 c 1
 88 390 l 1
 89 483 177 550 299 550 c 0
 423 550 506 480 506 376 c 2
 506 193 l 2
 506 120 513 55 526 0 c 1
 472 -24 448 -48 448 -76 c 0
 448 -103 470 -120 502 -120 c 0
 510 -120 519 -119 526 -117 c 1
 526 -200 l 1
270 85 m 0
 335 85 386 137 386 204 c 2
 386 260 l 1
 375 254 362 250 347 248 c 2
 315 244 l 2
 227 233 190 207 190 158 c 0
 190 114 221 85 270 85 c 0
EndSplineSet
Validated: 1
Substitution2: "'cv08' +W1d7JlPYT1MA-08 +Z+VifgAA 7+Zv9O44ho" aogonek.cv08
Substitution2: "'cv01' +W1d7JlPYT1MA-01 +Z+VifgAA 0+Zv9O44ho" aogonek.cv01
EndChar

StartChar: aogonek.cv01
Encoding: 65741 -1 388
Width: 600
GlyphClass: 1
Flags: W
LayerCount: 2
Fore
SplineSet
404 89 m 1
 373 25 323 -10 255 -10 c 0
 131 -10 39 109 39 270 c 0
 39 430 132 550 256 550 c 0
 324 550 375 514 405 449 c 1
 410 449 l 1
 410 540 l 1
 525 540 l 1
 525 180 l 2
 525 129 528 63 532 0 c 1
 478 -24 454 -48 454 -76 c 0
 454 -103 476 -120 508 -120 c 0
 516 -120 525 -119 532 -117 c 1
 532 -200 l 1
 520 -203 504 -205 487 -205 c 0
 408 -205 354 -161 354 -97 c 0
 354 -57 375 -22 416 6 c 1
 413 36 411 62 409 89 c 1
 404 89 l 1
407 270 m 0
 407 367 354 440 283 440 c 0
 212 440 159 367 159 270 c 0
 159 173 212 100 283 100 c 0
 354 100 407 173 407 270 c 0
EndSplineSet
Validated: 1
EndChar

StartChar: aogonek.cv08
Encoding: 65742 -1 389
Width: 600
GlyphClass: 1
Flags: W
LayerCount: 2
Fore
SplineSet
523 -200 m 1
 511 -203 495 -205 478 -205 c 0
 399 -205 345 -161 345 -97 c 0
 345 -57 367 -22 408 7 c 1
 403 25 399 47 395 70 c 1
 390 70 l 1
 361 19 311 -10 245 -10 c 0
 142 -10 70 58 70 156 c 0
 70 256 146 311 305 325 c 0
 310 325 331 327 338 328 c 0
 372 331 386 345 386 374 c 0
 386 421 351 450 294 450 c 0
 243 450 204 426 200 390 c 1
 83 390 l 1
 84 483 174 550 296 550 c 0
 421 550 506 480 506 376 c 2
 506 193 l 2
 506 120 513 55 526 0 c 1
 523 0 l 1
 469 -24 445 -48 445 -76 c 0
 445 -103 467 -120 499 -120 c 0
 507 -120 516 -119 523 -117 c 1
 523 -200 l 1
270 85 m 0
 335 85 386 137 386 204 c 2
 386 260 l 1
 375 254 362 250 347 248 c 0
 340 247 320 245 315 244 c 0
 227 233 190 207 190 158 c 0
 190 114 221 85 270 85 c 0
EndSplineSet
Validated: 1
EndChar

StartChar: uniF8FF
Encoding: 63743 63743 390
Width: 600
GlyphClass: 1
Flags: W
LayerCount: 2
Fore
SplineSet
0 0 m 1
 0 700 l 1
 600 700 l 1
 600 0 l 1
 0 0 l 1
360 175 m 1
 360 471 l 1
 362 471 l 1
 425 250 l 1
 467 250 l 1
 531 471 l 1
 533 471 l 1
 533 175 l 1
 576 175 l 1
 576 525 l 1
 510 525 l 1
 447 306 l 1
 445 306 l 1
 383 525 l 1
 316 525 l 1
 316 175 l 1
 360 175 l 1
278 265 m 1
 233 265 l 1
 226 234 200 213 166 213 c 0
 113 213 78 267 78 350 c 0
 78 433 112 488 165 488 c 0
 197 488 223 469 229 440 c 1
 274 440 l 1
 266 493 221 530 165 530 c 0
 86 530 31 457 31 350 c 0
 31 244 86 170 165 170 c 0
 223 170 270 210 278 265 c 1
EndSplineSet
Validated: 1
EndChar

StartChar: approxequal
Encoding: 8776 8776 391
Width: 600
GlyphClass: 1
Flags: W
LayerCount: 2
Fore
SplineSet
48 335 m 1
 48 375 l 2
 48 479 106 545 199 545 c 0
 329 545 344 415 404 415 c 0
 430 415 443 440 445 495 c 2
 446 525 l 1
 552 525 l 1
 552 485 l 2
 552 381 494 315 401 315 c 0
 271 315 256 445 197 445 c 0
 171 445 157 419 155 365 c 2
 154 335 l 1
 48 335 l 1
48 95 m 1
 48 135 l 2
 48 239 106 305 199 305 c 0
 329 305 344 175 404 175 c 0
 430 175 443 200 445 255 c 2
 446 285 l 1
 552 285 l 1
 552 245 l 2
 552 141 494 75 401 75 c 0
 271 75 256 205 197 205 c 0
 171 205 157 179 155 125 c 2
 154 95 l 1
 48 95 l 1
EndSplineSet
Validated: 1
Substitution2: "+U1VOAGb/Y2IA +Z+VifgAA 54+Zv9O44ho" approxequal.case
EndChar

StartChar: approxequal.case
Encoding: 65743 -1 392
Width: 600
GlyphClass: 1
Flags: W
LayerCount: 2
Fore
SplineSet
48 375 m 1
 48 415 l 2
 48 519 106 585 199 585 c 0
 329 585 344 455 404 455 c 0
 430 455 443 480 445 535 c 2
 446 565 l 1
 552 565 l 1
 552 525 l 2
 552 421 494 355 401 355 c 0
 271 355 256 485 197 485 c 0
 171 485 157 459 155 405 c 2
 154 375 l 1
 48 375 l 1
48 135 m 1
 48 175 l 2
 48 279 106 345 199 345 c 0
 329 345 344 215 404 215 c 0
 430 215 443 240 445 295 c 2
 446 325 l 1
 552 325 l 1
 552 285 l 2
 552 181 494 115 401 115 c 0
 271 115 256 245 197 245 c 0
 171 245 157 219 155 165 c 2
 154 135 l 1
 48 135 l 1
EndSplineSet
Validated: 1
Substitution2: "+U1VOAGb/Y2IA +Z+VifgAA 54+Zv9O44ho" approxequal
EndChar

StartChar: aring
Encoding: 229 229 393
Width: 600
GlyphClass: 1
Flags: W
LayerCount: 2
Fore
SplineSet
386 375 m 0
 386 421 353 450 297 450 c 0
 246 450 209 426 205 390 c 1
 88 390 l 1
 89 483 177 550 299 550 c 0
 423 550 506 480 506 376 c 2
 506 193 l 2
 506 120 513 55 526 0 c 1
 410 0 l 1
 404 20 399 44 395 70 c 1
 390 70 l 1
 361 19 311 -10 245 -10 c 0
 142 -10 70 58 70 156 c 0
 70 256 146 311 305 325 c 2
 338 328 l 2
 372 331 386 345 386 375 c 0
270 85 m 0
 335 85 386 137 386 204 c 2
 386 260 l 1
 375 254 362 250 347 248 c 2
 315 244 l 2
 227 233 190 207 190 158 c 0
 190 114 221 85 270 85 c 0
163 728 m 0
 163 800 220 854 296 854 c 0
 372 854 429 800 429 728 c 0
 429 654 370 596 296 596 c 0
 222 596 163 654 163 728 c 0
296 672 m 0
 326 672 348 695 348 725 c 0
 348 755 326 778 296 778 c 0
 266 778 244 755 244 725 c 0
 244 695 266 672 296 672 c 0
EndSplineSet
Validated: 1
Substitution2: "'cv08' +W1d7JlPYT1MA-08 +Z+VifgAA 7+Zv9O44ho" aring.cv08
Substitution2: "'cv01' +W1d7JlPYT1MA-01 +Z+VifgAA 0+Zv9O44ho" aring.cv01
EndChar

